<?xml version="1.0" encoding="utf-8"?>
<!-- Generator: Adobe Illustrator 16.0.0, SVG Export Plug-In . SVG Version: 6.00 Build 0)  -->
<!DOCTYPE svg PUBLIC "-//W3C//DTD SVG 1.1//EN" "http://www.w3.org/Graphics/SVG/1.1/DTD/svg11.dtd">
<svg version="1.1" id="Isolation_Mode" xmlns="http://www.w3.org/2000/svg" xmlns:xlink="http://www.w3.org/1999/xlink" x="0px"
	 y="0px" width="320px" height="320px" viewBox="0 0 320 320" enable-background="new 0 0 320 320" xml:space="preserve">
<g>
	<path opacity="0.5" fill="#BDDBE6" d="M203.887,150.972h59.093c4.136-1.836,5.848-10.167,1.285-11.382
		c-2.302-0.612-12.67,5.201-14.777,3.945c-1.743-1.04,0.375-8.625-4.614-8.625c-7.042,0-17.46,11.787-22.101,11.787
		s-5.832-2.667-9.741-2.804C209.122,143.757,203.887,150.972,203.887,150.972z"/>
	<g>
		<polygon fill="#E3E3E3" points="162.473,160.809 158.572,159.507 158.792,157.922 162.795,158.479 		"/>
		<polygon fill="#E3E3E3" points="164.112,174.236 160.215,172.937 160.434,171.35 164.436,171.905 		"/>
		<polygon fill="#E3E3E3" points="165.155,187.691 161.252,186.39 161.475,184.807 165.477,185.36 		"/>
		<polygon fill="#E3E3E3" points="133.429,59.708 124.919,62.384 157.733,124.243 208.295,108.35 		"/>
		<path fill="#E3E3E3" d="M71.113,151.122l-18.461-7.355c-0.455-0.182-0.433-0.834,0.037-0.981l3.229-1.014
			c1.797-0.565,3.682-0.801,5.563-0.697l31.057,1.732L71.113,151.122z"/>
		<path fill="#EB6678" d="M95.97,136.809c0,0-5.268-0.688-28.116-19.264c-2.064-1.678-4.691-2.514-7.345-2.337l-7.604,1.174
			c-0.366,0.058-0.563,0.459-0.389,0.782l16.33,30.082L95.97,136.809z"/>
		<path fill="#ECECED" d="M237.453,124.847L133.669,157.47c-13.1,4.117-27.028,4.834-40.482,2.087l-29.249-5.972
			c-1.624-0.332-2.454-2.154-1.637-3.598l26.908-11.562c8.544-3.674,17.272-6.911,26.146-9.698L227.584,93.45
			c5.848-1.837,12.035-2.328,18.093-1.417c8.982,1.349,21.18,3.617,21.951,6.082c0.773,2.461-7.93,11.301-14.522,17.545
			C248.654,119.873,243.299,123.01,237.453,124.847z"/>
		<path fill="#E3E3E3" d="M266.785,97.173c-2.188,3.764-8.627,10.231-13.789,15.123c-4.449,4.211-9.805,7.349-15.651,9.187
			l-103.784,32.623c-13.1,4.117-27.027,4.836-40.481,2.09l-29.248-5.974c-0.384-0.077-0.718-0.244-1-0.463l-0.53,0.229
			c-0.817,1.444,0.013,3.267,1.637,3.598l29.249,5.972c13.454,2.747,27.383,2.03,40.482-2.087l103.784-32.623
			c5.846-1.837,11.201-4.975,15.652-9.188c6.593-6.244,15.296-15.083,14.522-17.545C267.529,97.796,267.233,97.48,266.785,97.173z"
			/>
		<g>
			<path fill="#ECECED" d="M209.191,117.45l-52.556,16.518c-0.165,0.054-0.315,0.171-0.429,0.338l-4.014,6.037
				c-0.512,0.767-0.063,2.193,0.795,2.531l6.748,2.655c0.185,0.073,0.373,0.084,0.545,0.029l52.556-16.519
				c0.168-0.054,0.317-0.168,0.425-0.336l4.016-6.038c0.513-0.768,0.063-2.192-0.795-2.531l-6.746-2.654
				C209.551,117.405,209.363,117.395,209.191,117.45z"/>
			<path fill="#DEDEDE" d="M160.09,145.817c-0.142,0.004-0.291-0.023-0.438-0.077l-6.746-2.658
				c-0.463-0.184-0.854-0.651-1.044-1.246c-0.186-0.598-0.134-1.203,0.144-1.619l4.014-6.038c0.139-0.209,0.328-0.357,0.551-0.427
				l52.555-16.521c0.22-0.066,0.462-0.056,0.694,0.036l6.75,2.656c0.466,0.184,0.856,0.651,1.042,1.248
				c0.188,0.596,0.135,1.201-0.143,1.617l-4.014,6.037c-0.142,0.212-0.332,0.361-0.552,0.429l-52.554,16.519
				C160.266,145.801,160.178,145.814,160.09,145.817z M209.396,117.641c-0.044,0.001-0.091,0.009-0.136,0.023l-52.552,16.519
				c-0.124,0.04-0.228,0.123-0.311,0.247l-4.015,6.036c-0.199,0.302-0.231,0.773-0.086,1.237c0.144,0.459,0.442,0.827,0.777,0.959
				l6.747,2.656c0.134,0.053,0.273,0.064,0.392,0.024l52.554-16.519c0.121-0.04,0.229-0.123,0.31-0.246l4.016-6.037
				c0.199-0.3,0.232-0.771,0.086-1.232c-0.145-0.461-0.44-0.83-0.775-0.963l-6.75-2.654
				C209.568,117.653,209.482,117.638,209.396,117.641z"/>
		</g>
		<polygon fill="#ECECED" points="176.42,204.321 167.903,206.996 159.432,137.487 209.993,121.596 		"/>
		<path fill="#EB6678" d="M176.42,204.321l-10.963-7.131c-0.817-0.53-1.832-0.671-2.76-0.379l-2.143,0.674l7.349,9.51
			L176.42,204.321z"/>
		<polygon fill="#EB6678" points="124.919,62.384 121.221,56.963 117.713,53.338 121.682,52.09 127.578,55.892 133.429,59.708 		"/>
		<g>
			<path fill="#ECECED" d="M138.093,142.224l-6.509,2.047c-0.779,0.243-1.211,1.071-0.966,1.847l2.044,6.512
				c0.246,0.777,1.072,1.208,1.851,0.966l6.513-2.049c0.777-0.245,1.209-1.072,0.965-1.847l-2.049-6.512
				C139.697,142.413,138.871,141.98,138.093,142.224z"/>
			<path fill="#DEDEDE" d="M134.123,153.889c-0.285,0.01-0.575-0.055-0.838-0.193c-0.401-0.209-0.699-0.563-0.836-0.996
				l-2.047-6.514c-0.136-0.432-0.096-0.893,0.115-1.295s0.564-0.7,0.997-0.834l6.513-2.047c0.434-0.135,0.89-0.096,1.296,0.114
				c0.4,0.21,0.698,0.564,0.835,0.997l2.048,6.513c0.137,0.434,0.096,0.892-0.112,1.296c-0.211,0.402-0.566,0.698-0.998,0.835
				l-6.514,2.048C134.432,153.857,134.277,153.883,134.123,153.889z M138.5,142.383c-0.113,0.003-0.227,0.022-0.336,0.057
				l-6.515,2.047c-0.317,0.098-0.58,0.319-0.731,0.611c-0.152,0.297-0.186,0.634-0.083,0.952l2.047,6.511
				c0.098,0.319,0.317,0.58,0.61,0.734c0.295,0.154,0.635,0.183,0.953,0.084l6.513-2.048c0.317-0.099,0.577-0.316,0.729-0.611
				c0.156-0.296,0.188-0.634,0.087-0.951l-2.045-6.513c-0.104-0.318-0.319-0.579-0.615-0.733
				C138.921,142.424,138.711,142.375,138.5,142.383z"/>
		</g>
		<g>
			<path fill="#ECECED" d="M102.598,137.772l-2.672,0.839c-0.554,0.172-0.858,0.758-0.688,1.307l2.307,7.336
				c0.173,0.55,0.758,0.854,1.307,0.683l2.674-0.842c0.549-0.172,0.857-0.756,0.682-1.306l-2.304-7.335
				C103.73,137.905,103.145,137.599,102.598,137.772z"/>
			<path fill="#DEDEDE" d="M102.581,148.21c-0.216,0.006-0.431-0.041-0.626-0.143c-0.302-0.159-0.523-0.423-0.624-0.744
				l-2.307-7.338c-0.102-0.323-0.071-0.665,0.085-0.965c0.156-0.303,0.424-0.526,0.744-0.625l2.672-0.839
				c0.678-0.22,1.381,0.161,1.591,0.829l2.308,7.335c0.21,0.668-0.161,1.38-0.827,1.592l-2.675,0.841
				C102.806,148.188,102.693,148.206,102.581,148.21z M102.662,137.986l-2.674,0.841c-0.207,0.065-0.378,0.207-0.478,0.4
				c-0.101,0.195-0.118,0.414-0.055,0.623l2.306,7.335c0.065,0.21,0.208,0.378,0.402,0.48c0.19,0.102,0.412,0.125,0.622,0.056
				l2.675-0.841c0.429-0.134,0.667-0.595,0.532-1.021l-2.308-7.339C103.554,138.092,103.09,137.851,102.662,137.986L102.662,137.986
				z"/>
		</g>
		<g>
			<path fill="#ECECED" d="M233.485,112.239l-6.514,2.048c-0.774,0.246-1.208,1.072-0.964,1.846l2.049,6.514
				c0.242,0.777,1.07,1.209,1.848,0.964l6.512-2.048c0.776-0.245,1.207-1.073,0.963-1.847l-2.047-6.514
				C235.088,112.428,234.262,111.996,233.485,112.239z"/>
			<path fill="#DEDEDE" d="M229.516,123.905c-0.744,0.024-1.441-0.446-1.674-1.19l-2.049-6.513c-0.283-0.893,0.219-1.85,1.113-2.131
				l6.511-2.048c0.896-0.28,1.852,0.216,2.133,1.111l2.046,6.514c0.135,0.432,0.096,0.894-0.117,1.296
				c-0.209,0.402-0.561,0.699-0.996,0.833l-6.51,2.048C229.82,123.873,229.671,123.901,229.516,123.905z M233.555,112.455
				l-6.515,2.049c-0.653,0.206-1.02,0.907-0.815,1.562l2.046,6.514c0.101,0.316,0.318,0.579,0.616,0.731
				c0.295,0.155,0.63,0.182,0.946,0.084l6.515-2.048c0.319-0.099,0.578-0.317,0.729-0.611c0.157-0.295,0.188-0.634,0.087-0.953
				l-2.047-6.512C234.912,112.615,234.206,112.253,233.555,112.455z"/>
		</g>
		<path fill="#90C9F9" d="M111.165,141.058l-0.85,0.266c-0.589,0.188-1.22-0.14-1.405-0.73l-0.675-2.152
			c-0.188-0.59,0.142-1.221,0.732-1.406l0.847-0.268c0.592-0.186,1.224,0.142,1.404,0.734l0.68,2.153
			C112.084,140.244,111.758,140.873,111.165,141.058z"/>
		<path fill="#90C9F9" d="M103.395,143.502l-0.85,0.265c-0.59,0.186-1.221-0.143-1.405-0.732l-0.676-2.152
			c-0.188-0.591,0.142-1.221,0.732-1.404l0.848-0.27c0.595-0.186,1.222,0.144,1.406,0.734l0.677,2.151
			C104.313,142.687,103.983,143.316,103.395,143.502z"/>
		<path fill="#90C9F9" d="M116.783,139.29l-0.848,0.269c-0.59,0.186-1.219-0.144-1.402-0.735l-0.68-2.149
			c-0.186-0.591,0.144-1.22,0.734-1.408l0.848-0.265c0.593-0.187,1.224,0.142,1.407,0.732l0.676,2.152
			C117.703,138.476,117.377,139.105,116.783,139.29z"/>
		<path fill="#90C9F9" d="M122.405,137.523l-0.848,0.268c-0.591,0.187-1.22-0.142-1.407-0.734l-0.674-2.151
			c-0.188-0.591,0.142-1.22,0.731-1.406l0.849-0.267c0.592-0.185,1.219,0.145,1.406,0.734l0.678,2.151
			C123.324,136.71,122.996,137.341,122.405,137.523z"/>
		<path fill="#90C9F9" d="M128.026,135.761l-0.849,0.263c-0.593,0.188-1.222-0.14-1.406-0.732l-0.678-2.152
			c-0.186-0.589,0.143-1.22,0.737-1.407l0.846-0.265c0.591-0.186,1.22,0.143,1.407,0.734l0.676,2.15
			C128.944,134.944,128.619,135.573,128.026,135.761z"/>
		<path fill="#90C9F9" d="M133.647,133.992l-0.851,0.268c-0.588,0.184-1.221-0.143-1.405-0.735l-0.676-2.152
			c-0.185-0.59,0.142-1.219,0.732-1.404l0.849-0.268c0.59-0.186,1.22,0.142,1.406,0.734l0.677,2.15
			C134.566,133.175,134.235,133.807,133.647,133.992z"/>
		<path fill="#90C9F9" d="M139.268,132.225l-0.848,0.268c-0.593,0.186-1.225-0.143-1.407-0.733l-0.675-2.152
			c-0.188-0.591,0.143-1.22,0.731-1.406l0.849-0.266c0.59-0.188,1.221,0.142,1.408,0.732l0.675,2.152
			C140.187,131.41,139.856,132.04,139.268,132.225z"/>
		<path fill="#90C9F9" d="M144.887,130.459l-0.848,0.265c-0.591,0.188-1.22-0.141-1.405-0.732l-0.677-2.153
			c-0.186-0.59,0.143-1.22,0.733-1.406l0.848-0.267c0.592-0.185,1.222,0.143,1.405,0.731l0.678,2.153
			C145.807,129.642,145.477,130.273,144.887,130.459z"/>
		<path fill="#90C9F9" d="M150.511,128.692l-0.851,0.266c-0.591,0.187-1.221-0.141-1.407-0.732l-0.674-2.153
			c-0.187-0.591,0.142-1.221,0.729-1.406l0.853-0.267c0.589-0.185,1.22,0.143,1.402,0.734l0.677,2.152
			C151.43,127.877,151.098,128.507,150.511,128.692z"/>
		<path fill="#90C9F9" d="M156.129,126.924l-0.852,0.269c-0.59,0.186-1.217-0.142-1.403-0.734l-0.677-2.151
			c-0.186-0.591,0.142-1.221,0.734-1.407l0.848-0.27c0.593-0.182,1.221,0.147,1.408,0.737l0.677,2.152
			C157.047,126.112,156.72,126.74,156.129,126.924z"/>
		<path fill="#90C9F9" d="M161.75,125.158l-0.851,0.268c-0.59,0.184-1.22-0.143-1.404-0.732l-0.677-2.153
			c-0.186-0.591,0.142-1.221,0.734-1.407l0.846-0.266c0.593-0.188,1.223,0.143,1.407,0.733l0.679,2.152
			C162.672,124.344,162.341,124.974,161.75,125.158z"/>
		<path fill="#90C9F9" d="M167.366,123.392l-0.846,0.267c-0.589,0.186-1.219-0.144-1.407-0.733l-0.676-2.152
			c-0.184-0.591,0.143-1.22,0.734-1.405l0.849-0.268c0.593-0.185,1.221,0.144,1.408,0.733l0.675,2.151
			C168.289,122.576,167.962,123.206,167.366,123.392z"/>
		<path fill="#90C9F9" d="M172.99,121.625l-0.846,0.266c-0.592,0.186-1.222-0.141-1.409-0.733l-0.676-2.151
			c-0.187-0.59,0.144-1.222,0.733-1.408l0.848-0.267c0.592-0.184,1.222,0.143,1.407,0.734l0.677,2.152
			C173.91,120.81,173.582,121.44,172.99,121.625z"/>
		<path fill="#90C9F9" d="M201.805,112.569l-0.851,0.265c-0.589,0.188-1.22-0.142-1.405-0.731l-0.673-2.151
			c-0.189-0.592,0.138-1.223,0.729-1.409l0.849-0.266c0.591-0.187,1.22,0.143,1.409,0.734l0.675,2.151
			C202.723,111.752,202.396,112.382,201.805,112.569z"/>
		<path fill="#90C9F9" d="M207.424,110.803l-0.848,0.267c-0.592,0.184-1.221-0.145-1.406-0.735l-0.678-2.153
			c-0.186-0.59,0.143-1.218,0.737-1.404l0.847-0.268c0.59-0.187,1.219,0.142,1.404,0.733l0.68,2.152
			C208.346,109.985,208.016,110.617,207.424,110.803z"/>
		<path fill="#90C9F9" d="M213.044,109.035l-0.848,0.268c-0.591,0.184-1.22-0.145-1.405-0.734l-0.68-2.153
			c-0.184-0.591,0.145-1.22,0.735-1.405l0.849-0.267c0.592-0.186,1.221,0.142,1.406,0.733l0.676,2.15
			C213.965,108.22,213.635,108.851,213.044,109.035z"/>
		<path fill="#90C9F9" d="M218.666,107.268l-0.849,0.266c-0.593,0.188-1.22-0.141-1.407-0.733l-0.678-2.152
			c-0.184-0.59,0.145-1.22,0.734-1.404l0.851-0.27c0.589-0.184,1.22,0.145,1.405,0.736l0.675,2.151
			C219.584,106.453,219.257,107.084,218.666,107.268z"/>
		<path fill="#90C9F9" d="M224.285,105.503l-0.847,0.266c-0.592,0.186-1.222-0.143-1.405-0.734l-0.678-2.153
			c-0.188-0.589,0.143-1.219,0.73-1.405l0.851-0.267c0.593-0.187,1.222,0.144,1.405,0.733l0.678,2.153
			C225.206,104.687,224.878,105.316,224.285,105.503z"/>
		<path fill="#90C9F9" d="M229.907,103.733l-0.849,0.269c-0.595,0.185-1.224-0.144-1.407-0.735l-0.677-2.15
			c-0.184-0.591,0.145-1.222,0.735-1.408l0.848-0.267c0.591-0.184,1.22,0.145,1.407,0.733l0.675,2.153
			C230.825,102.921,230.498,103.548,229.907,103.733z"/>
		<path fill="#90C9F9" d="M182.349,118.684l-0.849,0.267c-0.59,0.188-1.221-0.142-1.404-0.733l-0.677-2.153
			c-0.186-0.59,0.142-1.219,0.735-1.406l0.848-0.266c0.588-0.185,1.217,0.143,1.404,0.734l0.677,2.15
			C183.268,117.868,182.938,118.497,182.349,118.684z"/>
		<path fill="#90C9F9" d="M187.972,116.918l-0.851,0.267c-0.593,0.186-1.224-0.143-1.408-0.734l-0.676-2.153
			c-0.186-0.592,0.145-1.22,0.732-1.405l0.852-0.266c0.59-0.187,1.22,0.142,1.405,0.732l0.675,2.151
			C188.89,116.102,188.561,116.73,187.972,116.918z"/>
		<path fill="#90C9F9" d="M193.59,115.149l-0.848,0.268c-0.592,0.186-1.223-0.142-1.405-0.733l-0.679-2.153
			c-0.184-0.59,0.145-1.22,0.734-1.404l0.849-0.268c0.591-0.186,1.219,0.141,1.407,0.733l0.677,2.152
			C194.508,114.335,194.182,114.966,193.59,115.149z"/>
		<path fill="#90C9F9" d="M247.133,96.462l-4.005,2.226c-0.523,0.326-1.215,0.167-1.544-0.359l-1.908-1.69
			c-0.329-0.526-0.165-1.217,0.361-1.544l4.004-2.228c0.524-0.328,1.215-0.165,1.544,0.36l1.909,1.69
			C247.821,95.442,247.661,96.134,247.133,96.462z"/>
		<path fill="#90C9F9" d="M245.677,92.033c-0.04-0.007-0.083-0.011-0.125-0.019c0.038,0.338,0.222,0.654,0.532,0.842l1.934,1.164
			c0.531,0.32,1.219,0.148,1.54-0.382l0.458-0.761c0.031-0.046,0.047-0.097,0.068-0.146
			C248.574,92.477,247.086,92.243,245.677,92.033z"/>
		<polygon fill="#E3E3E3" points="135.497,81.361 131.418,81.854 130.938,80.33 134.793,79.117 		"/>
		<polygon fill="#E3E3E3" points="142.668,94.386 138.587,94.88 138.109,93.354 141.963,92.144 		"/>
		<polygon fill="#E3E3E3" points="148.601,105.273 144.525,105.767 144.041,104.241 147.898,103.03 		"/>
		<g>
			<polygon fill="#EB6678" points="107.911,144.683 107.421,143.105 261.764,95.187 264.503,96.068 			"/>
		</g>
		<g>
			
				<rect x="84.624" y="136.167" transform="matrix(0.2966 0.955 -0.955 0.2966 204.1136 24.4636)" fill="#EB6678" width="1.653" height="29.247"/>
		</g>
		<path fill="#ECECED" d="M71.113,151.122l-10.932,16.594c-0.271,0.409,0.125,0.93,0.589,0.782l3.229-1.014
			c1.798-0.564,3.477-1.452,4.962-2.613l24.481-19.187L71.113,151.122z"/>
	</g>
	<g>
		<g>
			<path fill="#222B54" d="M124.418,108.275c-3.868-3.04-10-2.735-14.338,2.358c-3.576,4.199-1.599,8.47-6.453,12.432
				c-2.328,1.9-10.74,2.248-14.039,9.38c-2.383,5.15,2.076,9.384-0.602,14.823c-3.226,6.554-7.598,5.551-9.197,12.854
				c-1.539,7.023,6.733,11.011,8.797,14.53c3.11,5.298-0.6,10.064,7.323,16.96c9.062,7.889,30.083-0.914,38.449-7.738
				c7.118-5.807,4.231-11.327,7.198-15.676c1.379-2.022,8.401-5.985,6.896-13.892c-1.048-5.516-4.963-9.829-6.297-13.771
				c-1.39-4.108,0.229-8.907-2.582-13.487c-3.195-5.207-8.814-4.356-10.615-7.954C126.892,114.958,129.077,111.933,124.418,108.275z
				"/>
			<g>
				<path fill="#222B54" d="M77.39,156.206c-0.011,0-0.022,0-0.034-0.003c-0.08-0.018-0.129-0.1-0.111-0.179
					c0.846-3.67,2.955-4.774,4.994-5.842c1.372-0.718,2.789-1.461,3.825-2.996c1.19-1.766,0.757-3.703,0.255-5.944
					c-0.57-2.552-1.219-5.443,0.332-8.857c2.473-5.442,6.549-6.932,10.492-8.373c2.217-0.811,4.311-1.576,6.139-2.998
					c1.574-1.226,2.43-3.298,3.337-5.492c1.653-4.013,3.532-8.561,10.454-8.987c0.081-0.006,0.152,0.058,0.157,0.141
					c0.006,0.083-0.057,0.154-0.14,0.159c-6.733,0.415-8.494,4.678-10.195,8.802c-0.922,2.231-1.793,4.338-3.43,5.612
					c-1.865,1.452-4.079,2.262-6.221,3.043c-3.883,1.42-7.899,2.888-10.319,8.215c-1.511,3.323-0.875,6.162-0.313,8.667
					c0.518,2.31,0.965,4.305-0.299,6.178c-1.076,1.598-2.53,2.358-3.935,3.094c-2.07,1.084-4.025,2.108-4.841,5.642
					C77.52,156.158,77.459,156.206,77.39,156.206z"/>
			</g>
		</g>
		<path fill="#FFD573" d="M140.826,177.611c1.596,6.471,4.094,11.954,3.296,19.125c-0.796,7.174-19.378,1.063-19.378,1.063
			l-4.086-16.602C120.658,181.198,140.186,175.019,140.826,177.611z"/>
		<path fill="#F7B690" d="M128.238,209.188c-0.334,2.476,0.313,13.334-0.39,18.021c-2.028,13.557-2.807,22.036-4.116,29.008
			c-0.143,0.75-2.955,0.944-3.012,0.183c-0.593-7.845-6.055-25.757-4.98-32.076c0.358-2.107,2.162-7.755,4.25-11.42
			C122.019,209.347,128.238,209.188,128.238,209.188z"/>
		<path fill="#F7B690" d="M113.498,209.864c-0.396,2.455,1.701,11.812,0.879,16.459c-2.385,13.439-6.023,23.867-7.029,30.307
			c-0.119,0.761-2.948,1.077-3.031,0.311c-0.676-6.193-3.318-29.054-2.262-33.433c0.499-2.067,1.864-6.714,4.05-10.277
			C108.225,209.775,113.498,209.864,113.498,209.864z"/>
		<g>
			<path fill="#222B54" d="M121.34,256.099c-1.021,0.47-2.212,1.373-2.36,2.856c-0.051,0.51,0.077,1.909,0.191,2.363
				c0.337,1.374,0.227,4.554,0.161,5.93c-0.02,0.357,0.28,0.654,0.653,0.654h6.411c0.328,0,0.806-1.437-0.258-2.113
				c-1.258-0.802-4.563-2.091-5.547-1.358c-0.386-3.42-0.239-1.969-0.311-3.327C120.208,259.745,121.34,256.099,121.34,256.099z"/>
			<path fill="#F7B690" d="M123.33,254.838c0.877,2.508,2.392,10.708,2.392,10.708s-4.724-2.085-5.694,0.156
				c-0.697-1.919,0.127-8.773,1.113-10.236C122.126,254.002,123.33,254.838,123.33,254.838z"/>
		</g>
		<g>
			<path fill="#222B54" d="M104.329,256.368c-1.026,0.458-1.966,1.225-2.138,2.706c-0.057,0.509-0.021,1.885,0.039,2.417
				c0.167,1.443,0.013,4.813-0.074,6.116c-0.018,0.292,0.223,0.54,0.528,0.544l6.534,0.093c0.328,0.003,0.564-2.463-0.491-3.154
				c-1.247-0.82-4.268-1.117-5.265-0.401c-0.335-3.423-0.209-1.97-0.261-3.33C103.148,260,104.329,256.368,104.329,256.368z"/>
			<path fill="#F7B690" d="M107.269,255.056c0.843,2.521,0.816,9.71,0.816,9.71s-2.849-0.703-5.169,1.563
				c-0.666-1.928,0.219-9.147,1.224-10.597C105.147,254.285,107.269,255.056,107.269,255.056z"/>
		</g>
		<path fill="#0D1748" d="M125.778,162.418c1.517,4.399,7.057,11.467,7.065,21.428c0.009,10.57-0.641,18.123-2.788,30.279
			c-0.177,1.005-0.163,3.488-0.776,4.266c-0.859,1.09-8.258,2.918-11.057,2.279c-3.07-0.7-4.524-4.672-8.984-7.294
			c-2.824-1.66-15.543,0.031-18.345-2.682c-2.029-1.965-3.799-9.964-5.833-11.925c-2.063-1.989-7.533-1.224-9.617-4.401
			c-1.171-1.78-2.577-7.725-1.944-10.038c0.06-0.212,9.938,0.707,16.465-3.508c9.81-6.337,14.32-16.637,21.381-18.23
			C114.739,161.825,125.778,162.418,125.778,162.418z"/>
		<path fill="#FFFFFF" d="M131.569,135.107c-0.705-1.412-23.199-2.407-24.361-1.438c-2.794,2.33,2.898,19.509,3.964,28.567
			c0.262,2.219,14.516,2.598,14.814,0.74C126.998,156.686,132.549,137.073,131.569,135.107z"/>
		<path fill="#FFBB8E" d="M122.641,121.453c-0.734,3.218-0.574,7.85,0.142,9.821c0.47,1.289,6.658,3.01,6.331,3.238
			c-0.786,0.549-4.577,1.808-8.869,1.604c-6.56-0.313-9.996-2.09-10.658-2.422c-0.417-0.209,4.215-1.327,5.521-3.045
			c1.476-1.94,1.533-9.032,1.288-12.347C117.405,118.028,122.641,121.453,122.641,121.453z"/>
		<path fill="#F2B892" d="M130.678,136.273c2.73,0.575,9.638,20.602,9.994,21.948c1.172,4.417-2.963,11.21-6.374,9.676
			c-1.474-0.661-1.349-3.125-0.896-5.73c0.238-1.398,0.76-2.349,0.76-4.183c0-2.904-2.442-6.079-4.243-9.455
			C128.969,146.749,128.467,135.808,130.678,136.273z"/>
		<g>
			<path fill="#F7B690" d="M124.881,111.209c2.527,1.88,3.714,12.851-0.181,15.157c-3.462,2.049-9.85-0.742-9.977-5.384
				c-0.358,0.853-1.122,0.067-1.795-1.25c-0.798-1.565-0.839-2.87-0.284-3.034c1.031-0.304,1.372,1.423,1.604,1.456
				C120.843,119.095,123.817,110.418,124.881,111.209z"/>
			<g>
				<path fill="#222B54" d="M116.678,118.867c-0.984,0-1.844-0.267-2.473-0.796c-0.064-0.052-0.073-0.148-0.019-0.211
					c0.053-0.063,0.148-0.071,0.212-0.019c1.063,0.893,2.856,0.969,4.801,0.202c1.851-0.729,2.764-2.615,3.568-4.279
					c0.637-1.308,1.183-2.438,2.07-2.699c0.079-0.023,0.164,0.022,0.187,0.101c0.023,0.079-0.022,0.163-0.102,0.186
					c-0.762,0.224-1.281,1.299-1.884,2.542c-0.789,1.628-1.771,3.656-3.729,4.427C118.385,118.687,117.488,118.867,116.678,118.867z
					"/>
			</g>
		</g>
		<path fill="#FFBB8E" d="M106.439,163.648c0.798,3.219,0.654,6.575,0.524,9.86c-0.08,1.99-0.169,3.982-0.19,5.975
			c-0.01,1.277,0.63,4.777-1.846,4.014c-1.132-0.351-1.491-2.553-1.97-3.55c-0.72-1.492-1.422-2.995-2.088-4.511
			c-1.176-2.682-2.381-5.473-2.917-8.366c-0.443-2.385,0.302-9.249,4.874-9.423C104.109,157.598,105.856,161.304,106.439,163.648z"
			/>
		<g>
			<g>
				<g>
					<path fill="#1D1D1D" d="M139.229,268.78h-1.613c-1.128,0-2.04-0.914-2.04-2.04l0,0c0-1.127,0.912-2.041,2.04-2.041h1.613
						c1.126,0,2.042,0.914,2.042,2.041l0,0C141.271,267.867,140.355,268.78,139.229,268.78z"/>
					<path fill="#1D1D1D" d="M163.718,268.78h-1.614c-1.126,0-2.04-0.914-2.04-2.04l0,0c0-1.127,0.914-2.041,2.04-2.041h1.614
						c1.127,0,2.04,0.914,2.04,2.041l0,0C165.758,267.867,164.845,268.78,163.718,268.78z"/>
					<path fill="#7D7D7D" d="M144.055,186.915v27.787h13.953v-27.787H144.055z M155.625,212.917h-9.188v-24.219h9.188V212.917z"/>
					<polygon fill="#FFADAD" points="147.004,192.294 147.004,189.272 155.057,189.272 155.057,192.294 158.576,192.294 
						158.576,186.343 143.485,186.343 143.485,192.294 					"/>
					<g>
						<defs>
							<path id="SVGID_1_" d="M152.693,266.776h-2.914c-9.732,0-17.621,1.643-17.621-8.089V219.29c0-9.732,7.889-8.088,17.621-8.088
								h2.914c9.731,0,17.62-1.644,17.62,8.088v39.397C170.313,268.418,162.425,266.776,152.693,266.776z"/>
						</defs>
						<clipPath id="SVGID_2_">
							<use xlink:href="#SVGID_1_"  overflow="visible"/>
						</clipPath>
						<path clip-path="url(#SVGID_2_)" fill="#FFADAD" d="M152.693,266.776h-2.914c-9.732,0-17.621,1.643-17.621-8.089V219.29
							c0-9.732,7.889-8.088,17.621-8.088h2.914c9.731,0,17.62-1.644,17.62,8.088v39.397
							C170.313,268.418,162.425,266.776,152.693,266.776z"/>
						<path clip-path="url(#SVGID_2_)" fill="#1D1D1D" d="M136.574,262.773V236.1c0-1.577,1.272-2.855,2.84-2.855h3.078v-17.822
							c0-1.229-0.992-2.227-2.212-2.227h-2.415c-1.225,0-2.215,0.997-2.215,2.227v47.132c0,1.046,0.719,1.92,1.686,2.16
							C136.866,264.205,136.574,263.523,136.574,262.773z"/>
						<path clip-path="url(#SVGID_2_)" fill="#FFADAD" d="M162.92,265.629h-23.506c-1.567,0-2.84-1.278-2.84-2.855V236.1
							c0-1.577,1.272-2.855,2.84-2.855h23.506c1.568,0,2.838,1.278,2.838,2.855v26.674
							C165.758,264.351,164.488,265.629,162.92,265.629z"/>
						<path opacity="0.63" clip-path="url(#SVGID_2_)" fill="#FFADAD" d="M162.507,264.771H139.68c-1.323,0-2.397-1.074-2.397-2.397
							v-25.859c0-1.323,1.074-2.397,2.397-2.397h22.827c1.323,0,2.396,1.074,2.396,2.397v25.859
							C164.903,263.697,163.83,264.771,162.507,264.771z"/>
						<path clip-path="url(#SVGID_2_)" fill="#1D1D1D" d="M142.695,263.406h-2.559c-0.583,0-1.055-0.475-1.055-1.06v-25.803
							c0-0.587,0.472-1.061,1.055-1.061h2.559c0.584,0,1.054,0.474,1.054,1.061v25.803
							C143.749,262.931,143.279,263.406,142.695,263.406z"/>
						<g clip-path="url(#SVGID_2_)">
							<path opacity="0.73" fill="#FFADAD" d="M157.207,221.514h-12.512c-3.929,0-7.127-3.217-7.127-7.17v-11.155
								c0-3.954,3.198-7.17,7.127-7.17h12.512c3.932,0,7.127,3.216,7.127,7.17v11.155
								C164.334,218.297,161.139,221.514,157.207,221.514z M144.695,196.591c-3.616,0-6.556,2.959-6.556,6.597v11.155
								c0,3.638,2.939,6.598,6.556,6.598h12.512c3.617,0,6.559-2.96,6.559-6.598v-11.155c0-3.638-2.941-6.597-6.559-6.597H144.695z"
								/>
						</g>
					</g>
					<ellipse fill="#FFADAD" cx="151.378" cy="215.069" rx="3.274" ry="1.003"/>
					<ellipse fill="#9B897B" cx="151.094" cy="214.782" rx="3.274" ry="1.002"/>
					<ellipse fill="#9B897B" cx="150.524" cy="214.495" rx="1.44" ry="0.442"/>
				</g>
			</g>
		</g>
		<path fill="#FFFFFF" d="M109.049,136.349c-0.244-1.512-0.154-3.904-1.841-2.68c-3.825,2.779-12.338,26.909-9.294,28.531
			c1.159,0.616,4.223,1.048,6.493-1.299c1.398-1.443,2.358-5.192,2.801-6.878C108.738,148.214,110.491,145.226,109.049,136.349z"/>
		<path fill="#FFBB8E" d="M108.111,186.412c0.224-1.601-1.089-3.142-1.33-4.685c-0.118-0.75-3.24-0.612-3.127,0.361
			c0.167,1.44-0.989,1.755-1.135,3.15c-0.147,1.411-0.186,5.087,2.783,5.087C108.912,190.325,108.121,186.319,108.111,186.412z"/>
		<path fill="#FFFFFF" d="M129.247,136.26c0.286-1.368,0.885-2.446,2.522-1.25c2.571,1.879,12.226,21.695,7.745,24.077
			c-0.957,0.509-4.26,1.425-5.758-0.576c-1.511-2.021-2.528-3.832-3.103-5.826C129.149,147.475,127.577,144.288,129.247,136.26z"/>
		<g>
			<g>
				<path fill="#FFD573" d="M139.135,180.108c0.041,0,0.081-0.003,0.123-0.013c0.322-0.068,0.53-0.384,0.461-0.708
					c-0.023-0.12-2.514-12.027-3.106-16.889c-0.716-5.865-4.142-22.002-6.759-27.801c-0.137-0.302-0.49-0.434-0.791-0.3
					c-0.301,0.136-0.435,0.49-0.298,0.791c2.574,5.706,5.951,21.65,6.66,27.455c0.6,4.912,3.101,16.869,3.126,16.99
					C138.609,179.914,138.859,180.108,139.135,180.108z"/>
			</g>
			<path fill="#F2B892" d="M133.494,160.05c-0.277,0.972,1.622,0.882,1.6,1.163c-0.02,0.235-1.314-0.283-1.593,0.152
				c-0.144,0.225-0.235,3.806,0.46,4.456c0.478,0.448,2.711,1.899,3.357,1.339c0.646-0.559,1.643-4.902,1.218-6.185
				c-0.167-0.501-1.538-0.893-2.896-1.113C134.545,159.684,133.688,159.359,133.494,160.05z"/>
			<g>
				<path fill="#EB8E75" d="M133.757,166.04c-0.788-0.738-0.741-4.473-0.508-4.835c0.083-0.129,0.201-0.21,0.338-0.258
					c-0.128-0.083-0.238-0.186-0.314-0.316c-0.077-0.133-0.153-0.357-0.067-0.66l0,0c0.236-0.833,1.098-0.666,1.928-0.504
					c0.176,0.035,0.361,0.071,0.557,0.102c1.891,0.308,2.942,0.75,3.131,1.313c0.46,1.394-0.547,5.849-1.307,6.505
					c-0.158,0.137-0.363,0.195-0.6,0.195C135.773,167.581,133.963,166.232,133.757,166.04z M133.781,160.132L133.781,160.132
					c-0.033,0.109-0.01,0.165,0.007,0.196c0.114,0.193,0.577,0.305,0.882,0.377c0.386,0.093,0.75,0.179,0.722,0.531
					c-0.009,0.098-0.055,0.185-0.132,0.247c-0.162,0.131-0.387,0.101-0.727,0.052c-0.165-0.022-0.658-0.09-0.771-0.017
					c-0.128,0.524-0.12,3.596,0.404,4.085c0.645,0.602,2.578,1.659,2.958,1.332c0.516-0.447,1.531-4.647,1.128-5.865
					c-0.067-0.205-0.83-0.615-2.66-0.912c-0.199-0.033-0.392-0.068-0.571-0.104c-0.413-0.081-0.691-0.126-0.88-0.126
					C133.92,159.927,133.819,159.989,133.781,160.132z M133.771,161.489L133.771,161.489L133.771,161.489z"/>
			</g>
		</g>
	</g>
	<path fill="#EDE8E6" d="M64.17,96.873c6.859-5.398,20.12-9.646,23.144-8.042c3.021,1.605,2.075,3.551,3.629,3.785
		c1.554,0.233,9.382-3.439,11.968-1.957c2.382,1.365,0.836,5.493-0.634,6.214H64.17z"/>
</g>
</svg>
