<?xml version="1.0" encoding="utf-8"?>
<!-- Generator: Adobe Illustrator 16.0.0, SVG Export Plug-In . SVG Version: 6.00 Build 0)  -->
<!DOCTYPE svg PUBLIC "-//W3C//DTD SVG 1.1//EN" "http://www.w3.org/Graphics/SVG/1.1/DTD/svg11.dtd">
<svg version="1.1" id="Isolation_Mode" xmlns="http://www.w3.org/2000/svg" xmlns:xlink="http://www.w3.org/1999/xlink" x="0px"
	 y="0px" width="320px" height="320px" viewBox="0 0 320 320" enable-background="new 0 0 320 320" xml:space="preserve">
<g>
	<g>
		<g>
			<g>
				<polygon fill="#4A5DA0" points="237.402,171.965 237.402,150.464 120.781,150.464 120.781,171.965 114.957,171.965 
					114.957,254.533 258.012,254.533 258.012,171.965 				"/>
				<g>
					<rect x="111.023" y="247.654" fill="#6883DE" width="132.947" height="13.76"/>
					<path fill="#6883DE" d="M207.877,204.122h-58.652c-16.297,0-29.506-13.209-29.506-29.503v-0.433
						c0-16.295,13.209-29.504,29.502-29.504h58.656c16.291,0,29.502,13.209,29.502,29.504v0.433
						C237.379,190.913,224.168,204.122,207.877,204.122z"/>
					<path fill="#6883DE" d="M217.301,245.812h-77.506c-11.088,0-20.076-8.988-20.076-20.076v-0.002
						c0-11.089,8.988-20.077,20.076-20.077h77.506c11.088,0,20.078,8.988,20.078,20.079l0,0
						C237.379,236.823,228.389,245.812,217.301,245.812z"/>
					<g>
						<path fill="#6883DE" d="M114.082,165.758H89.037c-2.266,0-4.104,1.837-4.104,4.102v87.452c0,2.265,1.838,4.103,4.104,4.103
							h25.045c2.266,0,4.102-1.838,4.102-4.103v-87.452C118.184,167.595,116.348,165.758,114.082,165.758z"/>
						<path fill="#6883DE" d="M267.707,165.758h-25.043c-2.268,0-4.104,1.837-4.104,4.102v87.452c0,2.265,1.836,4.103,4.104,4.103
							h25.043c2.268,0,4.104-1.838,4.104-4.103v-87.452C271.811,167.595,269.975,165.758,267.707,165.758z"/>
					</g>
				</g>
			</g>
			<g>
				<path fill="#859CE8" d="M230.83,218.752H126.268c-3.617,0-6.549-2.932-6.549-6.548l0,0c0-3.616,2.932-6.548,6.549-6.548H230.83
					c3.615,0,6.549,2.932,6.549,6.548l0,0C237.379,215.82,234.445,218.752,230.83,218.752z"/>
			</g>
			<g>
				<path fill="#859CE8" d="M231.021,157.396H126.078c-3.514,0-6.359-2.847-6.359-6.358l0,0c0-3.51,2.846-6.355,6.359-6.355h104.943
					c3.512,0,6.357,2.846,6.357,6.355l0,0C237.379,154.55,234.533,157.396,231.021,157.396z"/>
			</g>
		</g>
		<g>
			<g>
				<g>
					<g>
						<defs>
							<path id="SVGID_3_" d="M197.846,139.743c-0.275,0.016-0.544,0.045-0.81,0.083c-0.077,0.01-0.156,0.024-0.231,0.038
								c-0.197,0.032-0.392,0.071-0.584,0.115c-0.071,0.017-0.146,0.033-0.218,0.051c-0.252,0.066-0.501,0.139-0.743,0.223
								c-0.023,0.007-0.04,0.015-0.059,0.023c-0.225,0.081-0.446,0.171-0.664,0.267c-0.072,0.031-0.14,0.064-0.211,0.098
								c-0.174,0.083-0.345,0.171-0.516,0.264c-0.063,0.035-0.127,0.067-0.188,0.103c-0.224,0.13-0.444,0.265-0.659,0.412
								c-0.028,0.02-0.057,0.042-0.088,0.062c-0.185,0.129-0.369,0.266-0.55,0.409c-0.063,0.049-0.124,0.101-0.19,0.152
								c-0.154,0.129-0.307,0.26-0.457,0.396c-0.053,0.049-0.105,0.095-0.158,0.145c-0.195,0.183-0.394,0.372-0.58,0.571
								c-0.033,0.036-0.067,0.072-0.102,0.11c-0.156,0.167-0.309,0.34-0.461,0.517c-0.057,0.067-0.111,0.134-0.168,0.203
								c-0.137,0.167-0.272,0.336-0.408,0.51c-0.043,0.058-0.088,0.114-0.134,0.173c-0.171,0.229-0.339,0.465-0.506,0.706
								c-0.034,0.052-0.065,0.104-0.1,0.155c-0.136,0.198-0.266,0.399-0.394,0.602c-0.049,0.081-0.098,0.161-0.148,0.241
								c-0.121,0.202-0.243,0.407-0.361,0.614c-0.036,0.062-0.076,0.124-0.109,0.187c-0.148,0.268-0.298,0.54-0.44,0.818
								c-0.036,0.065-0.066,0.13-0.102,0.195c-0.109,0.221-0.225,0.444-0.331,0.668c-0.044,0.09-0.087,0.18-0.131,0.27
								c-0.108,0.232-0.214,0.464-0.321,0.7c-0.028,0.064-0.061,0.126-0.087,0.19c-0.132,0.297-0.258,0.596-0.382,0.898
								c-0.034,0.078-0.065,0.158-0.096,0.237c-0.097,0.233-0.19,0.47-0.284,0.709c-0.038,0.096-0.076,0.193-0.111,0.289
								c-0.096,0.258-0.193,0.52-0.29,0.781c-0.022,0.057-0.041,0.116-0.062,0.172c-0.117,0.318-0.229,0.639-0.338,0.959
								c-0.027,0.086-0.056,0.171-0.088,0.257c-0.079,0.247-0.16,0.493-0.241,0.742c-0.032,0.1-0.065,0.201-0.098,0.3
								c-0.089,0.283-0.175,0.567-0.264,0.854c-0.013,0.046-0.028,0.089-0.039,0.135c-0.101,0.331-0.202,0.664-0.296,0.999
								c-0.024,0.088-0.051,0.177-0.075,0.266c-0.071,0.255-0.144,0.51-0.215,0.765c-0.024,0.096-0.053,0.193-0.081,0.291
								c-0.084,0.31-0.165,0.619-0.246,0.929c-0.006,0.023-0.014,0.048-0.018,0.072c-0.092,0.338-0.175,0.674-0.263,1.012
								c-0.021,0.088-0.044,0.179-0.064,0.267c-0.065,0.257-0.128,0.514-0.19,0.77c-0.022,0.092-0.047,0.184-0.067,0.275
								c-0.162,0.673-0.318,1.338-0.471,1.998c-0.017,0.076-0.034,0.151-0.051,0.227c-0.062,0.264-0.12,0.528-0.181,0.791
								c-0.017,0.077-0.033,0.155-0.053,0.233c-1.308,5.86-2.249,10.907-3.473,12.696c-3.525,5.164-24.454,3.617-24.454,3.617
								l2.963,8.145c0,0,25.376,0.719,29.536-1.87c4.039-2.512,5.106-5.693,8.009-23.197c0.089-0.534,0.177-1.082,0.271-1.643
								c2.09-12.736,9.261-19.218,9.327-21.853C204.283,139.85,202.621,139.479,197.846,139.743z"/>
						</defs>
						<clipPath id="SVGID_2_">
							<use xlink:href="#SVGID_3_"  overflow="visible"/>
						</clipPath>
					</g>
				</g>
				<g>
					<defs>
						<path id="SVGID_5_" d="M218.623,204.267c0,0-11.066,2.773-16.904,2.773c-5.84,0-14.015-2.335-14.015-2.335
							s0.899-53.67,1.167-55.723c0.271-2.053,2.838-9.676,12.848-9.676s16.18,0,16.18,0L218.623,204.267z"/>
					</defs>
					<clipPath id="SVGID_4_">
						<use xlink:href="#SVGID_5_"  overflow="visible"/>
					</clipPath>
				</g>
			</g>
			<g>
				<g>
					<path fill="#F2B897" d="M197.846,139.743c14.555-0.808,0.188,4.292-2.92,23.248c-3.111,18.956-4.116,22.252-8.279,24.84
						c-4.16,2.587-29.536,1.87-29.536,1.87l-2.963-8.145c0,0,20.929,1.547,24.454-3.617
						C182.131,172.777,183.289,140.551,197.846,139.743z"/>
					<linearGradient id="SVGID_6_" gradientUnits="userSpaceOnUse" x1="193.1699" y1="140.0859" x2="192.6769" y2="199.9801">
						<stop  offset="0" style="stop-color:#F8856E"/>
						<stop  offset="1" style="stop-color:#FF5C68"/>
					</linearGradient>
					<path fill="url(#SVGID_6_)" d="M197.846,139.743c-9.787,0.541-13.519,15.287-15.982,26.459c0,0,3.057,6.993,11.928,2.926
						c0.036-0.016,0.076-0.041,0.111-0.057c0.318-1.827,0.657-3.842,1.023-6.081C198.034,144.035,212.4,138.936,197.846,139.743z"/>
					<path fill="#FFFFFF" d="M193.616,168.479c-0.013,0.007-0.089,0.047-0.1,0.054c-2.821,1.294-5.302,1.553-7.369,0.77
						c-2.606-0.986-3.674-3.342-3.684-3.366c-0.087-0.198-0.265-0.321-0.459-0.363c-0.049,0.209-0.098,0.421-0.142,0.629
						c0,0,3.057,6.993,11.928,2.926c0.036-0.016,0.076-0.041,0.111-0.057c0.037-0.207,0.073-0.426,0.109-0.637
						C193.88,168.411,193.744,168.418,193.616,168.479z"/>
					<circle fill="#F2B897" cx="152.074" cy="185.662" r="6.368"/>
				</g>
				<linearGradient id="SVGID_7_" gradientUnits="userSpaceOnUse" x1="203.6934" y1="140.1733" x2="203.2004" y2="200.0669">
					<stop  offset="0" style="stop-color:#F8856E"/>
					<stop  offset="1" style="stop-color:#FF5C68"/>
				</linearGradient>
				<path fill="url(#SVGID_7_)" d="M218.623,204.267c0,0-11.066,2.773-16.904,2.773c-5.84,0-14.015-2.335-14.015-2.335
					s0.899-53.67,1.167-55.723c0.271-2.053,2.838-9.676,12.848-9.676s16.18,0,16.18,0L218.623,204.267z"/>
				<g>
					<g>
						<ellipse fill="#1A2541" cx="196.89" cy="112.608" rx="6.136" ry="6.647"/>
						
							<ellipse transform="matrix(0.1575 0.9875 -0.9875 0.1575 288.511 -108.8462)" fill="#1A2541" cx="208.048" cy="114.667" rx="12.021" ry="7.632"/>
						<path fill="#1A2541" d="M212.256,106.385c-0.497-3.091-5.738-4.825-11.709-3.873c-5.973,0.953-10.416,4.231-9.926,7.323
							c0.496,3.091,5.739,4.825,11.712,3.872C208.303,112.755,212.747,109.477,212.256,106.385z"/>
					</g>
					<path fill="#F2B897" d="M211.708,121.914c0.177,1.718,1.717,2.964,3.434,2.785c1.718-0.181,2.966-1.719,2.787-3.437
						c-0.179-1.718-1.718-2.966-3.437-2.785C212.773,118.655,211.525,120.195,211.708,121.914z"/>
					<path fill="#F2B897" d="M215.815,139.307c0,0-2.476,6.117-8.146,6.117c-5.673,0-6.23-6.113-6.23-6.113v-3.841l11.392-8.467
						L215.815,139.307z"/>
					<path fill="#FFFFFF" d="M200.23,139.378c0.392-0.033,0.794-0.053,1.208-0.058c0.01,0.101,0.604,6.104,6.23,6.104
						c5.671,0,8.146-6.117,8.146-6.117c0.503,0,0.92,0,1.244,0l0.022,0.093l-0.146,0.36c-0.113,0.281-2.854,6.874-9.267,6.874
						c-5.358,0-7.207-4.719-7.435-7.213L200.23,139.378z"/>
					<path opacity="0.5" d="M210.508,128.729l2.539-0.837l1.539,6.348c-2.523,4.585-11.256,4.719-13.147,4.692v-1.829l0.39-1.922
						L210.508,128.729z"/>
					<g>
						<path fill="#F2B897" d="M203.797,137.453l2.103-0.219c5.4-0.565,9.317-5.399,8.755-10.797l-1.572-15.022l-18.861,1.972
							l1.863,17.813C196.488,135.057,199.942,137.856,203.797,137.453z"/>
					</g>
					<path fill="#1A2541" d="M209.604,110.542c-0.494-3.089-4.91-4.956-9.864-4.164c-4.952,0.79-8.569,3.936-8.073,7.027
						c0.491,3.091,4.905,4.957,9.859,4.166S210.096,113.634,209.604,110.542z"/>
					<path fill="#1A2541" d="M207.543,114.93c0,0,3.975-1.184,5.147,2.837c1.173,4.022,2.129-4.198,2.129-4.198l-0.816-3.377
						l-7.625-2.081l-1.203,5.915L207.543,114.93z"/>
				</g>
				<path fill="#E1E3FA" d="M140.326,170.72l5.899,20.635c0.032,0.105,0.109,0.191,0.213,0.229l16.603,6.052
					c0.074,0.026,0.156,0.028,0.23,0.001l17.634-6.005c0.177-0.06,0.273-0.25,0.217-0.429l-6.488-20.68
					c-0.045-0.145-0.175-0.241-0.329-0.241H140.66C140.428,170.281,140.265,170.499,140.326,170.72z"/>
				<g>
					<polygon fill="#F2B897" points="134.539,257.413 132.867,265.722 139.683,266.932 141.391,260.051 					"/>
					<path fill="#071023" d="M127.693,268.625h13.363c0.635,0,1.148-0.513,1.148-1.148v-1.083c0-0.564-0.457-1.022-1.023-1.022
						h-10.234c-1.799,0-5.801,1.458-5.801,3.253H127.693z"/>
					<path fill="#1D2848" d="M190.172,200.808c0,0,20.104,11.176,14.081,12.682c-6.025,1.506-32.56,7.471-50.105-4.857
						c5.802,8.169-4.145,28.113-12.425,52.723l-8.249-1.111c0,0,3.114-59.982,9.785-66.437
						C149.932,187.353,190.172,200.808,190.172,200.808z"/>
				</g>
				<g>
					<path fill="#F2B897" d="M217.898,139.307c0,0,16.157,4.728,13.048,23.684c-3.111,18.956-3.7,23.998-9.628,26.637
						c-5.931,2.641-31.994,3.471-31.994,3.471l-1.62-8.266c0,0,23.419-1.022,26.946-6.184
						C218.176,173.485,217.898,139.307,217.898,139.307z"/>
					<linearGradient id="SVGID_8_" gradientUnits="userSpaceOnUse" x1="224.1953" y1="140.3418" x2="223.7023" y2="200.2354">
						<stop  offset="0" style="stop-color:#F8856E"/>
						<stop  offset="1" style="stop-color:#FF5C68"/>
					</linearGradient>
					<path fill="url(#SVGID_8_)" d="M217.898,139.307c0,0,0.156,19.18-1.248,30.975c0,0,6.197,6.659,12.743,2.077
						c0.461-2.675,0.962-5.769,1.553-9.368C234.056,144.035,217.898,139.307,217.898,139.307z"/>
					<path fill="#FFFFFF" d="M217.131,169.833c-0.109-0.12-0.256-0.184-0.408-0.2c-0.022,0.215-0.045,0.434-0.072,0.646
						c0,0,6.197,6.661,12.743,2.079c0.038-0.212,0.075-0.431,0.109-0.647c-0.164-0.027-0.339,0.005-0.485,0.109
						C223.024,176.015,217.37,170.086,217.131,169.833z"/>
					<path fill="#F2B897" d="M191.998,188.94c0,3.517-2.85,6.369-6.37,6.369c-3.514,0-6.365-2.852-6.365-6.369
						c0-3.518,2.852-6.368,6.365-6.368C189.148,182.572,191.998,185.422,191.998,188.94z"/>
				</g>
				<g>
					<polygon fill="#F2B897" points="153.721,257.447 151.432,265.782 157.725,266.9 160.031,259.988 					"/>
					<path fill="#071023" d="M145.437,268.625h13.364c0.635,0,1.148-0.513,1.148-1.148v-1.083c0-0.564-0.458-1.022-1.021-1.022
						h-10.237c-1.8,0-5.801,1.458-5.801,3.253H145.437z"/>
					<path fill="#263762" d="M218.936,200.808c0,0,2.987,9.281-3.011,13.34c-10.204,6.91-34.795-1.747-38.945-5.313
						c4.946,13.01-9.778,35.353-17.44,53.654c-4.906-0.682-7.612-1.285-7.612-1.285s6.976-62.118,13.645-68.574
						C172.242,186.176,218.936,200.808,218.936,200.808z"/>
				</g>
				<path fill="#6784DD" d="M161.791,181.894c0.358,1.334-0.431,2.413-1.762,2.413c-1.332,0-2.708-1.079-3.063-2.413
					c-0.363-1.332,0.425-2.413,1.756-2.413C160.058,179.481,161.428,180.562,161.791,181.894z"/>
			</g>
			<g>
				<g>
					<g>
						<defs>
							<path id="SVGID_10_" d="M197.846,139.743c-0.275,0.016-0.544,0.045-0.81,0.083c-0.077,0.01-0.156,0.024-0.231,0.038
								c-0.197,0.032-0.392,0.071-0.584,0.115c-0.071,0.017-0.146,0.033-0.218,0.051c-0.252,0.066-0.501,0.139-0.743,0.223
								c-0.023,0.007-0.04,0.015-0.059,0.023c-0.225,0.081-0.446,0.171-0.664,0.267c-0.072,0.031-0.14,0.064-0.211,0.098
								c-0.174,0.083-0.345,0.171-0.516,0.264c-0.063,0.035-0.127,0.067-0.188,0.103c-0.224,0.13-0.444,0.265-0.659,0.412
								c-0.028,0.02-0.057,0.042-0.088,0.062c-0.185,0.129-0.369,0.266-0.55,0.409c-0.063,0.049-0.124,0.101-0.19,0.152
								c-0.154,0.129-0.307,0.26-0.457,0.396c-0.053,0.049-0.105,0.095-0.158,0.145c-0.195,0.183-0.394,0.372-0.58,0.571
								c-0.033,0.036-0.067,0.072-0.102,0.11c-0.156,0.167-0.309,0.34-0.461,0.517c-0.057,0.067-0.111,0.134-0.168,0.203
								c-0.137,0.167-0.272,0.336-0.408,0.51c-0.043,0.058-0.088,0.114-0.134,0.173c-0.171,0.229-0.339,0.465-0.506,0.706
								c-0.034,0.052-0.065,0.104-0.1,0.155c-0.136,0.198-0.266,0.399-0.394,0.602c-0.049,0.081-0.098,0.161-0.148,0.241
								c-0.121,0.202-0.243,0.407-0.361,0.614c-0.036,0.062-0.076,0.124-0.109,0.187c-0.148,0.268-0.298,0.54-0.44,0.818
								c-0.036,0.065-0.066,0.13-0.102,0.195c-0.109,0.221-0.225,0.444-0.331,0.668c-0.044,0.09-0.087,0.18-0.131,0.27
								c-0.108,0.232-0.214,0.464-0.321,0.7c-0.028,0.064-0.061,0.126-0.087,0.19c-0.132,0.297-0.258,0.596-0.382,0.898
								c-0.034,0.078-0.065,0.158-0.096,0.237c-0.097,0.233-0.19,0.47-0.284,0.709c-0.038,0.096-0.076,0.193-0.111,0.289
								c-0.096,0.258-0.193,0.52-0.29,0.781c-0.022,0.057-0.041,0.116-0.062,0.172c-0.117,0.318-0.229,0.639-0.338,0.959
								c-0.027,0.086-0.056,0.171-0.088,0.257c-0.079,0.247-0.16,0.493-0.241,0.742c-0.032,0.1-0.065,0.201-0.098,0.3
								c-0.089,0.283-0.175,0.567-0.264,0.854c-0.013,0.046-0.028,0.089-0.039,0.135c-0.101,0.331-0.202,0.664-0.296,0.999
								c-0.024,0.088-0.051,0.177-0.075,0.266c-0.071,0.255-0.144,0.51-0.215,0.765c-0.024,0.096-0.053,0.193-0.081,0.291
								c-0.084,0.31-0.165,0.619-0.246,0.929c-0.006,0.023-0.014,0.048-0.018,0.072c-0.092,0.338-0.175,0.674-0.263,1.012
								c-0.021,0.088-0.044,0.179-0.064,0.267c-0.065,0.257-0.128,0.514-0.19,0.77c-0.022,0.092-0.047,0.184-0.067,0.275
								c-0.162,0.673-0.318,1.338-0.471,1.998c-0.017,0.076-0.034,0.151-0.051,0.227c-0.062,0.264-0.12,0.528-0.181,0.791
								c-0.017,0.077-0.033,0.155-0.053,0.233c-1.308,5.86-2.249,10.907-3.473,12.696c-3.525,5.164-24.454,3.617-24.454,3.617
								l2.963,8.145c0,0,25.376,0.719,29.536-1.87c4.039-2.512,5.106-5.693,8.009-23.197c0.089-0.534,0.177-1.082,0.271-1.643
								c2.09-12.736,9.261-19.218,9.327-21.853C204.283,139.85,202.621,139.479,197.846,139.743z"/>
						</defs>
						<clipPath id="SVGID_9_">
							<use xlink:href="#SVGID_10_"  overflow="visible"/>
						</clipPath>
					</g>
				</g>
				<g>
					<defs>
						<path id="SVGID_12_" d="M218.623,204.267c0,0-11.066,2.773-16.904,2.773c-5.84,0-14.015-2.335-14.015-2.335
							s0.899-53.67,1.167-55.723c0.271-2.053,2.838-9.676,12.848-9.676s16.18,0,16.18,0L218.623,204.267z"/>
					</defs>
					<clipPath id="SVGID_11_">
						<use xlink:href="#SVGID_12_"  overflow="visible"/>
					</clipPath>
				</g>
			</g>
		</g>
	</g>
	<g>
		<g>
			<linearGradient id="SVGID_13_" gradientUnits="userSpaceOnUse" x1="73.7031" y1="206.4834" x2="92.8955" y2="206.4834">
				<stop  offset="0" style="stop-color:#FFAFAF"/>
				<stop  offset="1" style="stop-color:#FF7E7E"/>
			</linearGradient>
			<path fill="url(#SVGID_13_)" d="M74.344,231.552c-0.064,0-0.129-0.011-0.191-0.036c-0.338-0.125-0.525-0.553-0.42-0.952
				c0.422-1.574,10.354-38.643,18.043-48.893c0.232-0.313,0.639-0.343,0.902-0.063c0.268,0.278,0.291,0.76,0.055,1.072
				c-7.508,10.013-17.674,47.959-17.777,48.342C74.867,231.346,74.617,231.552,74.344,231.552z"/>
			<linearGradient id="SVGID_14_" gradientUnits="userSpaceOnUse" x1="91.5381" y1="176.9932" x2="100.3398" y2="176.9932">
				<stop  offset="0" style="stop-color:#FFAFAF"/>
				<stop  offset="1" style="stop-color:#FF7E7E"/>
			</linearGradient>
			<path fill="url(#SVGID_14_)" d="M93.578,174.736c-2.051,3.021-2.656,6.479-1.352,7.726c1.303,1.248,4.023-0.191,6.074-3.211
				c2.051-3.021,2.654-6.479,1.352-7.727C98.346,170.277,95.629,171.716,93.578,174.736z"/>
			<linearGradient id="SVGID_15_" gradientUnits="userSpaceOnUse" x1="86.96" y1="189.4502" x2="98.3193" y2="189.4502">
				<stop  offset="0" style="stop-color:#FFAFAF"/>
				<stop  offset="1" style="stop-color:#FF7E7E"/>
			</linearGradient>
			<path fill="url(#SVGID_15_)" d="M91.646,186.05c-3.09,1.272-5.146,3.825-4.598,5.703c0.551,1.877,3.498,2.368,6.586,1.096
				c3.086-1.271,5.145-3.825,4.596-5.702C97.68,185.27,94.732,184.779,91.646,186.05z"/>
			<linearGradient id="SVGID_16_" gradientUnits="userSpaceOnUse" x1="74.9697" y1="198.7148" x2="82.6113" y2="198.7148">
				<stop  offset="0" style="stop-color:#FFAFAF"/>
				<stop  offset="1" style="stop-color:#FF7E7E"/>
			</linearGradient>
			<path fill="url(#SVGID_16_)" d="M76.092,200.36c1.496,3.449,3.916,5.51,5.404,4.601c1.49-0.908,1.486-4.44-0.008-7.891
				c-1.496-3.449-3.914-5.51-5.402-4.602C74.594,193.378,74.6,196.91,76.092,200.36z"/>
			<linearGradient id="SVGID_17_" gradientUnits="userSpaceOnUse" x1="69.7764" y1="211.7607" x2="78.9121" y2="211.7607">
				<stop  offset="0" style="stop-color:#FFAFAF"/>
				<stop  offset="1" style="stop-color:#FF7E7E"/>
			</linearGradient>
			<path fill="url(#SVGID_17_)" d="M72.098,214.178c2.195,2.873,4.98,4.12,6.223,2.786c1.24-1.336,0.467-4.746-1.729-7.62
				c-2.195-2.873-4.982-4.121-6.223-2.786C69.127,207.894,69.902,211.305,72.098,214.178z"/>
			<linearGradient id="SVGID_18_" gradientUnits="userSpaceOnUse" x1="81.4785" y1="184.4385" x2="88.4004" y2="184.4385">
				<stop  offset="0" style="stop-color:#FFAFAF"/>
				<stop  offset="1" style="stop-color:#FF7E7E"/>
			</linearGradient>
			<path fill="url(#SVGID_18_)" d="M87.805,183.259c1.072,3.663,0.658,7.162-0.922,7.814c-1.584,0.651-3.734-1.791-4.809-5.454
				c-1.072-3.664-0.658-7.163,0.924-7.814C84.582,177.151,86.732,179.595,87.805,183.259z"/>
			<linearGradient id="SVGID_19_" gradientUnits="userSpaceOnUse" x1="81.9902" y1="201.6465" x2="93.125" y2="201.6465">
				<stop  offset="0" style="stop-color:#FFAFAF"/>
				<stop  offset="1" style="stop-color:#FF7E7E"/>
			</linearGradient>
			<path fill="url(#SVGID_19_)" d="M88.758,204.951c-3.002,1.535-5.971,1.3-6.635-0.524c-0.664-1.826,1.234-4.55,4.232-6.086
				c3.004-1.534,5.973-1.299,6.637,0.526C93.656,200.691,91.76,203.415,88.758,204.951z"/>
			<linearGradient id="SVGID_20_" gradientUnits="userSpaceOnUse" x1="78.1279" y1="215.0703" x2="89.8721" y2="215.0703">
				<stop  offset="0" style="stop-color:#FFAFAF"/>
				<stop  offset="1" style="stop-color:#FF7E7E"/>
			</linearGradient>
			<path fill="url(#SVGID_20_)" d="M84.439,218.631c-3.236,0.561-6.055-0.579-6.295-2.544c-0.242-1.967,2.182-4.017,5.416-4.577
				c3.236-0.562,6.055,0.578,6.295,2.545C90.098,216.021,87.672,218.069,84.439,218.631z"/>
		</g>
		<g>
			<linearGradient id="SVGID_21_" gradientUnits="userSpaceOnUse" x1="54.5625" y1="208.9365" x2="70.9902" y2="208.9365">
				<stop  offset="0" style="stop-color:#FFAFAF"/>
				<stop  offset="1" style="stop-color:#FF7E7E"/>
			</linearGradient>
			<path fill="url(#SVGID_21_)" d="M70.441,231.552c0.055,0,0.109-0.01,0.164-0.031c0.291-0.114,0.449-0.5,0.359-0.861
				c-0.359-1.418-8.863-34.858-15.443-44.108c-0.201-0.282-0.549-0.309-0.775-0.056c-0.227,0.252-0.246,0.685-0.045,0.969
				c6.426,9.03,15.131,43.264,15.217,43.609C69.992,231.365,70.209,231.552,70.441,231.552z"/>
			<linearGradient id="SVGID_22_" gradientUnits="userSpaceOnUse" x1="48.1895" y1="182.332" x2="55.7227" y2="182.332">
				<stop  offset="0" style="stop-color:#FFAFAF"/>
				<stop  offset="1" style="stop-color:#FF7E7E"/>
			</linearGradient>
			<path fill="url(#SVGID_22_)" d="M53.979,180.296c1.754,2.725,2.271,5.846,1.156,6.971c-1.117,1.124-3.445-0.173-5.201-2.897
				c-1.754-2.725-2.271-5.845-1.156-6.971C49.895,176.273,52.223,177.57,53.979,180.296z"/>
			<linearGradient id="SVGID_23_" gradientUnits="userSpaceOnUse" x1="49.9199" y1="193.5693" x2="59.6426" y2="193.5693">
				<stop  offset="0" style="stop-color:#FFAFAF"/>
				<stop  offset="1" style="stop-color:#FF7E7E"/>
			</linearGradient>
			<path fill="url(#SVGID_23_)" d="M55.633,190.503c2.641,1.148,4.404,3.452,3.934,5.146c-0.471,1.692-2.994,2.135-5.639,0.988
				c-2.641-1.148-4.402-3.451-3.932-5.145C50.465,189.799,52.988,189.355,55.633,190.503z"/>
			<linearGradient id="SVGID_24_" gradientUnits="userSpaceOnUse" x1="63.3662" y1="201.9282" x2="69.9063" y2="201.9282">
				<stop  offset="0" style="stop-color:#FFAFAF"/>
				<stop  offset="1" style="stop-color:#FF7E7E"/>
			</linearGradient>
			<path fill="url(#SVGID_24_)" d="M68.945,203.413c-1.279,3.112-3.35,4.969-4.623,4.15c-1.277-0.818-1.273-4.007,0.006-7.119
				c1.277-3.112,3.35-4.971,4.623-4.15C70.229,197.113,70.223,200.301,68.945,203.413z"/>
			<linearGradient id="SVGID_25_" gradientUnits="userSpaceOnUse" x1="66.5332" y1="213.6973" x2="74.3506" y2="213.6973">
				<stop  offset="0" style="stop-color:#FFAFAF"/>
				<stop  offset="1" style="stop-color:#FF7E7E"/>
			</linearGradient>
			<path fill="url(#SVGID_25_)" d="M72.365,215.878c-1.879,2.592-4.266,3.717-5.326,2.514c-1.061-1.205-0.398-4.282,1.48-6.875
				c1.879-2.592,4.264-3.717,5.326-2.513C74.906,210.209,74.242,213.287,72.365,215.878z"/>
			<linearGradient id="SVGID_26_" gradientUnits="userSpaceOnUse" x1="58.4092" y1="189.0488" x2="64.333" y2="189.0488">
				<stop  offset="0" style="stop-color:#FFAFAF"/>
				<stop  offset="1" style="stop-color:#FF7E7E"/>
			</linearGradient>
			<path fill="url(#SVGID_26_)" d="M58.92,187.983c-0.918,3.306-0.564,6.463,0.791,7.05c1.354,0.59,3.195-1.614,4.113-4.919
				c0.916-3.306,0.563-6.462-0.789-7.051C61.678,182.475,59.838,184.679,58.92,187.983z"/>
			<linearGradient id="SVGID_27_" gradientUnits="userSpaceOnUse" x1="54.3643" y1="204.5732" x2="63.8965" y2="204.5732">
				<stop  offset="0" style="stop-color:#FFAFAF"/>
				<stop  offset="1" style="stop-color:#FF7E7E"/>
			</linearGradient>
			<path fill="url(#SVGID_27_)" d="M58.104,207.554c2.568,1.386,5.111,1.173,5.68-0.474c0.566-1.646-1.055-4.103-3.627-5.487
				c-2.566-1.386-5.109-1.175-5.678,0.472C53.908,203.712,55.533,206.169,58.104,207.554z"/>
			<linearGradient id="SVGID_28_" gradientUnits="userSpaceOnUse" x1="57.1494" y1="216.6826" x2="67.2021" y2="216.6826">
				<stop  offset="0" style="stop-color:#FFAFAF"/>
				<stop  offset="1" style="stop-color:#FF7E7E"/>
			</linearGradient>
			<path fill="url(#SVGID_28_)" d="M61.801,219.896c2.77,0.505,5.182-0.521,5.387-2.296c0.211-1.774-1.867-3.622-4.635-4.129
				c-2.77-0.506-5.182,0.522-5.389,2.295C56.955,217.541,59.031,219.389,61.801,219.896z"/>
		</g>
		<g>
			<linearGradient id="SVGID_29_" gradientUnits="userSpaceOnUse" x1="66.4531" y1="195.2168" x2="73.3721" y2="195.2168">
				<stop  offset="0" style="stop-color:#FFAFAF"/>
				<stop  offset="1" style="stop-color:#FF7E7E"/>
			</linearGradient>
			<path fill="url(#SVGID_29_)" d="M72.145,233.236c0.084,0.026,0.17,0.035,0.264,0.028c0.482-0.042,0.881-0.556,0.893-1.147
				c0.041-2.331,0.955-57.243-5.168-74.381c-0.188-0.523-0.699-0.723-1.145-0.442c-0.445,0.278-0.654,0.931-0.467,1.455
				c5.98,16.735,5.041,72.95,5.033,73.515C71.545,232.744,71.795,233.129,72.145,233.236z"/>
			<linearGradient id="SVGID_30_" gradientUnits="userSpaceOnUse" x1="59.7197" y1="149.6602" x2="69.2607" y2="149.6602">
				<stop  offset="0" style="stop-color:#FFAFAF"/>
				<stop  offset="1" style="stop-color:#FF7E7E"/>
			</linearGradient>
			<path fill="url(#SVGID_30_)" d="M68.375,147.487c1.529,4.965,1.027,9.962-1.119,11.162c-2.146,1.199-5.123-1.853-6.652-6.817
				c-1.527-4.965-1.025-9.962,1.121-11.161C63.869,139.471,66.85,142.523,68.375,147.487z"/>
			<linearGradient id="SVGID_31_" gradientUnits="userSpaceOnUse" x1="57.2783" y1="168.0967" x2="70.9873" y2="168.0967">
				<stop  offset="0" style="stop-color:#FFAFAF"/>
				<stop  offset="1" style="stop-color:#FF7E7E"/>
			</linearGradient>
			<path fill="url(#SVGID_31_)" d="M66.676,163.813c3.516,2.97,5.225,7.295,3.82,9.66c-1.406,2.365-5.395,1.875-8.908-1.095
				c-3.514-2.969-5.223-7.293-3.818-9.658C59.174,160.354,63.164,160.844,66.676,163.813z"/>
			<linearGradient id="SVGID_32_" gradientUnits="userSpaceOnUse" x1="72.0967" y1="186.3125" x2="85.0576" y2="186.3125">
				<stop  offset="0" style="stop-color:#FFAFAF"/>
				<stop  offset="1" style="stop-color:#FF7E7E"/>
			</linearGradient>
			<path fill="url(#SVGID_32_)" d="M81.451,189.641c-3.211,4.153-7.096,6.033-8.682,4.194c-1.586-1.838-0.271-6.695,2.936-10.851
				s7.094-6.033,8.678-4.195C85.973,180.627,84.656,185.485,81.451,189.641z"/>
			<linearGradient id="SVGID_33_" gradientUnits="userSpaceOnUse" x1="72.1396" y1="206.0127" x2="86.8232" y2="206.0127">
				<stop  offset="0" style="stop-color:#FFAFAF"/>
				<stop  offset="1" style="stop-color:#FF7E7E"/>
			</linearGradient>
			<path fill="url(#SVGID_33_)" d="M81.484,210.225c-3.898,3.086-7.957,3.7-9.064,1.374c-1.105-2.326,1.158-6.713,5.057-9.798
				c3.9-3.084,7.959-3.7,9.064-1.374C87.65,202.753,85.385,207.14,81.484,210.225z"/>
			<linearGradient id="SVGID_34_" gradientUnits="userSpaceOnUse" x1="69.9902" y1="164.2451" x2="81.873" y2="164.2451">
				<stop  offset="0" style="stop-color:#FFAFAF"/>
				<stop  offset="1" style="stop-color:#FF7E7E"/>
			</linearGradient>
			<path fill="url(#SVGID_34_)" d="M72.672,161.489c-2.744,4.617-3.506,9.593-1.707,11.114c1.801,1.521,5.486-0.987,8.227-5.604
				c2.744-4.616,3.508-9.591,1.705-11.112C79.096,154.364,75.414,156.874,72.672,161.489z"/>
			<linearGradient id="SVGID_35_" gradientUnits="userSpaceOnUse" x1="59.5723" y1="186.8809" x2="72.7715" y2="186.8809">
				<stop  offset="0" style="stop-color:#FFAFAF"/>
				<stop  offset="1" style="stop-color:#FF7E7E"/>
			</linearGradient>
			<path fill="url(#SVGID_35_)" d="M63.396,190.951c3.305,3.298,7.229,4.148,8.76,1.899c1.535-2.248,0.096-6.743-3.211-10.041
				c-3.305-3.297-7.229-4.146-8.76-1.899C58.652,183.158,60.092,187.654,63.396,190.951z"/>
			<linearGradient id="SVGID_36_" gradientUnits="userSpaceOnUse" x1="58.3594" y1="206.7515" x2="73.2178" y2="206.7515">
				<stop  offset="0" style="stop-color:#FFAFAF"/>
				<stop  offset="1" style="stop-color:#FF7E7E"/>
			</linearGradient>
			<path fill="url(#SVGID_36_)" d="M63.902,211.476c3.969,2.05,8.029,1.595,9.07-1.014c1.041-2.61-1.33-6.386-5.297-8.436
				c-3.967-2.048-8.029-1.595-9.07,1.015C57.563,205.65,59.934,209.426,63.902,211.476z"/>
		</g>
		<path fill="#4781EA" d="M77.725,269.212h-9.953c-4.791,0-8.041-3.684-8.676-8.677l-1.527-29.972h30.916l-1.66,29.549
			C86.229,265.528,82.748,269.212,77.725,269.212z"/>
		<g>
			<g>
				<defs>
					<path id="SVGID_38_" d="M77.725,269.212h-9.953c-4.791,0-8.676-3.885-8.676-8.677l-1.527-29.972h30.916l-1.66,29.549
						C86.824,265.138,82.748,269.212,77.725,269.212z"/>
				</defs>
				<clipPath id="SVGID_37_">
					<use xlink:href="#SVGID_38_"  overflow="visible"/>
				</clipPath>
			</g>
		</g>
	</g>
</g>
</svg>
