<?xml version="1.0" encoding="utf-8"?>
<!-- Generator: Adobe Illustrator 16.0.0, SVG Export Plug-In . SVG Version: 6.00 Build 0)  -->
<!DOCTYPE svg PUBLIC "-//W3C//DTD SVG 1.1//EN" "http://www.w3.org/Graphics/SVG/1.1/DTD/svg11.dtd">
<svg version="1.1" id="Isolation_Mode" xmlns="http://www.w3.org/2000/svg" xmlns:xlink="http://www.w3.org/1999/xlink" x="0px"
	 y="0px" width="320px" height="320px" viewBox="0 0 320 320" enable-background="new 0 0 320 320" xml:space="preserve">
<g>
	<g id="guys_1_">
		<g>
			<path fill="#FBAB41" d="M201.795,181.058c0,0,1.318-0.531,3.005-0.115c1.687,0.417,18.331-1.118,17.319-9.214
				c-1.012-8.095-12.412-2.766-13.121-2.396c-0.707,0.372-3.305,2.901-3.979,5.228c-0.674,2.329-4.283,1.688-4.283,1.688
				L201.795,181.058z"/>
		</g>
		<rect x="85.914" y="244.415" fill="#0D1A38" width="107.78" height="5.57"/>
		<path fill="#0D1A38" d="M90.886,254.572h-23.82c-2.225,0-4.03-1.805-4.03-4.029v-31.337c0-2.224,1.806-4.028,4.03-4.028h23.82
			c2.226,0,4.029,1.805,4.029,4.028v31.337C94.915,252.768,93.111,254.572,90.886,254.572z"/>
		<g>
			<rect x="68.494" y="216.411" fill="#303E5E" width="2.982" height="38.161"/>
			<rect x="83.571" y="216.411" fill="#303E5E" width="2.983" height="38.161"/>
			<rect x="87.686" y="216.411" fill="#303E5E" width="1.771" height="38.161"/>
			<path fill="#303E5E" d="M78.201,236.879l3.08-3.08c0.285-0.283,0.285-0.742,0-1.025c-0.283-0.283-0.74-0.283-1.025,0
				l-2.222,2.223v-18.271h-1.394v18.271l-2.221-2.223c-0.283-0.283-0.742-0.283-1.025,0s-0.283,0.742,0,1.025l3.08,3.08
				c0.051,0.051,0.107,0.089,0.166,0.121v1.231l-2.221-2.222c-0.283-0.284-0.742-0.284-1.025,0c-0.283,0.283-0.283,0.741,0,1.024
				l3.08,3.082c0.051,0.049,0.107,0.088,0.166,0.12v1.231l-2.221-2.223c-0.283-0.283-0.742-0.283-1.025,0
				c-0.283,0.284-0.283,0.742,0,1.025l3.08,3.08c0.051,0.052,0.107,0.089,0.166,0.122v1.23l-2.221-2.223
				c-0.283-0.282-0.742-0.282-1.025,0c-0.283,0.284-0.283,0.743,0,1.025l3.08,3.081c0.051,0.051,0.107,0.088,0.166,0.121v1.231
				l-2.221-2.222c-0.283-0.284-0.742-0.284-1.025,0c-0.283,0.282-0.283,0.742,0,1.024l3.08,3.081
				c0.051,0.051,0.107,0.088,0.166,0.122v1.229l-2.221-2.222c-0.283-0.284-0.742-0.284-1.025,0c-0.283,0.283-0.283,0.742,0,1.025
				l3.08,3.08c0.051,0.052,0.107,0.089,0.166,0.121v1.393h1.394v-1.393c0.06-0.032,0.116-0.069,0.167-0.121l3.08-3.08
				c0.285-0.283,0.285-0.742,0-1.025c-0.283-0.284-0.74-0.284-1.025,0l-2.222,2.222v-1.229c0.06-0.034,0.116-0.071,0.167-0.122
				l3.08-3.081c0.285-0.282,0.285-0.742,0-1.024c-0.283-0.284-0.74-0.284-1.025,0l-2.222,2.222v-1.231
				c0.06-0.033,0.116-0.07,0.167-0.121l3.08-3.081c0.285-0.282,0.285-0.741,0-1.025c-0.283-0.282-0.74-0.282-1.025,0l-2.222,2.223
				v-1.23c0.06-0.033,0.116-0.07,0.167-0.122l3.08-3.08c0.285-0.283,0.285-0.741,0-1.025c-0.283-0.283-0.74-0.283-1.025,0
				l-2.222,2.223v-1.231c0.06-0.032,0.116-0.071,0.167-0.12l3.08-3.082c0.285-0.283,0.285-0.741,0-1.024
				c-0.283-0.284-0.74-0.284-1.025,0l-2.222,2.222V237C78.094,236.968,78.15,236.93,78.201,236.879z"/>
		</g>
		<path fill="#0D1A38" d="M193.744,254.572h23.822c2.225,0,4.029-1.805,4.029-4.029v-31.337c0-2.224-1.805-4.028-4.029-4.028
			h-23.822c-2.225,0-4.027,1.805-4.027,4.028v31.337C189.717,252.768,191.52,254.572,193.744,254.572z"/>
		<g>
			<rect x="213.154" y="216.411" fill="#303E5E" width="2.984" height="38.161"/>
			<rect x="198.076" y="216.411" fill="#303E5E" width="2.984" height="38.161"/>
			<rect x="195.174" y="216.411" fill="#303E5E" width="1.771" height="38.161"/>
			<path fill="#303E5E" d="M206.43,236.879l-3.08-3.08c-0.285-0.283-0.285-0.742,0-1.025c0.284-0.283,0.742-0.283,1.025,0
				l2.221,2.223v-18.271h1.395v18.271l2.221-2.223c0.285-0.283,0.742-0.283,1.025,0c0.285,0.283,0.285,0.742,0,1.025l-3.08,3.08
				c-0.051,0.051-0.106,0.089-0.166,0.121v1.231l2.221-2.222c0.285-0.284,0.742-0.284,1.025,0c0.285,0.283,0.285,0.741,0,1.024
				l-3.08,3.082c-0.051,0.049-0.106,0.088-0.166,0.12v1.231l2.221-2.223c0.285-0.283,0.742-0.283,1.025,0
				c0.285,0.284,0.285,0.742,0,1.025l-3.08,3.08c-0.051,0.052-0.106,0.089-0.166,0.122v1.23l2.221-2.223
				c0.285-0.282,0.742-0.282,1.025,0c0.285,0.284,0.285,0.743,0,1.025l-3.08,3.081c-0.051,0.051-0.106,0.088-0.166,0.121v1.231
				l2.221-2.222c0.285-0.284,0.742-0.284,1.025,0c0.285,0.282,0.285,0.742,0,1.024l-3.08,3.081
				c-0.051,0.051-0.106,0.088-0.166,0.122v1.229l2.221-2.222c0.285-0.284,0.742-0.284,1.025,0c0.285,0.283,0.285,0.742,0,1.025
				l-3.08,3.08c-0.051,0.052-0.106,0.089-0.166,0.121v1.393h-1.395v-1.393c-0.059-0.032-0.117-0.069-0.166-0.121l-3.08-3.08
				c-0.285-0.283-0.285-0.742,0-1.025c0.284-0.284,0.742-0.284,1.025,0l2.221,2.222v-1.229c-0.059-0.034-0.117-0.071-0.166-0.122
				l-3.08-3.081c-0.285-0.282-0.285-0.742,0-1.024c0.284-0.284,0.742-0.284,1.025,0l2.221,2.222v-1.231
				c-0.059-0.033-0.117-0.07-0.166-0.121l-3.08-3.081c-0.285-0.282-0.285-0.741,0-1.025c0.284-0.282,0.742-0.282,1.025,0
				l2.221,2.223v-1.23c-0.059-0.033-0.117-0.07-0.166-0.122l-3.08-3.08c-0.285-0.283-0.285-0.741,0-1.025
				c0.284-0.283,0.742-0.283,1.025,0l2.221,2.223v-1.231c-0.059-0.032-0.117-0.071-0.166-0.12l-3.08-3.082
				c-0.285-0.283-0.285-0.741,0-1.024c0.284-0.284,0.742-0.284,1.025,0l2.221,2.222V237
				C206.537,236.968,206.479,236.93,206.43,236.879z"/>
		</g>
		<path fill="#FBAB41" d="M218.591,239.562c0.136-0.877,2.046-38.094,1.956-42.365c-0.088-4.273-2.653-4.679-3.283-5.308
			c-0.629-0.63-0.674-1.8-0.855-2.564c-0.179-0.764-4.969-2.81-7.466-3.71c-2.495-0.898-3.034-1.956-3.8-2.812
			c-0.766-0.854-2.135-0.989-2.135-0.989l-20.78-7.649l-40.048,0.383l-40.047-0.383l-20.777,7.649c0,0-1.373,0.136-2.137,0.989
			c-0.766,0.855-1.305,1.913-3.801,2.812c-2.497,0.9-7.286,2.946-7.467,3.71c-0.18,0.765-0.225,1.935-0.854,2.564
			c-0.63,0.629-3.193,1.034-3.283,5.308c-0.09,4.271,1.82,41.488,1.956,42.365s-1.417,6.206,8.366,7.489
			c9.484,1.242,64.701,1.068,68.043,1.057c3.344,0.012,58.561,0.186,68.045-1.057C220.008,245.768,218.455,240.438,218.591,239.562z
			"/>
		<path fill="#E69730" d="M73.561,225.75c-1.799,0.099-3.187,1.615-3.128,3.415c0.132,4.103,0.675,10.952,2.802,13.434
			c3.527,4.116,23.129,2.693,27.719,2.095s10.577-13.304,8.782-17.279C108.259,224.146,82.643,225.252,73.561,225.75z"/>
		<path fill="#E69730" d="M209.831,225.696c2.37,0.124,4.202,2.138,4.095,4.509c-0.188,4.138-0.809,10.111-2.762,12.394
			c-3.527,4.116-23.127,2.693-27.72,2.095c-4.589-0.599-10.577-13.304-8.78-17.279C176.089,224.259,200.001,225.181,209.831,225.696
			z"/>
		<path fill="#FBBA64" d="M205.143,182.803c0.766,0.855,1.305,1.913,3.8,2.812c2.497,0.9,7.287,2.946,7.466,3.71
			c0,0-1.598,6.568-7.894,9.573c-6.296,3.006-31.018,6.794-30.105,6.116c0.911-0.679,16.032-9.674,24.599-23.2
			C203.008,181.813,204.377,181.949,205.143,182.803z"/>
		<path fill="#F2EDFF" d="M178.409,205.648c-0.085-1.159,28.328-10.312,31.432-7.644c3.101,2.668,3.161,9.691,1.813,10.98
			c-1.345,1.287-4.506,2.385-8.838,2.333s-15.217-0.121-16.856-0.73C184.32,209.979,178.584,208.048,178.409,205.648z"/>
		<path fill="#FF9000" d="M201.041,198.388c4.324-0.889,7.82-1.225,8.8-0.383c3.101,2.668,3.161,9.691,1.813,10.98
			c-1.174,1.121-3.727,2.1-7.23,2.299C204.74,208.375,204.604,203.241,201.041,198.388z"/>
		<path fill="#FBBA64" d="M79.219,182.803c-0.766,0.855-1.305,1.913-3.801,2.812c-2.497,0.9-7.286,2.946-7.467,3.71
			c0,0,1.598,6.568,7.895,9.573c6.297,3.006,31.018,6.794,30.106,6.116c-0.911-0.679-16.032-9.674-24.597-23.2
			C81.355,181.813,79.982,181.949,79.219,182.803z"/>
		<path fill="#FBBA64" d="M186.465,179.887c-0.941,0-40.447-4.818-44.396-5.299v-0.039c0,0-0.054,0.007-0.158,0.019
			c-0.104-0.012-0.16-0.019-0.16-0.019v0.039c-3.947,0.48-43.454,5.299-44.395,5.299c-0.99,0-14.783,2.029-14.783,2.029
			s20.377,21.745,27.727,24.21c9.955,0.617,29.658,0.062,31.611,0.004c1.953,0.058,21.655,0.613,31.611-0.004
			c7.35-2.465,27.727-24.21,27.727-24.21S187.455,179.887,186.465,179.887z"/>
		<path fill="#FBAB41" d="M82.842,181.916c0,0,20.148,4.826,55.946,4.826s63.874-4.883,62.384-4.784
			c-1.49,0.101-24.969-0.617-30.5-0.042c-5.529,0.572-29.699,0.819-29.699,0.819s-21.416-1.66-24.529-1.83
			c-3.113-0.171-13.904-0.022-13.904-0.022L82.842,181.916z"/>
		<path fill="#FBAB41" d="M186.055,147.004c-7.824-3.778-42.905-3.508-43.715-3.508c-0.809,0-35.891-0.271-43.716,3.508
			s-17.269,34.81-17.269,34.81s51.168,3.483,60.984,3.483c9.637,0,60.986-3.483,60.986-3.483S193.881,150.782,186.055,147.004z"/>
		<path fill="#A3C2E6" d="M82.842,181.916c8.484,0.571,50.68,3.381,59.498,3.381c8.66,0,50.998-2.812,59.498-3.383
			c-1.58-4.763-10.254-30.065-17.172-33.387c-7.62-3.66-41.543-3.398-42.326-3.398s-34.706-0.262-42.328,3.398
			C93.097,151.849,84.422,177.152,82.842,181.916z"/>
		<path fill="#B5D8FF" d="M142.34,185.297c6.506,0,30.919-1.556,47.838-2.688c-2.861-8.828-8.06-23.104-12.422-25.489
			c-6.377-3.484-34.762-3.234-35.416-3.234c-0.656,0-29.037-0.25-35.416,3.234c-4.363,2.385-9.562,16.665-12.422,25.492
			C111.38,183.745,135.721,185.297,142.34,185.297z"/>
		<path fill="#8CADD1" d="M142.34,185.297c5.804,0,25.85-1.236,42.119-2.308l-1.229-7.385c-0.699-4.194-4.326-7.271-8.578-7.271
			h-66.621c-4.253,0-7.881,3.076-8.578,7.271l-1.209,7.257C114.784,183.96,136.194,185.297,142.34,185.297z"/>
		<path fill="#A3C3E6" d="M155.012,184.835c2.046-2.594,4.168-6.255,5.297-9.436c2.432-6.844,4.596-12.491,9.781-12.558
			c5.186,0.066,7.35,5.714,9.781,12.558c1.932,5.439,6.762,6.886,9.165,7.398C178.715,183.466,165.069,184.318,155.012,184.835z"/>
		<path fill="#8CADD1" d="M162.54,183.349c-0.041-0.328-0.063-0.662-0.063-1.001c0-4.447,3.604-8.054,8.053-8.054
			c4.447,0,8.053,3.606,8.053,8.054c0,0.265-0.014,0.524-0.039,0.784c0.892-0.079,1.783-0.152,2.676-0.205
			c0.012-0.191,0.018-0.384,0.018-0.579c0-5.914-4.795-10.708-10.707-10.708c-5.914,0-10.709,4.794-10.709,10.708
			c0,0.37,0.02,0.735,0.057,1.097C160.762,183.379,161.648,183.35,162.54,183.349z"/>
		<path fill="#8CADD1" d="M199.512,182.07c0.057-0.005,0.113-0.008,0.17-0.012c0.074-0.005,0.154-0.01,0.227-0.015
			c0.029-0.003,0.055-0.005,0.08-0.006c0.346-0.023,0.67-0.043,0.966-0.064c0.075-0.005,0.146-0.01,0.218-0.016
			c0.115-0.007,0.23-0.015,0.338-0.021c0.114-0.007,0.224-0.015,0.328-0.022c-0.036-0.108-0.076-0.231-0.121-0.359
			c-0.047-0.14-0.094-0.287-0.15-0.447c-0.002-0.007-0.004-0.015-0.007-0.021c-2.136-6.324-10.309-29.398-16.894-32.56
			c-7.62-3.66-41.543-3.398-42.326-3.398s-34.706-0.262-42.328,3.398c-6.915,3.321-15.59,28.625-17.17,33.389
			c0.685,0.045,1.592,0.106,2.682,0.178l0,0c12.399,0.828,48.711,3.203,56.816,3.203
			C150.379,185.297,187.441,182.874,199.512,182.07z M87.509,176.257c3.272-9.218,9.245-24.21,14.257-26.708
			c7.307-3.64,39.824-3.381,40.574-3.381s33.268-0.259,40.574,3.381c5.121,2.553,11.246,18.15,14.467,27.303
			c-0.846,1.06-2.373,2.272-5.132,3.154c-6.046,1.931-10.942-2.729-20.963-2.729c-10.019,0-12.437,5.783-17.978,5.925
			c-5.543,0.143-56.281-2.913-61.611-3.907C89.297,178.847,88.102,177.549,87.509,176.257z"/>
		<g>
			<rect x="140.451" y="145.127" fill="#8CADD1" width="3.613" height="4.918"/>
			<path fill="#8CADD1" d="M147.008,155.258h-9.127c-2.02,0-3.592-1.76-3.365-3.769l0.094-0.856c0.088-0.762,0.732-1.338,1.5-1.338
				h12.672c0.768,0,1.412,0.576,1.498,1.338l0.096,0.856C150.602,153.498,149.029,155.258,147.008,155.258z"/>
		</g>
		<g>
			<path fill="#FBAB41" d="M82.555,181.058c0,0-1.318-0.531-3.007-0.115c-1.687,0.417-18.331-1.118-17.319-9.214
				c1.012-8.095,12.412-2.766,13.122-2.396c0.708,0.372,3.304,2.901,3.979,5.228c0.674,2.329,4.285,1.688,4.285,1.688
				L82.555,181.058z"/>
		</g>
		<path fill="#4D5873" d="M174.111,206.126c-1.837-1.619-30.662-0.993-31.771-0.993s-29.936-0.626-31.771,0.993
			c-1.809,1.594,1.18,21.933,4.67,28.344c3.26,5.988,50.945,5.988,54.203,0C172.932,228.059,175.92,207.72,174.111,206.126z"/>
		<path fill="#BCC7FF" d="M155.061,205.014c8.392,0,18.014,0.199,19.051,1.112c1.809,1.594-1.18,21.933-4.67,28.344
			c-1.629,2.994-14.365,4.492-27.102,4.492s-25.473-1.498-27.102-4.492c-3.49-6.411-6.479-26.75-4.67-28.344
			c1.035-0.913,10.658-1.112,19.051-1.112c6.484,0,12.236,0.119,12.721,0.119S148.574,205.014,155.061,205.014L155.061,205.014z
			 M155.061,204.205c-5.103,0-9.754,0.072-11.738,0.105c-0.538,0.007-0.88,0.014-0.982,0.014s-0.444-0.007-0.98-0.014
			c-1.986-0.033-6.639-0.105-11.74-0.105c-18.094,0-19.102,0.888-19.586,1.313c-0.467,0.41-0.926,1.307-0.799,4.836
			c0.081,2.226,0.393,5.159,0.883,8.263c0.869,5.533,2.484,12.705,4.41,16.24c0.909,1.673,4.172,2.91,9.977,3.782
			c4.854,0.729,11.189,1.131,17.836,1.131s12.981-0.401,17.836-1.131c5.805-0.872,9.068-2.109,9.979-3.782
			c1.924-3.535,3.538-10.707,4.408-16.24c0.488-3.104,0.802-6.037,0.883-8.263c0.127-3.529-0.332-4.426-0.799-4.836
			C174.162,205.093,173.154,204.205,155.061,204.205L155.061,204.205z"/>
		<g>
			<path fill="#BCC7FF" d="M141.09,210.77c0.684,0.009,1.12,0.015,1.25,0.015s0.564-0.006,1.25-0.015
				c16.611-0.256,25.864-0.085,31.018,0.188c0.023-0.448,0.037-0.875,0.045-1.275c-4.733-0.354-13.736-0.571-31.171-0.304
				c-0.624,0.009-1.021,0.017-1.142,0.017c-0.119,0-0.517-0.008-1.142-0.017c-17.435-0.268-26.437-0.05-31.171,0.304
				c0.006,0.4,0.021,0.827,0.045,1.275C115.227,210.686,124.478,210.514,141.09,210.77z"/>
			<path fill="#BCC7FF" d="M143.59,210.77c-0.686,0.009-1.12,0.015-1.25,0.015s-0.566-0.006-1.25-0.015
				c-16.612-0.256-25.863-0.084-31.018,0.188c0.014,0.282,0.032,0.571,0.055,0.87c4.369-0.317,13.199-0.563,31.035-0.291
				c0.645,0.01,1.055,0.016,1.178,0.016s0.531-0.006,1.178-0.016c17.834-0.272,26.665-0.026,31.036,0.291
				c0.021-0.299,0.038-0.588,0.054-0.87C169.454,210.685,160.201,210.514,143.59,210.77z"/>
			<path opacity="0.5" fill="#BCC7FF" d="M143.59,210.77c-0.686,0.009-1.12,0.015-1.25,0.015s-0.566-0.006-1.25-0.015
				c-16.612-0.256-25.863-0.084-31.018,0.188c0.014,0.282,0.032,0.571,0.055,0.87c4.369-0.317,13.199-0.563,31.035-0.291
				c0.645,0.01,1.055,0.016,1.178,0.016s0.531-0.006,1.178-0.016c17.834-0.272,26.665-0.026,31.036,0.291
				c0.021-0.299,0.038-0.588,0.054-0.87C169.454,210.685,160.201,210.514,143.59,210.77z"/>
			<path fill="#BCC7FF" d="M143.478,215.048c-0.624,0.01-1.019,0.017-1.138,0.017s-0.514-0.007-1.137-0.017
				c-16.976-0.259-25.932-0.06-30.73,0.28c0.051,0.419,0.105,0.845,0.165,1.277c5.218-0.26,14.378-0.413,30.456-0.167
				c0.682,0.011,1.116,0.017,1.246,0.017s0.563-0.006,1.246-0.017c16.079-0.246,25.238-0.093,30.455,0.166
				c0.061-0.432,0.115-0.857,0.166-1.276C169.408,214.988,160.453,214.789,143.478,215.048z"/>
			<path fill="#BCC7FF" d="M143.586,216.438c-0.683,0.011-1.116,0.017-1.246,0.017s-0.564-0.006-1.246-0.017
				c-16.078-0.246-25.238-0.093-30.456,0.167c0.04,0.283,0.081,0.569,0.123,0.857c4.521-0.3,13.312-0.519,30.405-0.256
				c0.643,0.011,1.051,0.017,1.174,0.017s0.531-0.006,1.174-0.017c17.095-0.263,25.886-0.044,30.406,0.255
				c0.043-0.288,0.082-0.573,0.121-0.857C168.824,216.346,159.665,216.192,143.586,216.438z"/>
			<path opacity="0.5" fill="#BCC7FF" d="M143.586,216.438c-0.683,0.011-1.116,0.017-1.246,0.017s-0.564-0.006-1.246-0.017
				c-16.078-0.246-25.238-0.093-30.456,0.167c0.04,0.283,0.081,0.569,0.123,0.857c4.521-0.3,13.312-0.519,30.405-0.256
				c0.643,0.011,1.051,0.017,1.174,0.017s0.531-0.006,1.174-0.017c17.095-0.263,25.886-0.044,30.406,0.255
				c0.043-0.288,0.082-0.573,0.121-0.857C168.824,216.346,159.665,216.192,143.586,216.438z"/>
			<path fill="#BCC7FF" d="M143.478,220.718c-0.624,0.011-1.019,0.018-1.138,0.018s-0.514-0.007-1.137-0.018
				c-16.012-0.244-24.887-0.08-29.873,0.224c0.08,0.431,0.162,0.861,0.246,1.29c5.354-0.232,14.359-0.354,29.518-0.123
				c0.682,0.01,1.116,0.018,1.246,0.018s0.563-0.008,1.246-0.018c15.158-0.232,24.164-0.109,29.519,0.123
				c0.083-0.429,0.165-0.859,0.243-1.29C168.363,220.638,159.488,220.474,143.478,220.718z"/>
			<path fill="#BCC7FF" d="M143.586,222.108c-0.683,0.01-1.116,0.018-1.246,0.018s-0.564-0.008-1.246-0.018
				c-15.158-0.231-24.164-0.109-29.518,0.123c0.055,0.281,0.109,0.563,0.168,0.842c4.772-0.268,13.49-0.44,29.422-0.196
				c0.643,0.01,1.051,0.016,1.174,0.016s0.531-0.006,1.174-0.016c15.932-0.244,24.65-0.071,29.422,0.196
				c0.059-0.28,0.114-0.561,0.169-0.842C167.75,221.999,158.744,221.876,143.586,222.108z"/>
			<path opacity="0.5" fill="#BCC7FF" d="M143.586,222.108c-0.683,0.01-1.116,0.018-1.246,0.018s-0.564-0.008-1.246-0.018
				c-15.158-0.231-24.164-0.109-29.518,0.123c0.055,0.281,0.109,0.563,0.168,0.842c4.772-0.268,13.49-0.44,29.422-0.196
				c0.643,0.01,1.051,0.016,1.174,0.016s0.531-0.006,1.174-0.016c15.932-0.244,24.65-0.071,29.422,0.196
				c0.059-0.28,0.114-0.561,0.169-0.842C167.75,221.999,158.744,221.876,143.586,222.108z"/>
			<path fill="#BCC7FF" d="M143.478,226.389c-0.624,0.01-1.019,0.016-1.138,0.016s-0.514-0.006-1.137-0.016
				c-14.809-0.228-23.512-0.104-28.68,0.157c0.109,0.442,0.223,0.878,0.334,1.306c5.475-0.199,14.23-0.289,28.236-0.073
				c0.682,0.011,1.116,0.018,1.246,0.018s0.563-0.007,1.246-0.018c14.006-0.216,22.762-0.126,28.236,0.073
				c0.113-0.428,0.225-0.863,0.334-1.306C166.988,226.285,158.285,226.161,143.478,226.389z"/>
			<path fill="#BCC7FF" d="M143.586,227.778c-0.683,0.011-1.116,0.018-1.246,0.018s-0.564-0.007-1.246-0.018
				c-14.006-0.216-22.762-0.126-28.236,0.073c0.076,0.278,0.15,0.554,0.227,0.824c5.008-0.228,13.541-0.353,28.082-0.128
				c0.643,0.01,1.051,0.016,1.174,0.016s0.531-0.006,1.174-0.016c14.539-0.225,23.073-0.1,28.082,0.128
				c0.076-0.271,0.15-0.546,0.227-0.824C166.348,227.652,157.592,227.563,143.586,227.778z"/>
			<path opacity="0.5" fill="#BCC7FF" d="M143.586,227.778c-0.683,0.011-1.116,0.018-1.246,0.018s-0.564-0.007-1.246-0.018
				c-14.006-0.216-22.762-0.126-28.236,0.073c0.076,0.278,0.15,0.554,0.227,0.824c5.008-0.228,13.541-0.353,28.082-0.128
				c0.643,0.01,1.051,0.016,1.174,0.016s0.531-0.006,1.174-0.016c14.539-0.225,23.073-0.1,28.082,0.128
				c0.076-0.271,0.15-0.546,0.227-0.824C166.348,227.652,157.592,227.563,143.586,227.778z"/>
			<path fill="#BCC7FF" d="M143.478,232.055c-0.624,0.011-1.019,0.017-1.138,0.017s-0.514-0.006-1.137-0.017
				c-13.313-0.203-21.688-0.124-27.002,0.083c0.178,0.472,0.357,0.914,0.539,1.32c5.536-0.153,13.852-0.204,26.354-0.013
				c0.682,0.012,1.116,0.018,1.246,0.018s0.563-0.006,1.246-0.018c12.501-0.191,20.818-0.142,26.352,0.013
				c0.184-0.406,0.363-0.849,0.541-1.319C165.165,231.931,156.789,231.852,143.478,232.055z"/>
			<path fill="#BCC7FF" d="M143.586,233.445c-0.683,0.012-1.116,0.018-1.246,0.018s-0.564-0.006-1.246-0.018
				c-12.502-0.191-20.817-0.141-26.354,0.013c0.131,0.287,0.259,0.555,0.389,0.805c5.186-0.173,13.313-0.243,26.037-0.049
				c0.643,0.01,1.051,0.016,1.174,0.016s0.531-0.006,1.174-0.016c12.725-0.194,20.852-0.124,26.037,0.049
				c0.131-0.25,0.26-0.518,0.387-0.805C164.404,233.304,156.087,233.254,143.586,233.445z"/>
			<path opacity="0.5" fill="#BCC7FF" d="M143.586,233.445c-0.683,0.012-1.116,0.018-1.246,0.018s-0.564-0.006-1.246-0.018
				c-12.502-0.191-20.817-0.141-26.354,0.013c0.131,0.287,0.259,0.555,0.389,0.805c5.186-0.173,13.313-0.243,26.037-0.049
				c0.643,0.01,1.051,0.016,1.174,0.016s0.531-0.006,1.174-0.016c12.725-0.194,20.852-0.124,26.037,0.049
				c0.131-0.25,0.26-0.518,0.387-0.805C164.404,233.304,156.087,233.254,143.586,233.445z"/>
		</g>
		<path fill="#F2EDFF" d="M105.952,205.648c0.085-1.159-28.329-10.312-31.432-7.644s-3.159,9.691-1.813,10.98
			c1.346,1.287,4.507,2.385,8.84,2.333c4.328-0.052,15.215-0.121,16.854-0.73C100.041,209.979,105.777,208.048,105.952,205.648z"/>
		<path fill="#FF9000" d="M83.318,198.388c-4.324-0.889-7.818-1.225-8.798-0.383c-3.103,2.668-3.159,9.691-1.813,10.98
			c1.172,1.121,3.725,2.1,7.23,2.299C79.621,208.375,79.756,203.241,83.318,198.388z"/>
		<g opacity="0.41">
			<path fill="#FFFFFF" d="M109.229,183.622c1.418,0.087,2.846,0.175,4.271,0.262c6.646-12.078,14.32-26.036,21.27-38.719
				c-1.475,0.02-3.104,0.048-4.834,0.09L109.229,183.622z"/>
			<path fill="#FFFFFF" d="M140.761,145.125c-0.673,0-1.534,0.001-2.554,0.007l-21.034,38.973c0.77,0.044,1.534,0.089,2.294,0.135
				C126.105,172.068,133.801,157.944,140.761,145.125z"/>
			<path fill="#FFFFFF" d="M171.404,146.098c-1.49-0.13-3.033-0.242-4.592-0.34l-21.307,39.474c1.291-0.043,2.807-0.104,4.498-0.183
				C156.637,173.003,164.367,158.942,171.404,146.098z"/>
			<path fill="#FFFFFF" d="M177.042,146.717c-0.765-0.105-1.56-0.204-2.382-0.297l-20.748,38.438c0.79-0.04,1.601-0.082,2.432-0.127
				C162.77,172.95,170.219,159.28,177.042,146.717z"/>
		</g>
	</g>
	<g>
		<g>
			<g>
				
					<linearGradient id="SVGID_2_" gradientUnits="userSpaceOnUse" x1="-7875.9683" y1="2769.2256" x2="-7875.9683" y2="2793.4312" gradientTransform="matrix(-0.5936 -0.8048 -0.8048 0.5936 -2186.6389 -7846.0059)">
					<stop  offset="0" style="stop-color:#00E3E4"/>
					<stop  offset="1" style="stop-color:#04AAC2"/>
				</linearGradient>
				<path fill="url(#SVGID_2_)" d="M247.22,130.739c6.501,1.22,13.239,9.614-1.118,28.852c-8.938,11.614-12.479,10.23-24.4,13.562
					c-4.182-3.049,0.277-7.288,0.277-7.288s10.545-2.384,14.9-9.57C241.234,149.108,243.836,130.104,247.22,130.739z"/>
				
					<ellipse transform="matrix(-0.0396 -0.9992 0.9992 -0.0396 59.5565 395.6526)" fill="#F2B897" cx="219.912" cy="169.206" rx="4.619" ry="5.176"/>
			</g>
			<polygon fill="#F2B897" points="270.161,264.589 270.161,270.614 263.404,270.614 263.404,264.946 			"/>
			<path fill="#071023" d="M259.087,272.809h11.16c0.529,0,0.958-0.429,0.958-0.958v-0.904c0-0.472-0.381-0.854-0.852-0.854h-8.551
				c-1.499,0-4.842,1.216-4.842,2.716H259.087z"/>
			<g>
				<path fill="#F2B897" d="M242.799,261.907c0,0.208-1.742,8.186-1.742,8.186h-5.92l1.184-8.604L242.799,261.907z"/>
				<path fill="#071023" d="M230.139,272.809h11.16c0.529,0,0.959-0.429,0.959-0.958v-0.904c0-0.472-0.381-0.854-0.854-0.854h-8.549
					c-1.5,0-4.844,1.216-4.844,2.716H230.139z"/>
				<path fill="#1D2848" d="M243.02,180.919l-8.647,84.401h8.329c4.09-16.484,13.191-27.754,7.941-39.632
					c-1.584-3.585,11.504-28.101,12.248-32.978s0.451-14.211,0.451-14.211L243.02,180.919z"/>
			</g>
			<path fill="#263762" d="M248.402,180.919l13.887,84.401h8.327c-0.31-16.484,5.783-27.754-2.639-39.632
				c-2.542-3.585,4.001-28.101,3.444-32.978c-0.559-4.877-3.344-14.211-3.344-14.211L248.402,180.919z"/>
			<path fill="#FFFFFF" d="M268.541,180.641c0,0-9.242,2.317-14.119,2.317c-4.874,0-11.701-1.95-11.701-1.95l0.959-45.812
				c0,0,2.383-8.805,10.742-8.805c8.36,0,13.516,0,13.516,0L268.541,180.641z"/>
			<g opacity="0.6">
				<defs>
					<path id="SVGID_41_" opacity="0.6" d="M247.22,130.739c6.501,1.22,13.239,9.614-1.118,28.852
						c-8.938,11.614-12.479,10.23-24.4,13.562c-4.182-3.049,0.277-7.288,0.277-7.288s10.545-2.384,14.9-9.57
						C241.234,149.108,243.836,130.104,247.22,130.739z"/>
				</defs>
				<clipPath id="SVGID_4_">
					<use xlink:href="#SVGID_41_"  overflow="visible"/>
				</clipPath>
			</g>
			
				<linearGradient id="SVGID_6_" gradientUnits="userSpaceOnUse" x1="-2321.4946" y1="121.8325" x2="-2321.4946" y2="147.1279" gradientTransform="matrix(-1 0 0 1 -2074.2754 0)">
				<stop  offset="0" style="stop-color:#00E3E4"/>
				<stop  offset="1" style="stop-color:#04AAC2"/>
			</linearGradient>
			<path fill="url(#SVGID_6_)" d="M253.377,126.436c0,0-6.017,8.747-6.502,21.952c-0.486,13.207-1.461,45.729-1.461,45.729
				s-3.178-1.27-4.354-3.235c0-6.982,1.073-43.215,1.716-48.697C243.416,136.702,242.721,128.024,253.377,126.436z"/>
			<g>
				<defs>
					<path id="SVGID_44_" d="M260.896,179.617c0-0.05,0-0.1,0-0.147c0-0.423-0.002-0.854-0.006-1.292c0-0.026,0-0.053,0-0.08
						c-0.004-0.458-0.012-0.925-0.021-1.4c0-0.066-0.002-0.135-0.004-0.204c-0.006-0.402-0.014-0.81-0.023-1.221
						c-0.002-0.099-0.005-0.194-0.006-0.292c-0.014-0.474-0.027-0.953-0.045-1.44c0-0.069-0.005-0.141-0.006-0.21
						c-0.016-0.418-0.031-0.842-0.049-1.27c-0.006-0.133-0.012-0.268-0.019-0.402c-0.022-0.5-0.045-1.004-0.072-1.519
						c-0.653-23.324,1.464-34.212,3.582-39.296c0.651-1.906,1.321-3.357,1.95-4.452c1.139,0,1.76,0,1.76,0
						c9.592,0,2.229,35.947,2.369,41.241s2.639,18.02,1.939,22.755c0,0-10.809,4.738-11.601,3.53
						c-0.155-1.4,0.167-5.521,0.239-11.676C260.893,181.404,260.898,180.528,260.896,179.617z"/>
				</defs>
				
					<linearGradient id="SVGID_7_" gradientUnits="userSpaceOnUse" x1="-2340.9761" y1="121.832" x2="-2340.9761" y2="147.1272" gradientTransform="matrix(-1 0 0 1 -2074.2754 0)">
					<stop  offset="0" style="stop-color:#00E3E4"/>
					<stop  offset="1" style="stop-color:#04AAC2"/>
				</linearGradient>
				<use xlink:href="#SVGID_44_"  overflow="visible" fill="url(#SVGID_7_)"/>
				<clipPath id="SVGID_8_">
					<use xlink:href="#SVGID_44_"  overflow="visible"/>
				</clipPath>
			</g>
			<g>
				<circle fill="#F2B897" cx="265.479" cy="112.437" r="2.613"/>
				<path fill="#F2B897" d="M266.196,126.392c0,0-2.067,5.108-6.804,5.108s-5.203-5.104-5.203-5.104v-3.209l9.514-7.07
					L266.196,126.392z"/>
				<path opacity="0.5" d="M261.762,117.56l2.121-0.699l1.287,5.3c-2.109,3.83-9.4,3.941-10.98,3.92v-1.528l0.324-1.606
					L261.762,117.56z"/>
				<g>
					<path fill="#F2B897" d="M256.274,124.905c4.776,0,8.646-3.87,8.646-8.644v-12.178h-15.838v13.629
						C249.082,121.685,252.303,124.905,256.274,124.905z"/>
					<path fill="#1A2541" d="M249.64,104.202l0.127,4.27c-0.004,0.009-0.005,0.021-0.011,0.03v5.301c0,0.143,0.01,0.282,0.025,0.423
						c0.025,0.193,0.045,0.419,0.033,0.434c0.271,1.698,1.732,2.999,3.508,2.999h2.725c3.834,0,7.035-2.689,7.828-6.283
						c0.052-0.594,0.069-1.188,0.124-1.792c0.108-1.211,0.16-1.839,0.177-2.418l0.744,0.106v8.81c0,4.873-3.951,8.824-8.824,8.824
						c-3.873,0-7.014-3.141-7.014-7.014v-13.165L249.64,104.202z"/>
				</g>
			</g>
			<path fill="#1A2541" d="M263.906,106.697c-0.771-1.01-1.973-1.679-3.236-1.801c-1.277-0.122-2.536,0.285-3.794,0.538
				c-1.938,0.391-3.951,0.412-5.899,0.065c-1.479-0.263-2.961-0.76-4.109-1.731c-1.147-0.972-1.913-2.484-1.699-3.974
				c0.158-1.12,0.84-2.107,1.664-2.883c1.436-1.353,3.363-2.169,5.332-2.262c3.729-0.174,7.252,2.137,10.977,1.9
				c0.858-0.055,1.715-0.246,2.57-0.159c1.224,0.123,2.355,0.827,3.092,1.812c0.736,0.985,1.092,2.229,1.09,3.459
				c-0.002,1.693-0.639,3.313-1.268,4.883c-0.254,0.635-0.502,1.24-0.836,1.835c-0.346,0.614-0.684,1.232-1.008,1.857
				c-0.646,1.251-1.479,2.718-2.039,4.01c-0.268-0.485-0.109-1.252-0.092-1.807c0.016-0.554,0.114-1.104,0.158-1.655
				C264.92,109.382,264.781,107.845,263.906,106.697z"/>
			<g>
				
					<linearGradient id="SVGID_9_" gradientUnits="userSpaceOnUse" x1="-7886.8218" y1="2749.6846" x2="-7886.8218" y2="2775.2827" gradientTransform="matrix(-0.5936 -0.8048 -0.8048 0.5936 -2186.6389 -7846.0059)">
					<stop  offset="0" style="stop-color:#00E3E4"/>
					<stop  offset="1" style="stop-color:#04AAC2"/>
				</linearGradient>
				<path fill="url(#SVGID_9_)" d="M268.914,126.53c6.501,1.22,12.053,13.823-2.305,33.061c-8.939,11.614-12.479,10.23-24.4,13.562
					c-4.184-3.049,0.279-7.288,0.279-7.288s10.543-2.384,14.898-9.57C261.742,149.108,265.531,125.896,268.914,126.53z"/>
			</g>
		</g>
		<g id="baggage">
			<path fill="#9DBBFC" d="M241.904,196.402h-26.436v-22.715h26.436V196.402z M218.445,193.424h20.48v-16.759h-20.48V193.424z"/>
			<g>
				<path fill="#263762" d="M240.415,186.127c-1.439,0-2.606-1.166-2.606-2.605v-5.739h-18.247v5.351
					c0,1.439-1.167,2.606-2.604,2.606c-1.439,0-2.605-1.167-2.605-2.606V172.57h28.67v10.951
					C243.021,184.961,241.854,186.127,240.415,186.127z"/>
			</g>
			<path fill="#161F4D" d="M250.213,273.098h-2.976c-0.77,0-1.395-0.624-1.395-1.395v-5.888c0-0.77,0.625-1.395,1.395-1.395h2.976
				c0.77,0,1.393,0.625,1.393,1.395v5.888C251.605,272.474,250.982,273.098,250.213,273.098z"/>
			<path fill="#161F4D" d="M210.674,273.098h-2.975c-0.77,0-1.395-0.624-1.395-1.395v-5.888c0-0.77,0.625-1.395,1.395-1.395h2.975
				c0.771,0,1.395,0.625,1.395,1.395v5.888C212.068,272.474,211.444,273.098,210.674,273.098z"/>
			
				<radialGradient id="SVGID_11_" cx="-2303.2314" cy="231.5239" r="32.8186" gradientTransform="matrix(-1 0 0 1 -2074.2754 0)" gradientUnits="userSpaceOnUse">
				<stop  offset="0" style="stop-color:#F8856E"/>
				<stop  offset="1" style="stop-color:#FF5C68"/>
			</radialGradient>
			<path fill="url(#SVGID_11_)" d="M246.627,271.39h-35.344c-3.366,0-6.094-2.73-6.094-6.096v-67.541
				c0-3.365,2.728-6.095,6.094-6.095h35.344c3.367,0,6.096,2.729,6.096,6.095v67.541C252.723,268.659,249.994,271.39,246.627,271.39
				z"/>
			<ellipse fill="#FFFFFF" cx="228.858" cy="195.096" rx="5.419" ry="1.694"/>
			<path fill="#D44C56" d="M247.426,191.658h-3.984c-0.332,0.978-0.516,2.023-0.516,3.111c0,5.34,4.33,9.669,9.67,9.669
				c0.042,0,0.083-0.005,0.127-0.005v-7.478C252.723,194.029,250.351,191.658,247.426,191.658z"/>
			<path fill="#D44C56" d="M205.189,196.956v7.479c5.305-0.041,9.592-4.352,9.592-9.666c0-1.088-0.182-2.134-0.514-3.111h-3.781
				C207.561,191.658,205.189,194.029,205.189,196.956z"/>
			<path fill="#D44C56" d="M247.426,271.309h-3.984c-0.332-0.978-0.516-2.023-0.516-3.111c0-5.34,4.33-9.669,9.67-9.669
				c0.042,0,0.083,0.003,0.127,0.004v7.479C252.723,268.938,250.351,271.309,247.426,271.309z"/>
			<path fill="#D44C56" d="M205.189,266.011v-7.479c5.305,0.04,9.592,4.352,9.592,9.666c0,1.088-0.182,2.134-0.514,3.111h-3.781
				C207.561,271.309,205.189,268.938,205.189,266.011z"/>
			<g opacity="0.32">
				<path fill="#F1995B" d="M210.159,256.358c-0.622,0-1.126-0.505-1.126-1.128v-46.548c0-0.622,0.504-1.127,1.126-1.127
					s1.126,0.505,1.126,1.127v46.548C211.285,255.854,210.781,256.358,210.159,256.358z"/>
				<path fill="#F1995B" d="M222.467,262.56c-0.622,0-1.128-0.505-1.128-1.127v-58.953c0-0.623,0.506-1.126,1.128-1.126
					c0.623,0,1.127,0.503,1.127,1.126v58.953C223.594,262.055,223.09,262.56,222.467,262.56z"/>
				<path fill="#F1995B" d="M228.621,265.802c-0.624,0-1.127-0.505-1.127-1.128v-65.437c0-0.623,0.503-1.127,1.127-1.127
					c0.621,0,1.127,0.504,1.127,1.127v65.437C229.748,265.297,229.242,265.802,228.621,265.802z"/>
				<path fill="#F1995B" d="M247.083,256.358c0.62,0,1.125-0.505,1.125-1.128v-46.548c0-0.622-0.505-1.127-1.125-1.127
					c-0.624,0-1.128,0.505-1.128,1.127v46.548C245.955,255.854,246.459,256.358,247.083,256.358z"/>
				<path fill="#F1995B" d="M240.928,259.345c0.623,0,1.128-0.506,1.128-1.128v-52.52c0-0.624-0.505-1.128-1.128-1.128
					c-0.622,0-1.127,0.504-1.127,1.128v52.52C239.801,258.839,240.306,259.345,240.928,259.345z"/>
				<path fill="#F1995B" d="M234.193,262.56h1.162c0.303,0,0.547-0.244,0.547-0.545v-60.116c0-0.301-0.244-0.545-0.547-0.545h-1.162
					c-0.303,0-0.546,0.244-0.546,0.545v60.116C233.647,262.315,233.891,262.56,234.193,262.56z"/>
				<path fill="#F1995B" d="M216.313,259.345c-0.621,0-1.127-0.506-1.127-1.128v-52.52c0-0.624,0.506-1.128,1.127-1.128
					c0.624,0,1.129,0.504,1.129,1.128v52.52C217.441,258.839,216.937,259.345,216.313,259.345z"/>
			</g>
			<path fill="#263762" d="M246.041,178.745h-34.364c-0.905,0-1.64-0.734-1.64-1.64v-3.495c0-0.904,0.734-1.64,1.64-1.64h34.364
				c0.905,0,1.639,0.735,1.639,1.64v3.495C247.68,178.011,246.946,178.745,246.041,178.745z"/>
		</g>
		
			<ellipse transform="matrix(-0.0395 -0.9992 0.9992 -0.0395 80.8507 416.127)" fill="#F2B897" cx="240.419" cy="169.206" rx="4.619" ry="5.177"/>
		
			<ellipse transform="matrix(-0.0395 -0.9992 0.9992 -0.0395 58.4134 394.6392)" fill="#F2B897" cx="218.874" cy="169.246" rx="3.693" ry="4.138"/>
	</g>
	<g>
		<g>
			<circle fill="#141C41" cx="119.363" cy="272.087" r="3.88"/>
			<g>
				<path fill="#B6C7FF" d="M124.014,269.131l-1.655,0.72c-3.299,1.432-7.134-0.081-8.567-3.38l-15.387-35.432
					c-1.435-3.3,0.079-7.135,3.378-8.567l1.657-0.719c6.108-2.653,13.211,0.148,15.865,6.256l10.967,25.258
					C132.926,259.375,130.123,266.477,124.014,269.131z"/>
				<path fill="#B6C7FF" d="M100.734,225.854l-0.154,0.08c-0.439,0.225-0.98,0.049-1.205-0.391l-15.086-29.511
					c-0.226-0.44-0.049-0.979,0.39-1.205l0.155-0.08c0.441-0.225,0.98-0.05,1.207,0.39l15.085,29.512
					C101.352,225.089,101.177,225.628,100.734,225.854z"/>
				
					<rect x="112.692" y="219.885" transform="matrix(0.9176 -0.3976 0.3976 0.9176 -88.3715 65.2296)" fill="#141C41" width="0.83" height="51.652"/>
				<path fill="#141C41" d="M115.604,249.793l-1.22,0.528c-0.532,0.232-1.153-0.012-1.386-0.545l-2.935-6.761
					c-0.233-0.535,0.013-1.154,0.547-1.387l1.218-0.529c0.533-0.231,1.154,0.012,1.385,0.547l2.938,6.761
					C116.381,248.94,116.137,249.562,115.604,249.793z"/>
			</g>
		</g>
		<g>
			<ellipse fill="#1A2542" cx="65.063" cy="148.416" rx="4.628" ry="4.313"/>
			<g>
				<path fill="#F2B897" d="M52.564,268.333c0,0-0.346,1.37,0,2.616c0.346,1.245,1.867,3.872,1.867,3.872l-4.01-1.521l-1.246-1.523
					l-0.025-3.444l2.931-0.98L52.564,268.333z"/>
				<path fill="#071023" d="M49.15,271.087c0,0-0.91-0.044-0.977,0.968c-0.026,0.362-0.002,0.708,0.138,0.976
					c0.14,0.27,0.396,0.46,0.839,0.512c0.889,0.104,2.527,1.591,2.641,2.04h4.162c0,0-1.107-1.417-1.729-1.417
					C53.603,274.165,51.1,274.684,49.15,271.087z"/>
				<polygon fill="#071023" points="48.414,275.582 48.432,273.211 49.238,273.211 49.238,275.582 				"/>
			</g>
			<g>
				<path fill="#F2B897" d="M69.622,268.252c0,0-0.183,1.451,0.163,2.697c0.344,1.245,1.865,3.872,1.865,3.872l-4.011-1.521
					l-1.244-1.523l-0.023-3.444l2.929-0.98L69.622,268.252z"/>
				<path fill="#071023" d="M66.372,271.087c0,0-0.911-0.044-0.979,0.968c-0.025,0.362-0.002,0.708,0.139,0.976
					c0.14,0.27,0.396,0.46,0.841,0.512c0.888,0.104,2.524,1.591,2.64,2.04h4.16c0,0-1.105-1.417-1.728-1.417
					S68.318,274.684,66.372,271.087z"/>
				<polygon fill="#071023" points="65.634,275.582 65.652,273.211 66.459,273.211 66.459,275.582 				"/>
			</g>
			<g>
				<ellipse fill="#1A2542" cx="57.604" cy="120.179" rx="6.44" ry="7.272"/>
				<circle fill="#1A2542" cx="66.165" cy="119.602" r="6.059"/>
				
					<ellipse transform="matrix(-0.963 -0.2694 0.2694 -0.963 69.3076 255.6143)" fill="#1A2542" cx="52.19" cy="123.052" rx="4.628" ry="4.927"/>
				<circle fill="#1A2542" cx="52.858" cy="139.03" r="5.663"/>
				<ellipse fill="#1A2542" cx="50.98" cy="134.073" rx="6.61" ry="9.775"/>
				<ellipse fill="#1A2542" cx="50.475" cy="144.293" rx="4.628" ry="4.313"/>
				<ellipse fill="#1A2542" cx="67.834" cy="146.217" rx="5.18" ry="6.235"/>
				<ellipse fill="#1A2542" cx="67.834" cy="139.03" rx="5.647" ry="5.261"/>
				<ellipse fill="#1A2542" cx="61.501" cy="142.249" rx="5.647" ry="5.261"/>
				
					<ellipse transform="matrix(-0.9646 0.2638 -0.2638 -0.9646 169.1711 234.3118)" fill="#1A2542" cx="68.856" cy="128.512" rx="5.193" ry="8.113"/>
			</g>
			<path fill="#1D2848" d="M67.896,182.512l1.818,86.294h-3.343c0,0-7.134-21.373-7.134-29.742c0-8.367,1.592-6.619,0.867-9.604
				c-1.896-7.803-7.756-48.331-7.756-48.331L67.896,182.512z"/>
			<path fill="#263762" d="M64.746,182.199l-11.978,86.502h-3.873c0,0-3.76-21.509-3.022-28.608c0.738-7.1,4.932-9.725,5.023-11.845
				c0.094-2.121-6.525-27.796-3.318-38.937c1.752-6.086,4.771-8.183,4.771-8.183L64.746,182.199z"/>
			<path fill="#F2B897" d="M65.396,143.203c0,0,5.59,1.342,7.525,10.471c1.937,9.129,1.854,15.284,2.825,18.086
				c0.974,2.8,7.889,15.471,10.062,17.995c-1.66,2.836-3.27,2.992-3.27,2.992s-11.218-14.012-12.393-17.262
				c-1.177-3.25-4.002-17.039-4.349-20.844C65.453,150.838,65.396,143.203,65.396,143.203z"/>
			<linearGradient id="SVGID_13_" gradientUnits="userSpaceOnUse" x1="70.127" y1="142.5103" x2="70.127" y2="182.796">
				<stop  offset="0" style="stop-color:#CD75FF"/>
				<stop  offset="1" style="stop-color:#714AD4"/>
			</linearGradient>
			<path fill="url(#SVGID_13_)" d="M74.858,166.536c-0.364-3.227-0.806-7.534-1.937-12.862c-1.936-9.129-7.525-10.471-7.525-10.471
				s0.057,7.635,0.402,11.438c0.215,2.369,1.393,8.607,2.533,13.766C69.59,168.666,72.943,169.071,74.858,166.536z"/>
			<g>
				<path fill="#FFFFFF" d="M74.953,167.352c-0.031-0.263-0.063-0.537-0.095-0.816c-1.263,1.672-3.149,2.065-4.648,2.065
					c-0.775,0-1.449-0.105-1.878-0.193c0.049,0.215,0.096,0.429,0.143,0.641c0.45,0.079,1.049,0.157,1.735,0.157
					C72.193,169.205,73.814,168.565,74.953,167.352z"/>
			</g>
			<linearGradient id="SVGID_14_" gradientUnits="userSpaceOnUse" x1="61.2607" y1="142.5107" x2="61.2607" y2="182.7959">
				<stop  offset="0" style="stop-color:#CD75FF"/>
				<stop  offset="1" style="stop-color:#714AD4"/>
			</linearGradient>
			<path fill="url(#SVGID_14_)" d="M58.861,142.125c8.045-0.484,12.908,4.519,13.186,13.001c0,4.796-3.136,5.9-3.136,5.9
				l-1.015,21.485c0,0-2.949,0.83-7.1,0.83c-4.149,0-8.447-2.213-8.447-2.213s1.545-3.688,1.82-7.838
				c0.277-4.149-2.317-14.107-2.964-16.966C50.561,153.467,47.979,142.217,58.861,142.125z"/>
			<path fill="#F2B897" d="M57.982,134.472l-1.215,7.832c0,0,6.957,9.157,8.133,10.194c0.496-4.495-0.279-8.66-0.487-9.69
				c-0.205-1.028-0.136-10.987-0.136-10.987L57.982,134.472z"/>
			<path opacity="0.5" d="M64.283,139.097c-0.02-1.869-0.018-4.028-0.014-5.508l-4.859,1.022l-1.541,0.601l-0.447,2.889
				C58.361,138.683,61.104,140.083,64.283,139.097z"/>
			<path fill="#F2B897" d="M61.979,138.234c3.647,0,6.606-2.958,6.606-6.605v-11.479H54.464v10.569
				C54.464,134.87,57.83,138.234,61.979,138.234z"/>
			<path fill="#1A2542" d="M64.033,125.926c0.947-0.397,1.861-0.87,2.723-1.438c-0.143,0.094,1.096,1.579,1.223,1.704
				c0.508,0.505,1.125,0.976,1.789,1.255c0.904,0.382,1.248-0.706,1.326-1.448c0.196-1.852-0.504-3.846-1.112-5.565
				c-0.41-1.162-0.868-2.316-1.396-3.431l-14.869,0.691c0,0,0.788,13.066,0.839,12.91c0.46-1.43,5.149-3.348,5.691-3.476
				C61.537,126.824,62.813,126.438,64.033,125.926z"/>
			<circle fill="#F2B897" cx="54.323" cy="131.325" r="2.133"/>
			<path fill="#FFFFFF" d="M64.686,151.884c-1.684-1.826-6.703-8.15-7.844-9.59c-0.209,0.034-0.414,0.073-0.611,0.117
				c0.677,0.856,7.34,9.284,8.487,10.295c0.051,0.045,0.114,0.068,0.183,0.068c0.033,0,0.066-0.007,0.1-0.018
				c0.096-0.038,0.164-0.125,0.174-0.228c0.467-4.221,0.068-8.082-0.148-9.473c-0.198-0.083-0.396-0.167-0.6-0.238
				C64.586,143.667,65.08,147.58,64.686,151.884z"/>
			<g>
				<path fill="#F2B897" d="M54.24,143.127c0,0,2.838,6.084,2.676,12.746c-0.164,6.663-3.049,14.229-3.078,16.333
					c-0.025,2.104,1.188,20.854,1.188,20.854l-3.573,1.619c0,0-3.701-19.896-3.624-23.006c0.076-3.109-0.455-18.154,1.655-23.72
					C50.398,145.539,52.242,144.223,54.24,143.127z"/>
				
					<ellipse transform="matrix(-0.0388 -0.9992 0.9992 -0.0388 -139.3429 255.9158)" fill="#F2B897" cx="53.418" cy="194.979" rx="3.778" ry="3.636"/>
			</g>
			
				<ellipse transform="matrix(-0.0388 -0.9992 0.9992 -0.0388 -103.5694 284.2652)" fill="#F2B897" cx="84.939" cy="191.947" rx="3.778" ry="3.638"/>
			<linearGradient id="SVGID_15_" gradientUnits="userSpaceOnUse" x1="52.3711" y1="142.5107" x2="52.3711" y2="182.7969">
				<stop  offset="0" style="stop-color:#CD75FF"/>
				<stop  offset="1" style="stop-color:#714AD4"/>
			</linearGradient>
			<path fill="url(#SVGID_15_)" d="M54.24,143.127c-1.998,1.096-3.842,2.412-4.757,4.826c-1.585,4.179-1.681,13.699-1.661,19.501
				c0,0.002,2.578,2.629,6.932,0.521c0.869-3.325,2.059-7.893,2.162-12.103C57.078,149.211,54.24,143.127,54.24,143.127z"/>
			<g>
				<path fill="#FFFFFF" d="M51.471,168.795c-2.334,0-3.648-1.339-3.648-1.339c0,0.267,0.002,0.529,0.002,0.78
					c0.61,0.45,1.852,1.162,3.646,1.162c1.002,0,2.041-0.239,3.092-0.685c0.062-0.239,0.125-0.484,0.191-0.738
					C53.507,168.579,52.408,168.795,51.471,168.795z"/>
			</g>
		</g>
	</g>
</g>
</svg>
