<?xml version="1.0" encoding="utf-8"?>
<!-- Generator: Adobe Illustrator 16.0.0, SVG Export Plug-In . SVG Version: 6.00 Build 0)  -->
<!DOCTYPE svg PUBLIC "-//W3C//DTD SVG 1.1//EN" "http://www.w3.org/Graphics/SVG/1.1/DTD/svg11.dtd">
<svg version="1.1" id="레이어_1" xmlns="http://www.w3.org/2000/svg" xmlns:xlink="http://www.w3.org/1999/xlink" x="0px"
	 y="0px" width="24px" height="24px" viewBox="36.166 0.787 24 24" enable-background="new 36.166 0.787 24 24"
	 xml:space="preserve">
<g>
	<path fill="#0770E3" d="M43.463,5.492c0.266,0.298,0.223,0.743-0.098,0.992c-0.323,0.251-0.836,0.744-1.264,1.363
		c-0.432,0.625-0.729,1.313-0.729,1.97c0,0.389-0.339,0.705-0.756,0.705c-0.416,0-0.755-0.315-0.755-0.705
		c0-1.034,0.456-1.99,0.97-2.733c0.517-0.748,1.134-1.347,1.567-1.684C42.72,5.152,43.195,5.193,43.463,5.492z"/>
	<path fill="#0770E3" d="M52.87,5.492c-0.266,0.298-0.224,0.743,0.097,0.992c0.323,0.251,0.836,0.744,1.264,1.363
		c0.432,0.625,0.729,1.313,0.729,1.97c0,0.389,0.338,0.705,0.756,0.705c0.417,0,0.755-0.315,0.755-0.705
		c0-1.034-0.457-1.99-0.97-2.733c-0.517-0.748-1.134-1.347-1.566-1.684C53.612,5.152,53.138,5.193,52.87,5.492z"/>
	<path fill="#0770E3" d="M48.166,5.994c-2.919,0-5.284,2.365-5.284,5.283v0.482c0,1.172-0.272,2.329-0.797,3.377l-0.375,0.75
		c-0.502,1.004,0.228,2.185,1.35,2.185h10.212c1.122,0,1.853-1.181,1.351-2.185l-0.375-0.75c-0.524-1.049-0.797-2.205-0.797-3.377
		v-0.482C53.45,8.359,51.085,5.994,48.166,5.994z"/>
	<path fill="#0770E3" d="M45.959,19.55c-0.199-0.365,0.153-0.725,0.57-0.725h3.275c0.416,0,0.771,0.359,0.57,0.725
		c-0.257,0.468-0.886,0.786-1.458,0.786h-1.51C46.836,20.336,46.215,20.018,45.959,19.55z"/>
</g>
</svg>
