<?xml version="1.0" encoding="utf-8"?>
<!-- Generator: Adobe Illustrator 16.0.0, SVG Export Plug-In . SVG Version: 6.00 Build 0)  -->
<!DOCTYPE svg PUBLIC "-//W3C//DTD SVG 1.1//EN" "http://www.w3.org/Graphics/SVG/1.1/DTD/svg11.dtd">
<svg version="1.1" id="레이어_1" xmlns="http://www.w3.org/2000/svg" xmlns:xlink="http://www.w3.org/1999/xlink" x="0px"
	 y="0px" width="24px" height="14px" viewBox="8.568 5.483 24 14" enable-background="new 8.568 5.483 24 14" xml:space="preserve">
<path fill="#0770E3" d="M30.807,13.412v0.853c0,0.853,0,2.133-0.854,2.133h-0.429c-0.235,0-0.422-0.19-0.454-0.425
	c-0.197-1.407-1.365-2.135-2.534-2.135s-2.338,0.712-2.533,2.135c-0.031,0.234-0.219,0.332-0.456,0.332H17.77
	c-0.345,0-0.617-0.189-0.688-0.527c-0.272-1.278-1.386-1.939-2.499-1.939c-1.161,0-2.32,0.7-2.529,2.097
	c-0.036,0.248-0.247,0.461-0.498,0.462h-0.024c-0.027,0.001-0.053,0.001-0.078-0.001c-0.841,0.001-1.062-1.386-1.119-2.119
	c-0.026-0.287,0.052-0.573,0.191-0.825l1.414-2.556c0.144-0.289,0.522-0.564,0.95-0.564h9.384c0.853,0,0.751-0.674,0.166-1.099
	c-0.48-0.348-0.877-0.605-1.36-0.79c-0.753-0.285-1.633-0.43-2.613-0.43c-0.854,0-1.778,0.11-2.753,0.33
	c-1.186,0.264-2.763,0.754-3.755,1.096c-0.245,0.083-0.502-0.059-0.59-0.322l-0.002-0.011c-0.088-0.271,0.036-0.569,0.284-0.667
	c0.778-0.309,2.23-0.834,3.856-1.199c1.031-0.229,1.981-0.322,2.834-0.322h0.085c1.145,0,2.165,0.153,2.986,0.463
	c1.168,0.444,2.839,1.912,3.454,2.477c0.157,0.144,0.358,0.227,0.572,0.246c0.719,0.062,2.493,0.296,4.085,1.173
	C30.379,11.703,30.807,12.556,30.807,13.412L30.807,13.412z M16.289,16.305c0.023,0.942-0.724,1.724-1.669,1.744
	c-0.943,0.022-1.724-0.726-1.746-1.669c-0.002-0.026-0.002-0.052,0-0.075c-0.021-0.944,0.726-1.727,1.669-1.747
	c0.943-0.02,1.724,0.727,1.745,1.669C16.291,16.255,16.291,16.278,16.289,16.305z M28.244,16.305
	c0.022,0.942-0.725,1.724-1.67,1.744c-0.942,0.022-1.724-0.726-1.745-1.669c-0.002-0.026-0.002-0.052,0-0.075
	c-0.021-0.944,0.726-1.727,1.67-1.747c0.941-0.02,1.724,0.727,1.745,1.669C28.245,16.255,28.245,16.278,28.244,16.305z"/>
</svg>
