<?xml version="1.0" encoding="utf-8"?>
<!-- Generator: Adobe Illustrator 16.0.0, SVG Export Plug-In . SVG Version: 6.00 Build 0)  -->
<!DOCTYPE svg PUBLIC "-//W3C//DTD SVG 1.1//EN" "http://www.w3.org/Graphics/SVG/1.1/DTD/svg11.dtd">
<svg version="1.1" id="레이어_1" xmlns="http://www.w3.org/2000/svg" xmlns:xlink="http://www.w3.org/1999/xlink" x="0px"
	 y="0px" width="150px" height="248px" viewBox="0 0 150 248" enable-background="new 0 0 150 248" xml:space="preserve">
<g>
	<path fill-rule="evenodd" clip-rule="evenodd" fill="#7C1D31" d="M46.111,189.288c0,0,2.868-3.026,5.392-3.375
		c2.409-0.349,41.759,9.544,48.986,11.058c7.113,1.513,8.833,2.328,10.669,3.026c1.835,0.699,3.441,2.561,3.212,3.725
		c-0.229,1.28-10.095,9.195-10.095,9.195l-27.075-2.095l-26.845-13.269"/>
	<path fill-rule="evenodd" clip-rule="evenodd" fill="#96694B" d="M63.815,123.87H52.307c0,0-4.604-9.725-4.833-10.651
		c-0.23-0.926,6.214-8.567,5.754-17.714c-0.345-9.146-1.726-8.452-5.754-8.567c-4.028-0.232-10.588,9.609-16.112,15.05
		c-5.524,5.441-4.833,16.44-4.603,19.45c0.23,3.01,3.222,14.819,4.373,18.292c1.381,4.284,18.068,34.501,18.644,40.869
		c0.575,6.368,1.036,7.178,0.46,9.03c-0.575,1.853,0.115,7.757,0.115,7.757s6.56,6.367,19.91,4.631
		c13.35-1.737,26.7,5.441,30.958,4.862c4.258-0.579,23.938-32.301,24.283-40.868c0.346-8.567-2.992-11.23,0-14.356
		c2.992-3.01,25.204-29.87,7.826-35.659c0,0,6.675-8.915,1.496-18.176c-5.179-9.262-17.493-1.853-17.493-1.853
		s7.826-4.979,7.826-13.198c0-8.22-10.933-6.947-10.933-6.947s12.774-12.503,12.199-21.071s-4.258-8.567-17.378,2.315"/>
	<path fill-rule="evenodd" clip-rule="evenodd" fill="#6E462D" d="M115.359,136.035c0,0,3.089-0.461,7.551-2.43
		c4.346-2.081,5.948-4.049,7.778-4.627c1.83-0.463,3.317,0.694,3.775,2.892c0.458,2.198,0.114,6.71-1.373,9.024
		c-1.487,2.314-7.665,14.347-14.986,15.965c-7.321,1.62-11.325,1.735-12.469,1.967c-1.144,0.347-8.694,9.024-9.036,9.719
		c-0.344,0.693-1.603-2.314-1.259-5.785c0.343-3.471-19.676-0.464-24.71-2.892c-5.033-2.431-8.122-4.049-8.008-8.909"/>
	<path fill-rule="evenodd" clip-rule="evenodd" fill="#444560" d="M123.563,144.981l-52.474,11.496
		c-3.437,0.814-6.989-1.508-7.676-4.992l-2.292-10.684L40.269,43.266c-0.802-3.483,1.49-7.083,4.927-7.779l52.474-11.495
		c3.437-0.813,6.989,1.509,7.676,4.993l23.144,108.218C129.292,140.686,127,144.285,123.563,144.981"/>
	<path fill-rule="evenodd" clip-rule="evenodd" fill="#323449" d="M128.488,136.598l-19.645-91.009
		c-2.658,13.564-7.858,34.781-16.872,54.607c-10.862,23.882-23.458,42.199-29.352,50.199l0.116,0.348
		c0.809,3.478,4.275,5.797,7.742,4.985l52.928-11.477C126.986,143.671,129.297,140.076,128.488,136.598"/>
	<path fill-rule="evenodd" clip-rule="evenodd" fill="#0770E3" d="M112.861,134.875l-36.583,7.964
		c-6.631,1.5-13.376-2.886-14.748-9.579L44.152,52.23c-1.486-6.695,2.858-13.505,9.489-14.89l36.583-7.964
		c6.631-1.5,13.376,2.886,14.748,9.581l17.377,81.029C123.836,126.679,119.606,133.374,112.861,134.875"/>
	<path fill-rule="evenodd" clip-rule="evenodd" fill="#FFFFFF" d="M103.34,98.554c2.08-0.462,2.772-3.006,1.156-4.394l-5.779-3.123
		l-4.507-14.57c-2.081-6.707-6.357-10.176-12.483-10.408c0.116-0.462,0.116-0.925,0-1.387c-0.462-2.313-2.774-3.701-4.97-3.238
		c-2.312,0.462-3.699,2.775-3.236,4.972c0.116,0.462,0.347,0.925,0.578,1.272c-5.432,2.66-7.975,7.632-7.05,14.686l1.965,15.148
		l-3.93,5.204c-0.809,1.966,0.809,4.047,2.89,3.584L103.34,98.554z"/>
	<path fill-rule="evenodd" clip-rule="evenodd" fill="#FFFFFF" d="M79.877,107.216c1.739,2.641,4.868,4.249,8.229,3.445
		c3.244-0.689,5.68-3.445,6.027-6.545L79.877,107.216z"/>
	<path fill-rule="evenodd" clip-rule="evenodd" fill="#96694B" d="M132.986,115.371c0,0-10.871,3.256-19.453,11.747
		c-2.517,2.442,2.061,18.61,19.453,1.511C132.986,128.629,135.047,119.325,132.986,115.371"/>
	<path fill-rule="evenodd" clip-rule="evenodd" fill="#96694B" d="M126.773,112.198c-2.523,1.624-12.506,4.291-17.9,4.638
		c-5.393,0.464-10.097-3.71-6.999-10.204c2.982-6.493,17.325-12.523,17.325-12.523s5.508-1.855,6.885-1.043
		C127.232,93.994,132.51,108.372,126.773,112.198"/>
	<path fill-rule="evenodd" clip-rule="evenodd" fill="#96694B" d="M121.458,92.29c-6.765-0.825-14.563,4.948-22.018,5.773
		c-7.454,0.825-12.271-8.718-8.487-11.31c3.784-2.71,12.501-12.017,16.744-11.899c4.243,0.118,11.011,0,11.011,0
		s5.618,0.471,6.191,5.066"/>
	<path fill-rule="evenodd" clip-rule="evenodd" fill="#6E462D" d="M91.132,94.722c0,0,5.051,1.581,9.53,0.564
		c4.478-1.016,9.874-6.322,15.615-7.338s7.12,0.564,7.12,0.564s-1.379,3.951-4.478,6.209l-0.574-2.597c0,0-5.282,1.129-11.023,3.5
		C101.581,97.996,96.184,100.141,91.132,94.722"/>
	<path fill-rule="evenodd" clip-rule="evenodd" fill="#6E462D" d="M103.138,116.205c0,0,12.11-1.184,16.653-2.958
		c4.541-1.775,7.451-4.852,10.48-4.615c3.026,0.236,4.773,4.733,4.308,5.443l-1.165,1.894l-8.85,3.905l-1.164-4.852
		c0,0-5.822,1.894-12.46,2.604C105.002,118.453,103.138,116.205,103.138,116.205"/>
	<path fill-rule="evenodd" clip-rule="evenodd" fill="#6E462D" d="M51.526,98.113c0,0-3.444,6.565-5.166,8.324
		c-1.722,1.759-3.1,4.221-4.362,5.628c-1.263,1.407-3.33,2.813-2.411,3.4c0.918,0.703,4.248-0.586,6.314,5.275
		c2.066,5.862,5.625,10.903,8.38,13.834c2.755,2.931,6.199,5.979,6.084,5.51c-0.115-0.469-3.329-16.648-3.329-16.648
		s-1.493,1.641-4.018-1.407c-2.525-3.048-4.822-5.51-5.051-7.972c-0.229-2.462,4.248-7.972,4.362-11.958"/>
	<path fill-rule="evenodd" clip-rule="evenodd" fill="#6E462D" d="M82.128,200.107c0,0,1.664-0.725,4.278-3.497
		c2.614-2.894,4.991-8.08,5.823-8.44c0.951-0.362-0.119,5.426,0.951,9.525c1.069,4.098,1.901,5.064,1.664,5.425
		c-0.238,0.481-4.991-3.496-6.892-3.979C86.168,198.78,84.029,200.951,82.128,200.107"/>
	<path fill-rule="evenodd" clip-rule="evenodd" fill="#6E462D" d="M112.142,59.845c0,0,1.468,4.404,4.631,5.216
		c3.275,0.811,5.874-0.348,5.874-0.348s-1.694,3.245-7.455,9.388"/>
	<path fill-rule="evenodd" clip-rule="evenodd" fill="#BE8764" d="M91.132,85.16c0,0,1.437,1.813,2.273,3.286
		c0.959,1.473,2.156,2.266,3.233,2.153c1.078-0.113,5.028-1.699,6.106-3.172c1.077-1.473-0.24-4.759-1.796-5.665
		c-1.558-0.906-4.07-1.133-4.669-0.68S91.132,85.16,91.132,85.16"/>
	<path fill-rule="evenodd" clip-rule="evenodd" fill="#BE8764" d="M105.361,102.851c0,0-2.952,2.368-3.632,4.285
		c-0.682,1.917,2.611,5.863,4.653,5.976c2.043,0.112,3.066-0.902,4.655-1.466c1.588-0.564,2.952-3.157,0.568-6.202
		C109.334,102.287,106.722,102.399,105.361,102.851"/>
	<path fill-rule="evenodd" clip-rule="evenodd" fill="#BE8764" d="M113.643,126.915c0,0,3.583,0.436,4.738,1.418
		c1.039,0.982,3.119,1.527,4.043,1.2c0.809-0.326,2.425-3.817,1.386-5.345c-1.041-1.527-2.773-1.527-5.546-0.981
		C115.375,123.86,113.643,126.915,113.643,126.915"/>
	<path fill-rule="evenodd" clip-rule="evenodd" fill="#D1435B" d="M47.265,190.188c0,0-0.802,3.596,10.434,6.38
		c11.236,2.783,31.071,1.276,40.244,5.451c9.172,4.061,11.924,4.061,14.102,3.018c2.179-1.045-1.261-4.64-1.261-4.64
		s3.21,1.043,4.013,2.203c0.803,1.277,2.293,3.712,1.72,6.613c-0.573,2.9-4.586,8.12-5.847,11.369
		c-1.261,3.25,1.146,6.38-2.064,8.238c-3.21,1.855-13.644,4.408-23.504,3.363c-9.86-1.042-17.083-9.86-28.549-10.671
		c-11.465-0.812-13.071-5.104-13.415-7.192c-0.344-2.088,2.637-10.558,2.408-13.806c-0.229-3.247-1.376-8.583-0.115-10.673
		c1.261-2.088,2.867-2.435,3.21-2.435S47.036,189.259,47.265,190.188"/>
	<path fill-rule="evenodd" clip-rule="evenodd" fill="#BC2A4A" d="M114.803,202.626c-0.799-1.266-3.999-2.185-3.999-2.185
		s3.313,3.682,1.258,4.603c-2.057,0.919-4.913,1.034-14.054-2.993c-7.427-3.335-21.938-2.876-33.137-4.142
		c0.915,2.532,2.285,4.947,4.456,6.559c6.171,4.716,9.141,3.452,11.541,10.01c2.399,6.557,4.343,12.54,8,16.107
		c0.685,0.575,1.256,1.265,1.827,1.84c7.999-0.114,15.313-2.07,17.94-3.565c3.198-1.842,0.913-4.949,2.056-8.17
		c1.257-3.222,5.256-8.513,5.827-11.275C117.088,206.424,115.603,203.893,114.803,202.626"/>
	<path fill-rule="evenodd" clip-rule="evenodd" fill="#FFFFFF" d="M48.838,59.651L45.383,43.63c-0.115-0.589,0.23-1.178,0.806-1.296
		l27.873-6.479c1.267-0.236,1.843,1.531,0.691,2.12c-8.293,4.241-18.774,11.427-23.957,22.029
		C50.336,60.947,48.954,60.712,48.838,59.651"/>
	<path fill-rule="evenodd" clip-rule="evenodd" fill="#FDBD6D" d="M17.392,46.58c-2.094-0.457-4.188-0.914-6.282-1.371
		c-0.931-0.114-1.164-0.571-0.931-1.371c0.232-1.028,0.465-2.17,0.698-3.312c0.117-0.799,0.465-1.028,1.28-0.914
		c4.188,0.914,8.493,1.827,12.681,2.741c1.861,0.457,2.792,1.828,2.443,3.312c-0.349,1.599-1.861,2.513-3.723,2.056
		C21.463,47.494,19.486,47.037,17.392,46.58"/>
	<path fill-rule="evenodd" clip-rule="evenodd" fill="#FDBD6D" d="M31.075,61.433c2.206,0.467,3.019,2.917,1.509,4.667
		c-2.206,2.567-4.528,5.017-6.734,7.467c-0.697,0.816-1.394,1.517-2.09,2.333c-0.465,0.583-0.929,0.583-1.51,0.117
		c-0.929-0.817-1.858-1.633-2.787-2.566c-0.464-0.467-0.464-0.817-0.116-1.284c3.019-3.383,6.038-6.766,9.173-10.033
		C29.217,61.433,30.146,61.2,31.075,61.433"/>
	<path fill-rule="evenodd" clip-rule="evenodd" fill="#FDBD6D" d="M37.582,32.041c-1.274-0.224-1.97-0.897-2.317-1.907
		c-1.39-4.04-2.665-8.079-4.055-12.119c-0.232-0.673-0.116-1.122,0.695-1.347c1.159-0.336,2.317-0.673,3.476-1.01
		c0.695-0.225,1.042,0,1.274,0.673c1.39,4.151,2.78,8.191,4.055,12.343C41.405,30.583,39.551,32.378,37.582,32.041"/>
	<path fill-rule="evenodd" clip-rule="evenodd" fill="#FDBD6D" d="M25.221,52.342c1.228,0.468,2.01,1.405,2.122,2.692
		c0.111,1.288-0.67,2.458-1.898,2.927c-2.121,0.702-4.243,1.405-6.364,2.107c-1.898,0.585-3.796,1.288-5.583,1.873
		c-0.894,0.352-1.34,0.117-1.563-0.819c-0.223-1.054-0.67-2.224-1.005-3.278c-0.223-0.703,0-1.054,0.67-1.288
		c4.02-1.288,8.039-2.693,12.059-3.98C24.216,52.458,24.663,52.458,25.221,52.342"/>
	<path fill-rule="evenodd" clip-rule="evenodd" fill="#FDBD6D" d="M31.078,35.585c-0.441,2.435-2.871,3.247-4.526,1.739
		c-2.319-2.087-4.527-4.291-6.846-6.494c-0.772-0.812-1.656-1.624-2.429-2.319c-0.552-0.464-0.552-0.928-0.11-1.507
		c0.773-0.928,1.545-1.855,2.429-2.783c0.442-0.58,0.883-0.464,1.325,0c3.091,3.015,6.183,5.914,9.274,8.929
		C30.967,33.846,31.188,34.773,31.078,35.585"/>
</g>
</svg>
