<?xml version="1.0" encoding="utf-8"?>
<!-- Generator: Adobe Illustrator 16.0.0, SVG Export Plug-In . SVG Version: 6.00 Build 0)  -->
<!DOCTYPE svg PUBLIC "-//W3C//DTD SVG 1.1//EN" "http://www.w3.org/Graphics/SVG/1.1/DTD/svg11.dtd">
<svg version="1.1" id="레이어_1" xmlns="http://www.w3.org/2000/svg" xmlns:xlink="http://www.w3.org/1999/xlink" x="0px"
	 y="0px" width="150px" height="150px" viewBox="0 0 150 150" enable-background="new 0 0 150 150" xml:space="preserve">
<g enable-background="new    ">
	<g>
		<defs>
			<rect id="SVGID_1_" x="18.25" y="13.993" width="113.5" height="122.014"/>
		</defs>
		<clipPath id="SVGID_2_">
			<use xlink:href="#SVGID_1_"  overflow="visible"/>
		</clipPath>
		<g clip-path="url(#SVGID_2_)">
			<defs>
				<rect id="SVGID_3_" x="17.307" y="13.046" width="115.39" height="123.908"/>
			</defs>
			<clipPath id="SVGID_4_">
				<use xlink:href="#SVGID_3_"  overflow="visible"/>
			</clipPath>
			<g opacity="0.149" clip-path="url(#SVGID_4_)" enable-background="new    ">
				<g>
					<defs>
						<rect id="SVGID_5_" x="30.546" y="126.549" width="83.234" height="9.458"/>
					</defs>
					<clipPath id="SVGID_6_">
						<use xlink:href="#SVGID_5_"  overflow="visible"/>
					</clipPath>
					<path clip-path="url(#SVGID_6_)" fill="#3A8089" d="M111.076,131.179c0,0.874-3.603,1.668-9.561,2.286
						c-1.793,0.183-3.448,0.758-5.269,0.818c-8.055,0.277-16.152,0.385-24.227,0.385c-8.009,0-16.002-0.188-23.996-0.745
						c-1.354-0.098-15.053-0.398-15.053-2.744c0-1.075,5.185-1.136,13.732-1.776c3.341-0.246,6.624-1.205,9.999-1.432
						c5.096-0.334,10.214-0.281,15.318-0.281c4.211,0,8.379,0.764,12.577,0.918c2.556,0.094,7.182-0.45,9.437-0.31
						C95.534,128.387,111.076,128.718,111.076,131.179z"/>
				</g>
			</g>
			<path clip-path="url(#SVGID_4_)" fill="#73CEC6" d="M81.995,50.779l-0.931-2.406l-1.67-0.61c0,0-1.717,0.951-1.586,1.632
				c0.139,0.681,0.574,3.589,0.574,3.589c0.162,0.603,0.228,1.228,0.188,1.849c-0.058,1.08,1.724,1.59,2.133,1.376
				c0.408-0.213,1.427-0.45,1.716-0.95c0.293-0.502,1.063-1.807,0.739-2.088c-0.354-0.289-0.65-0.639-0.877-1.033
				C82.157,51.691,82.06,51.236,81.995,50.779z"/>
			<path clip-path="url(#SVGID_4_)" fill="#73CEC6" d="M76.695,51.688c0,0-1.916-0.504-2.282-0.196
				c-0.362,0.308-1.124,0.146-1.085,1.122c0.046,0.974,0.339,1.451,0.646,1.732c0.308,0.28,2.001,0.598,2.001,0.598l1.277-1.129
				L76.695,51.688z"/>
			<path clip-path="url(#SVGID_4_)" fill="#73CEC6" d="M67.678,36.468c0,0-3.433-0.274-3.833,0.059
				c-0.4,0.335-2.14,3.145-2.14,3.145s-0.531,2.028,0.039,3.16c0.569,1.131,3.544,2.904,3.733,2.476
				c0.192-0.427,1.216-0.581,2.517-1.69c1.297-1.107,1.593-1.439,2.394-2.002c0.808-0.564,2.859-0.964,3.028-1.813
				c0.173-0.846,0.451-1.599-0.423-2.509C72.119,36.381,67.678,36.468,67.678,36.468z"/>
			<path clip-path="url(#SVGID_4_)" fill="#6D9FEB" d="M75.275,114.779c26.875-0.615,48.178-22.103,47.585-47.994
				c-0.593-25.89-22.854-46.382-49.726-45.766C46.264,21.633,24.958,43.12,25.55,69.011
				C26.143,94.903,48.404,115.394,75.275,114.779z"/>
		</g>
		<g clip-path="url(#SVGID_2_)">
			<defs>
				<rect id="SVGID_7_" x="24.735" y="20.239" width="100.542" height="94.629"/>
			</defs>
			<clipPath id="SVGID_8_">
				<use xlink:href="#SVGID_7_"  overflow="visible"/>
			</clipPath>
			<g clip-path="url(#SVGID_8_)" enable-background="new    ">
				<g>
					<defs>
						<rect id="SVGID_9_" x="23.927" y="19.668" width="102.15" height="95.531"/>
					</defs>
					<clipPath id="SVGID_10_">
						<use xlink:href="#SVGID_9_"  overflow="visible"/>
					</clipPath>
					<defs>
						<filter id="Adobe_OpacityMaskFilter" filterUnits="userSpaceOnUse" x="21.433" y="19.668" width="108.613" height="95.531">
							
								<feColorMatrix  type="matrix" values="-1 0 0 0 1  0 -1 0 0 1  0 0 -1 0 1  0 0 0 1 0" color-interpolation-filters="sRGB" result="source"/>
							<feFlood  style="flood-color:white;flood-opacity:1" result="back"/>
							<feBlend  in="source" in2="back" mode="normal"/>
						</filter>
					</defs>
					<mask maskUnits="userSpaceOnUse" x="21.433" y="19.668" width="108.613" height="95.531" id="SVGID_11_">
						<g filter="url(#Adobe_OpacityMaskFilter)">
							<rect x="23.927" y="19.67" clip-path="url(#SVGID_10_)" width="102.15" height="95.531"/>
						</g>
					</mask>
					<g clip-path="url(#SVGID_10_)" mask="url(#SVGID_11_)" enable-background="new    ">
						<g>
							<defs>
								<rect id="SVGID_12_" x="23.927" y="19.668" width="102.15" height="95.531"/>
							</defs>
							<clipPath id="SVGID_13_">
								<use xlink:href="#SVGID_12_"  overflow="visible"/>
							</clipPath>
							<path clip-path="url(#SVGID_13_)" fill="#73CEC6" d="M80.424,58.135l-4.191-0.35c-0.219-0.018-0.435,0.019-0.635,0.104
								c-0.199,0.085-0.377,0.215-0.519,0.383l-1.097,1.308c-0.197,0.227-0.324,0.508-0.362,0.806l-0.107,0.792
								c-0.043,0.287-0.008,0.58,0.104,0.847l0.335,0.858c0.107,0.287,0.308,0.532,0.565,0.697c0.259,0.167,0.566,0.246,0.87,0.225
								l0.889-0.081c0.27-0.023,0.539,0.036,0.778,0.171c0.361,0.204,0.815,0.556,0.773,1.001c-0.03,1.651,0.042,3.302,0.219,4.943
								c0.158,1.257,1.501,3.52,2.024,3.599c0.52,0.081,3.522,0.06,4.021-0.379c0.501-0.441,3.672-1.106,3.961-1.75v-0.021
								c0.088-0.211,0.231-0.398,0.408-0.543c0.181-0.142,0.392-0.238,0.624-0.276c0.223-0.039,0.458-0.021,0.677,0.054
								c0.216,0.077,0.412,0.204,0.57,0.375c0.9,0.962,2.002,2.107,2.244,2.216c0.423,0.195,2.875-0.648,3.183-0.667
								c0.309-0.019,4.134-0.178,4.376,0.55c0.239,0.727,3.006,0.081,2.921-1.813c-0.085-1.892,0.199-2.429,0.045-3.687
								c-0.023-0.156-0.03-0.313-0.023-0.47c0.007-0.202,0.054-0.401,0.139-0.583c0.084-0.183,0.208-0.346,0.362-0.479
								s0.33-0.231,0.527-0.291c0.192-0.06,0.396-0.077,0.596-0.052c1.101,0.171,2.787,0.421,3.203,0.404
								c0.515-0.019,1.532,2.954,1.847,3.929c0.065,0.202,0.169,0.387,0.309,0.547c0.669,0.758,2.647,3.062,2.748,3.339
								c0.1,0.277,2.463,0.244,3.753,0.234c0.25-0.005,0.496-0.077,0.712-0.209c0.215-0.133,0.389-0.321,0.504-0.544l1.739-3.216
								c0.165-0.306,0.227-0.656,0.18-1c-0.169-1.266-0.584-4.397-0.685-4.814c-0.1-0.418-0.146-3.716-0.169-5.379
								c-0.008-0.275,0.061-0.544,0.192-0.787c0.131-0.241,0.328-0.44,0.562-0.581l7.748-4.42c0.054-0.026,0.104-0.052,0.158-0.077
								l1.624-0.668c0.192-0.086,0.361-0.211,0.508-0.366c0.138-0.156,0.247-0.336,0.319-0.535c0.073-0.198,0.104-0.408,0.088-0.618
								c-0.007-0.209-0.062-0.415-0.154-0.604c-2.078-4.434-8.698-17.375-17.912-23.571c-0.216-0.144-0.47-0.223-0.728-0.231
								l-6.466-0.16c-0.281-0.003-0.551,0.078-0.789,0.231c-0.23,0.154-0.415,0.373-0.523,0.629
								c-0.615,1.38-1.759,3.902-1.978,4.064l-2.671,1.986c-0.143,0.106-0.304,0.183-0.477,0.224
								c-0.592,0.146-2.001,0.444-2.001,0.03c0-0.365-0.985-1.002-1.582-1.335c-0.281-0.171-0.619-0.23-0.942-0.167
								c-1.266,0.245-4.626,0.903-4.95,1.089c-0.408,0.225-4.341,4.609-4.529,5.34c-0.112,0.462-0.147,2.502-0.158,3.983
								c-0.012,0.2,0.019,0.4,0.092,0.589c0.069,0.188,0.178,0.36,0.316,0.506c0.135,0.146,0.3,0.264,0.485,0.343
								c0.185,0.081,0.384,0.124,0.584,0.125c2.109-0.075,5.738-0.221,5.95-0.377c0.708-0.508,1.377-1.066,2.005-1.67
								c0.335-0.36,1.667-1.087,2.552-1.542c0.23-0.121,0.496-0.171,0.754-0.144c0.262,0.026,0.508,0.131,0.711,0.298l2.783,2.2
								c0.247,0.202,0.423,0.469,0.517,0.773c0.092,0.304,0.092,0.628,0.003,0.932l-0.612,2.12
								c-0.046,0.159-0.119,0.311-0.208,0.447l-1.7,2.494c-0.185,0.285-0.47,0.493-0.801,0.581l-1.724,0.461
								c-0.084,0.023-0.176,0.035-0.269,0.039l-6.893,0.384c-0.335,0.026-0.651,0.166-0.893,0.395
								c-0.242,0.23-0.396,0.539-0.442,0.87c-0.204,1.276-0.508,3.206-0.616,3.889c-0.146,0.978-3.671,1.744-4.198,1.857
								l-0.135,0.02l-1.774,0.171C80.586,58.137,80.509,58.141,80.424,58.135z"/>
							<path clip-path="url(#SVGID_13_)" fill="#73CEC6" d="M55.378,32.359l-0.758-0.704c0,0-2.529,1.372-2.821,1.805
								c-0.285,0.435-1.732,0.601-2.356,0.627c-0.62,0.027-1.928-1.497-2.494-2.632c-0.569-1.136-0.393-1.774-1.74-1.824
								c-1.346-0.05-0.834-0.173-2.066,0.09c-1.235,0.264-1.005,0.779-2.066,0.086c-1.067-0.691-1.394-1-2.687-2.201
								c-0.954-0.96-1.797-2.019-2.524-3.16c0,0-15.687,13.312-14.352,35.804l2.829,7.678c0,0,1.748-0.287,1.582-1.649
								c-0.166-1.362-0.32-2.513,0.073-3.058c0.393-0.544,3.225-2.034,3.225-2.034l2.04-0.722c0,0,3.209,0.075,3.926-0.166
								c0.716-0.24,2.255-0.517,2.529-1.372c0.273-0.854,1.097-3.208,1.512-3.225c0.416-0.018,6.343,0.571,6.343,0.571
								s7.543,1.89,7.297-1.258c-0.242-3.148,0.254-3.699-0.454-5.675c-0.708-1.976,1.909-5.979,1.909-5.979l3.503-5.102
								c0,0,0.415-2.336-0.019-2.74C57.372,35.117,55.239,31.538,55.378,32.359z"/>
							<path clip-path="url(#SVGID_13_)" fill="#73CEC6" d="M24.558,73.229c0,0-0.716,0.224-0.747,1.79
								c-0.035,1.565,0.724,18.729,28.518,36.012c0,0,0.67-1.396,0.539-1.878c-0.131-0.485,0.158-3.526-1.131-4.644
								c-1.293-1.12-2.236-1.272-3.733-2.38c-1.501-1.109-2.225-1.08-2.278-2.338c-0.062-1.258,0.57-3.541,1.254-4.339
								c0.689-0.797,5.727-3.958,5.727-3.958s1.741-2.908,1.594-3.78c-0.143-0.872,0-2.64-0.154-3.512
								c-0.159-0.872-0.771-5.734-1.621-6.187c-0.851-0.45-3.368-5.817-4.676-5.371c-1.309,0.448-5.403,1.894-6.635,2.144
								c-1.232,0.25-5.03,1-6.374,1.054c-1.347,0.054-6.442-0.41-6.442-0.41L24.558,73.229z"/>
							<path clip-path="url(#SVGID_13_)" fill="#73CEC6" d="M91.81,79.74c-0.971-0.908-4.434-1.92-4.434-1.92l-4.557,2.303
								c0,0,1.024,2.063,0.023,2.842c-1,0.777-0.446,1.705-3.583,1c-3.137-0.704-2.771-1.78-5.611-0.394
								c-2.84,1.385-3.907,0.587-5.192,4.339c-1.282,3.752-1.894,4.087-2.051,7.464c-0.162,3.379,4.868,11.685,5.106,12.421
								c0.239,0.739,7.394,0.939,7.394,0.939s5.797-0.142,6.2-0.37c0.404-0.227,5.489-0.025,4.7,0.957
								c-0.79,0.981-2.591,4.534-2.591,4.534l4.98,0.21c0,0,19.252-2.613,27.268-13.278c0,0-4.699-5.488-5.138-6.209
								c-0.446-0.722-4.326-4.03-5.676-4.077c-1.351-0.047-6.504-4.254-7.155-4.856c-0.65-0.604-1.624-3.933-1.624-3.933
								L91.81,79.74z"/>
						</g>
					</g>
					<defs>
						
							<filter id="Adobe_OpacityMaskFilter_1_" filterUnits="userSpaceOnUse" x="21.433" y="19.668" width="108.613" height="95.531">
							<feColorMatrix  type="matrix" values="1 0 0 0 0  0 1 0 0 0  0 0 1 0 0  0 0 0 1 0"/>
						</filter>
					</defs>
					<mask maskUnits="userSpaceOnUse" x="21.433" y="19.668" width="108.613" height="95.531" id="SVGID_14_">
						<g filter="url(#Adobe_OpacityMaskFilter_1_)">
							<g enable-background="new    ">
								<g>
									<defs>
										<rect id="SVGID_15_" x="23.927" y="19.67" width="102.15" height="95.531"/>
									</defs>
									<clipPath id="SVGID_16_" clip-path="url(#SVGID_10_)">
										<use xlink:href="#SVGID_15_"  overflow="visible"/>
									</clipPath>
									<path clip-path="url(#SVGID_16_)" fill="#6D9FEB" d="M75.275,114.781c26.872-0.615,48.178-22.103,47.585-47.994
										c-0.593-25.892-22.854-46.382-49.726-45.766C46.26,21.634,24.958,43.122,25.55,69.014
										C26.143,94.903,48.404,115.396,75.275,114.781z"/>
								</g>
							</g>
						</g>
					</mask>
					<g clip-path="url(#SVGID_10_)" mask="url(#SVGID_14_)" enable-background="new    ">
						<g>
							<defs>
								<rect id="SVGID_17_" x="23.927" y="19.668" width="102.15" height="95.531"/>
							</defs>
							<clipPath id="SVGID_18_">
								<use xlink:href="#SVGID_17_"  overflow="visible"/>
							</clipPath>
							<path clip-path="url(#SVGID_18_)" fill="#73CEC6" d="M80.424,58.135l-4.191-0.35c-0.219-0.018-0.435,0.019-0.635,0.104
								c-0.199,0.085-0.377,0.215-0.519,0.383l-1.097,1.308c-0.197,0.227-0.324,0.508-0.362,0.806l-0.107,0.792
								c-0.043,0.287-0.008,0.58,0.104,0.847l0.335,0.858c0.107,0.287,0.308,0.532,0.565,0.697c0.259,0.167,0.566,0.246,0.87,0.225
								l0.889-0.081c0.27-0.023,0.539,0.036,0.778,0.171c0.361,0.204,0.815,0.556,0.773,1.001c-0.03,1.651,0.042,3.302,0.219,4.943
								c0.158,1.257,1.501,3.52,2.024,3.599c0.52,0.081,3.522,0.06,4.021-0.379c0.501-0.441,3.672-1.106,3.961-1.75v-0.021
								c0.088-0.211,0.231-0.398,0.408-0.543c0.181-0.142,0.392-0.238,0.624-0.276c0.223-0.039,0.458-0.021,0.677,0.054
								c0.216,0.077,0.412,0.204,0.57,0.375c0.9,0.962,2.002,2.107,2.244,2.216c0.423,0.195,2.875-0.648,3.183-0.667
								c0.309-0.019,4.134-0.178,4.376,0.55c0.239,0.727,3.006,0.081,2.921-1.813c-0.085-1.892,0.199-2.429,0.045-3.687
								c-0.023-0.156-0.03-0.313-0.023-0.47c0.007-0.202,0.054-0.401,0.139-0.583c0.084-0.183,0.208-0.346,0.362-0.479
								s0.33-0.231,0.527-0.291c0.192-0.06,0.396-0.077,0.596-0.052c1.101,0.171,2.787,0.421,3.203,0.404
								c0.515-0.019,1.532,2.954,1.847,3.929c0.065,0.202,0.169,0.387,0.309,0.547c0.669,0.758,2.647,3.062,2.748,3.339
								c0.1,0.277,2.463,0.244,3.753,0.234c0.25-0.005,0.496-0.077,0.712-0.209c0.215-0.133,0.389-0.321,0.504-0.544l1.739-3.216
								c0.165-0.306,0.227-0.656,0.18-1c-0.169-1.266-0.584-4.397-0.685-4.814c-0.1-0.418-0.146-3.716-0.169-5.379
								c-0.008-0.275,0.061-0.544,0.192-0.787c0.131-0.241,0.328-0.44,0.562-0.581l7.748-4.42c0.054-0.026,0.104-0.052,0.158-0.077
								l1.624-0.668c0.192-0.086,0.361-0.211,0.508-0.366c0.138-0.156,0.247-0.336,0.319-0.535c0.073-0.198,0.104-0.408,0.088-0.618
								c-0.007-0.209-0.062-0.415-0.154-0.604c-2.078-4.434-8.698-17.375-17.912-23.571c-0.216-0.144-0.47-0.223-0.728-0.231
								l-6.466-0.16c-0.281-0.003-0.551,0.078-0.789,0.231c-0.23,0.154-0.415,0.373-0.523,0.629
								c-0.615,1.38-1.759,3.902-1.978,4.064l-2.671,1.986c-0.143,0.106-0.304,0.183-0.477,0.224
								c-0.592,0.146-2.001,0.444-2.001,0.03c0-0.365-0.985-1.002-1.582-1.335c-0.281-0.171-0.619-0.23-0.942-0.167
								c-1.266,0.245-4.626,0.903-4.95,1.089c-0.408,0.225-4.341,4.609-4.529,5.34c-0.112,0.462-0.147,2.502-0.158,3.983
								c-0.012,0.2,0.019,0.4,0.092,0.589c0.069,0.188,0.178,0.36,0.316,0.506c0.135,0.146,0.3,0.264,0.485,0.343
								c0.185,0.081,0.384,0.124,0.584,0.125c2.109-0.075,5.738-0.221,5.95-0.377c0.708-0.508,1.377-1.066,2.005-1.67
								c0.335-0.36,1.667-1.087,2.552-1.542c0.23-0.121,0.496-0.171,0.754-0.144c0.262,0.026,0.508,0.131,0.711,0.298l2.783,2.2
								c0.247,0.202,0.423,0.469,0.517,0.773c0.092,0.304,0.092,0.628,0.003,0.932l-0.612,2.12
								c-0.046,0.159-0.119,0.311-0.208,0.447l-1.7,2.494c-0.185,0.285-0.47,0.493-0.801,0.581l-1.724,0.461
								c-0.084,0.023-0.176,0.035-0.269,0.039l-6.893,0.384c-0.335,0.026-0.651,0.166-0.893,0.395
								c-0.242,0.23-0.396,0.539-0.442,0.87c-0.204,1.276-0.508,3.206-0.616,3.889c-0.146,0.978-3.671,1.744-4.198,1.857
								l-0.135,0.02l-1.774,0.171C80.586,58.137,80.509,58.141,80.424,58.135z"/>
							<path clip-path="url(#SVGID_18_)" fill="#73CEC6" d="M55.378,32.359l-0.758-0.704c0,0-2.529,1.372-2.821,1.805
								c-0.285,0.435-1.732,0.601-2.356,0.627c-0.62,0.027-1.928-1.497-2.494-2.632c-0.569-1.136-0.393-1.774-1.74-1.824
								c-1.346-0.05-0.834-0.173-2.066,0.09c-1.235,0.264-1.005,0.779-2.066,0.086c-1.067-0.691-1.394-1-2.687-2.201
								c-0.954-0.96-1.797-2.019-2.524-3.16c0,0-15.687,13.312-14.352,35.804l2.829,7.678c0,0,1.748-0.287,1.582-1.649
								c-0.166-1.362-0.32-2.513,0.073-3.058c0.393-0.544,3.225-2.034,3.225-2.034l2.04-0.722c0,0,3.209,0.075,3.926-0.166
								c0.716-0.24,2.255-0.517,2.529-1.372c0.273-0.854,1.097-3.208,1.512-3.225c0.416-0.018,6.343,0.571,6.343,0.571
								s7.543,1.89,7.297-1.258c-0.242-3.148,0.254-3.699-0.454-5.675c-0.708-1.976,1.909-5.979,1.909-5.979l3.503-5.102
								c0,0,0.415-2.336-0.019-2.74C57.372,35.117,55.239,31.538,55.378,32.359z"/>
							<path clip-path="url(#SVGID_18_)" fill="#73CEC6" d="M24.558,73.229c0,0-0.716,0.224-0.747,1.79
								c-0.035,1.565,0.724,18.729,28.518,36.012c0,0,0.67-1.396,0.539-1.878c-0.131-0.485,0.158-3.526-1.131-4.644
								c-1.293-1.12-2.236-1.272-3.733-2.38c-1.501-1.109-2.225-1.08-2.278-2.338c-0.062-1.258,0.57-3.541,1.254-4.339
								c0.689-0.797,5.727-3.958,5.727-3.958s1.741-2.908,1.594-3.78c-0.143-0.872,0-2.64-0.154-3.512
								c-0.159-0.872-0.771-5.734-1.621-6.187c-0.851-0.45-3.368-5.817-4.676-5.371c-1.309,0.448-5.403,1.894-6.635,2.144
								c-1.232,0.25-5.03,1-6.374,1.054c-1.347,0.054-6.442-0.41-6.442-0.41L24.558,73.229z"/>
							<path clip-path="url(#SVGID_18_)" fill="#73CEC6" d="M91.81,79.74c-0.971-0.908-4.434-1.92-4.434-1.92l-4.557,2.303
								c0,0,1.024,2.063,0.023,2.842c-1,0.777-0.446,1.705-3.583,1c-3.137-0.704-2.771-1.78-5.611-0.394
								c-2.84,1.385-3.907,0.587-5.192,4.339c-1.282,3.752-1.894,4.087-2.051,7.464c-0.162,3.379,4.868,11.685,5.106,12.421
								c0.239,0.739,7.394,0.939,7.394,0.939s5.797-0.142,6.2-0.37c0.404-0.227,5.489-0.025,4.7,0.957
								c-0.79,0.981-2.591,4.534-2.591,4.534l4.98,0.21c0,0,19.252-2.613,27.268-13.278c0,0-4.699-5.488-5.138-6.209
								c-0.446-0.722-4.326-4.03-5.676-4.077c-1.351-0.047-6.504-4.254-7.155-4.856c-0.65-0.604-1.624-3.933-1.624-3.933
								L91.81,79.74z"/>
						</g>
					</g>
				</g>
			</g>
		</g>
		<g clip-path="url(#SVGID_2_)">
			<defs>
				<rect id="SVGID_19_" x="17.307" y="13.046" width="115.39" height="123.908"/>
			</defs>
			<clipPath id="SVGID_20_">
				<use xlink:href="#SVGID_19_"  overflow="visible"/>
			</clipPath>
			<g clip-path="url(#SVGID_20_)" enable-background="new    ">
				<g>
					<defs>
						<rect id="SVGID_21_" x="39.059" y="46.152" width="16.08" height="6.62"/>
					</defs>
					<clipPath id="SVGID_22_">
						<use xlink:href="#SVGID_21_"  overflow="visible"/>
					</clipPath>
					<path clip-path="url(#SVGID_22_)" fill="#CDDFF8" d="M53.769,48.687c0,0.391-0.593,0.752-1.586,1.031
						c-0.299,0.084-0.569,0.335-0.877,0.375c-1.331,0.133-2.686,0.192-4.033,0.206c-1.34,0.027-2.679-0.071-4.002-0.291
						c-0.228-0.039-2.51-0.15-2.521-1.191c0-0.477,0.858-0.513,2.282-0.81c0.554-0.118,1.093-0.548,1.667-0.669
						c0.843-0.124,1.698-0.173,2.552-0.15c0.701,0,1.401,0.334,2.102,0.389c0.423,0.037,1.192-0.212,1.57-0.154
						C51.163,47.477,53.753,47.596,53.769,48.687z"/>
				</g>
			</g>
			<g clip-path="url(#SVGID_20_)" enable-background="new    ">
				<g>
					<defs>
						<rect id="SVGID_23_" x="94.865" y="37.639" width="16.079" height="6.622"/>
					</defs>
					<clipPath id="SVGID_24_">
						<use xlink:href="#SVGID_23_"  overflow="visible"/>
					</clipPath>
					<path clip-path="url(#SVGID_24_)" fill="#CDDFF8" d="M110.367,39.997c0,0.387-0.577,0.747-1.539,1.028
						c-0.293,0.086-0.563,0.334-0.855,0.375c-1.304,0.133-2.617,0.192-3.926,0.206c-1.301,0.027-2.605-0.071-3.891-0.295
						c-0.219-0.036-2.444-0.149-2.452-1.191c0-0.477,0.835-0.513,2.217-0.81c0.539-0.116,1.069-0.544,1.613-0.669
						c0.819-0.124,1.65-0.173,2.482-0.15c0.669,0,1.362,0.334,2.047,0.389c0.412,0.037,1.159-0.211,1.524-0.154
						C107.835,38.781,110.355,38.905,110.367,39.997z"/>
				</g>
			</g>
			<g clip-path="url(#SVGID_20_)" enable-background="new    ">
				<g>
					<defs>
						<rect id="SVGID_25_" x="80.678" y="58.449" width="15.134" height="6.62"/>
					</defs>
					<clipPath id="SVGID_26_">
						<use xlink:href="#SVGID_25_"  overflow="visible"/>
					</clipPath>
					<path clip-path="url(#SVGID_26_)" fill="#CDDFF8" d="M95.104,62.319c0,0.391-0.558,0.75-1.497,1.031
						c-0.281,0.083-0.542,0.333-0.828,0.37c-1.27,0.137-2.548,0.198-3.826,0.209c-1.27,0.023-2.54-0.073-3.794-0.292
						c-0.212-0.041-2.378-0.154-2.387-1.195c0-0.477,0.816-0.514,2.163-0.812c0.523-0.113,1.04-0.544,1.57-0.65
						c0.801-0.125,1.609-0.175,2.418-0.148c0.669,0,1.335,0.335,2.001,0.389c0.408,0.036,1.14-0.21,1.494-0.154
						C92.641,61.103,95.096,61.226,95.104,62.319z"/>
				</g>
			</g>
			<g clip-path="url(#SVGID_20_)" enable-background="new    ">
				<g>
					<defs>
						<rect id="SVGID_27_" x="62.706" y="100.065" width="16.08" height="6.621"/>
					</defs>
					<clipPath id="SVGID_28_">
						<use xlink:href="#SVGID_27_"  overflow="visible"/>
					</clipPath>
					<path clip-path="url(#SVGID_28_)" fill="#CDDFF8" d="M77.715,102.68c0,0.387-0.577,0.747-1.544,1.027
						c-0.289,0.087-0.558,0.333-0.857,0.374c-1.309,0.135-2.625,0.198-3.938,0.208c-1.308,0.024-2.617-0.072-3.906-0.291
						c-0.223-0.041-2.456-0.154-2.463-1.195c0-0.478,0.839-0.51,2.225-0.808c0.546-0.118,1.073-0.547,1.624-0.668
						c0.824-0.125,1.655-0.175,2.494-0.15c0.681,0,1.362,0.334,2.047,0.387c0.416,0.041,1.17-0.21,1.536-0.152
						C75.175,101.463,77.707,101.588,77.715,102.68z"/>
				</g>
			</g>
			<g clip-path="url(#SVGID_20_)" enable-background="new    ">
				<g>
					<defs>
						<rect id="SVGID_29_" x="30.546" y="76.418" width="15.132" height="9.46"/>
					</defs>
					<clipPath id="SVGID_30_">
						<use xlink:href="#SVGID_29_"  overflow="visible"/>
					</clipPath>
					<path clip-path="url(#SVGID_30_)" fill="#CDDFF8" d="M43.093,80.885c0,0.387-0.531,0.747-1.417,1.027
						c-0.27,0.083-0.508,0.333-0.785,0.372c-1.201,0.13-2.406,0.198-3.61,0.206c-1.205,0.025-2.406-0.076-3.587-0.296
						c-0.2-0.04-2.248-0.154-2.255-1.195c0-0.477,0.766-0.512,2.04-0.808c0.496-0.117,1-0.545,1.486-0.667
						c0.753-0.125,1.52-0.175,2.286-0.148c0.627,0,1.25,0.335,1.878,0.389c0.385,0.039,1.07-0.208,1.409-0.15
						C40.76,79.667,43.081,79.792,43.093,80.885z"/>
				</g>
			</g>
			<g clip-path="url(#SVGID_20_)" enable-background="new    ">
				<g>
					<defs>
						<rect id="SVGID_31_" x="36.219" y="22.506" width="89.858" height="95.529"/>
					</defs>
					<clipPath id="SVGID_32_">
						<use xlink:href="#SVGID_31_"  overflow="visible"/>
					</clipPath>
					<path clip-path="url(#SVGID_32_)" fill="#CDCDD7" d="M122.467,65.997c-0.866-19.5-12.407-35.616-31.878-41.985
						c8.571,3.135,20.363,17.161,20.363,31.998c0,25.897-27.148,45.626-54.003,46.775c-6.396,0.283-12.793-0.662-18.836-2.785
						c4.88,5.024,10.772,8.952,17.288,11.527c6.512,2.573,13.498,3.731,20.491,3.4C102.774,113.773,123.61,91.87,122.467,65.997z"/>
				</g>
			</g>
			<path clip-path="url(#SVGID_20_)" fill="#5A489B" d="M104.378,28.36c-0.978,0-1.932-0.291-2.744-0.833
				c-0.813-0.542-1.443-1.314-1.82-2.217c-0.373-0.902-0.47-1.896-0.281-2.854c0.188-0.958,0.662-1.84,1.351-2.531
				c0.693-0.691,1.57-1.162,2.533-1.353c0.958-0.191,1.952-0.093,2.855,0.281c0.901,0.375,1.67,1.008,2.217,1.82
				c0.538,0.812,0.831,1.769,0.831,2.744c0,1.311-0.523,2.567-1.447,3.495C106.946,27.841,105.688,28.36,104.378,28.36z
				 M112.822,23.418c0-1.283-0.289-2.549-0.846-3.704c-0.562-1.157-1.382-2.167-2.394-2.96c-1.008-0.791-2.186-1.341-3.441-1.608
				c-1.254-0.268-2.555-0.245-3.802,0.065c-1.247,0.31-2.405,0.9-3.387,1.726c-0.986,0.826-1.767,1.865-2.287,3.037
				c-0.523,1.173-0.769,2.451-0.724,3.733c0.046,1.284,0.385,2.538,0.99,3.672l-0.081,0.082l6.205,12.422
				c0.092,0.185,0.235,0.339,0.408,0.447c0.177,0.109,0.377,0.169,0.584,0.171c0.205,0.004,0.409-0.048,0.585-0.152
				c0.177-0.103,0.323-0.252,0.423-0.432l6.766-12.462l-0.022-0.027C112.468,26.199,112.822,24.819,112.822,23.418z"/>
			<path clip-path="url(#SVGID_20_)" fill="#5A489B" d="M37.258,68.431c-0.977,0-1.932-0.291-2.744-0.833
				c-0.812-0.542-1.444-1.314-1.821-2.217c-0.37-0.902-0.47-1.895-0.276-2.854c0.188-0.958,0.658-1.84,1.346-2.531
				c0.693-0.69,1.575-1.162,2.532-1.351c0.958-0.192,1.952-0.094,2.856,0.281c0.9,0.373,1.674,1.006,2.217,1.819
				c0.542,0.812,0.831,1.768,0.831,2.745c0,1.311-0.52,2.567-1.447,3.493C39.829,67.911,38.57,68.431,37.258,68.431z M45.703,63.49
				c0-1.283-0.293-2.55-0.855-3.702s-1.378-2.163-2.386-2.954c-1.012-0.79-2.19-1.339-3.445-1.607
				c-1.255-0.266-2.552-0.244-3.798,0.065c-1.244,0.31-2.402,0.9-3.387,1.725c-0.978,0.824-1.762,1.862-2.286,3.032
				c-0.52,1.172-0.77,2.448-0.724,3.729c0.045,1.281,0.38,2.537,0.985,3.67l-0.085,0.083l6.212,12.429
				c0.092,0.185,0.235,0.339,0.408,0.448c0.178,0.11,0.378,0.169,0.585,0.174c0.204,0.003,0.408-0.05,0.584-0.154
				c0.177-0.104,0.328-0.254,0.424-0.435l6.765-12.461l-0.023-0.027C45.352,66.273,45.703,64.894,45.703,63.49z"/>
			<path clip-path="url(#SVGID_20_)" fill="#5A489B" d="M71.331,91.228c-0.978,0-1.933-0.289-2.745-0.833
				c-0.815-0.542-1.447-1.314-1.82-2.217s-0.474-1.896-0.28-2.854c0.192-0.958,0.662-1.84,1.351-2.53
				c0.693-0.691,1.574-1.163,2.528-1.353c0.962-0.191,1.956-0.093,2.856,0.281c0.905,0.375,1.678,1.008,2.217,1.82
				c0.546,0.812,0.834,1.769,0.834,2.744c-0.003,1.309-0.527,2.561-1.455,3.483c-0.927,0.923-2.182,1.441-3.486,1.441V91.228z
				 M79.77,86.286c0.008-1.283-0.284-2.554-0.838-3.71c-0.562-1.159-1.378-2.173-2.387-2.966c-1.012-0.794-2.189-1.347-3.448-1.618
				c-1.254-0.27-2.555-0.248-3.802,0.062c-1.247,0.309-2.41,0.9-3.395,1.726s-1.767,1.865-2.286,3.039
				c-0.523,1.176-0.77,2.454-0.724,3.737c0.045,1.284,0.384,2.54,0.992,3.673l-0.085,0.085l6.212,12.427
				c0.093,0.183,0.231,0.338,0.409,0.447c0.177,0.109,0.377,0.167,0.581,0.171c0.204,0.004,0.411-0.048,0.589-0.152
				c0.176-0.102,0.323-0.252,0.423-0.432l6.761-12.461l-0.019-0.027C79.42,89.058,79.77,87.683,79.77,86.286z"/>
			<path clip-path="url(#SVGID_20_)" fill="#5A489B" d="M47.834,36.494c-0.978,0-1.933-0.291-2.745-0.833s-1.443-1.314-1.82-2.217
				c-0.374-0.903-0.47-1.898-0.277-2.856c0.188-0.958,0.658-1.837,1.347-2.528c0.692-0.691,1.574-1.162,2.532-1.353
				c0.958-0.191,1.951-0.093,2.855,0.28c0.9,0.375,1.67,1.009,2.217,1.821c0.542,0.812,0.832,1.769,0.832,2.746
				c0,1.308-0.52,2.567-1.447,3.492C50.405,35.973,49.147,36.494,47.834,36.494z M56.278,31.555c0-1.283-0.292-2.55-0.855-3.703
				c-0.562-1.155-1.377-2.163-2.386-2.954c-1.012-0.791-2.19-1.34-3.445-1.607c-1.254-0.267-2.551-0.244-3.798,0.066
				c-1.244,0.31-2.401,0.9-3.387,1.724c-0.977,0.824-1.762,1.861-2.286,3.033c-0.52,1.171-0.77,2.448-0.724,3.729
				s0.381,2.536,0.986,3.669l-0.085,0.083l6.227,12.429c0.093,0.183,0.231,0.337,0.409,0.447c0.177,0.107,0.377,0.167,0.581,0.171
				c0.204,0.004,0.412-0.05,0.589-0.152c0.177-0.104,0.323-0.252,0.423-0.433l6.758-12.462v-0.027
				C55.947,34.335,56.286,32.954,56.278,31.555z"/>
			<path clip-path="url(#SVGID_20_)" fill="#FFE7E0" d="M47.834,23.115c-1.439,0.065-2.84,0.487-4.077,1.229
				c-0.304,0.179-0.596,0.381-0.877,0.604c-0.28,0.215-0.546,0.452-0.796,0.704c-0.492,0.499-0.923,1.059-1.27,1.669
				c-0.708,1.218-1.093,2.598-1.116,4.006c-0.038,1.403,0.289,2.793,0.955,4.03l0.1,0.2l-0.154,0.156l-0.085,0.085l0.059-0.335
				c1.212,2.444,2.42,4.888,3.59,7.345l1.755,3.695l0.423,0.931l0.216,0.464c0.062,0.15,0.15,0.285,0.262,0.398
				c0.123,0.112,0.27,0.195,0.423,0.243c0.158,0.05,0.323,0.063,0.484,0.04c0.162-0.023,0.319-0.083,0.454-0.175
				c0.139-0.091,0.254-0.212,0.339-0.353c-0.077,0.156-0.188,0.294-0.327,0.402c-0.138,0.105-0.296,0.181-0.473,0.215
				c-0.173,0.037-0.354,0.031-0.527-0.011c-0.173-0.046-0.335-0.129-0.473-0.247c-0.138-0.118-0.254-0.264-0.332-0.431l-0.246-0.447
				l-0.485-0.9l-1.902-3.622c-1.273-2.416-2.501-4.852-3.725-7.286l-0.1-0.197l0.154-0.154l0.085-0.083l-0.054,0.356
				c-0.713-1.332-1.059-2.829-1.001-4.339c0.046-1.501,0.489-2.963,1.286-4.235c0.396-0.631,0.87-1.208,1.409-1.716
				c0.273-0.252,0.562-0.487,0.862-0.701c0.3-0.22,0.608-0.417,0.939-0.591c0.157-0.092,0.323-0.171,0.492-0.239
				c0.169-0.069,0.335-0.159,0.508-0.213c0.346-0.125,0.7-0.229,1.054-0.31C46.38,23.147,47.107,23.083,47.834,23.115z"/>
			<path clip-path="url(#SVGID_20_)" fill="#FFE7E0" d="M47.834,26.613c0.67-0.058,1.339,0.025,1.974,0.247
				c0.635,0.22,1.212,0.571,1.697,1.033c0.501,0.47,0.901,1.037,1.171,1.668c0.27,0.633,0.415,1.314,0.415,2.003
				c-0.004,0.689-0.146,1.371-0.412,2.003c-0.273,0.631-0.673,1.199-1.174,1.668c-0.484,0.463-1.062,0.816-1.693,1.035
				c-0.639,0.221-1.308,0.304-1.978,0.245c1.273-0.114,2.463-0.687,3.341-1.616c0.838-0.903,1.308-2.09,1.308-3.326
				c0-1.233-0.47-2.421-1.308-3.325C50.297,27.313,49.112,26.73,47.834,26.613z"/>
			<path clip-path="url(#SVGID_20_)" fill="#5A489B" d="M88.923,50.324c-0.978,0-1.933-0.288-2.748-0.833
				c-0.812-0.542-1.447-1.314-1.817-2.217c-0.377-0.902-0.477-1.896-0.285-2.854c0.193-0.958,0.663-1.84,1.355-2.531
				c0.688-0.691,1.57-1.163,2.528-1.353c0.958-0.191,1.952-0.093,2.852,0.281c0.905,0.375,1.679,1.008,2.217,1.82
				c0.546,0.812,0.835,1.769,0.835,2.744c0,1.311-0.52,2.567-1.447,3.495C91.485,49.805,90.231,50.324,88.923,50.324z
				 M97.362,45.383c0.004-1.282-0.289-2.55-0.851-3.703c-0.562-1.155-1.377-2.165-2.389-2.956c-1.012-0.791-2.19-1.341-3.445-1.609
				c-1.255-0.268-2.556-0.244-3.798,0.065c-1.244,0.31-2.406,0.9-3.387,1.724c-0.981,0.826-1.767,1.865-2.286,3.037
				c-0.52,1.172-0.767,2.448-0.724,3.731c0.046,1.282,0.381,2.538,0.989,3.669l-0.084,0.083l6.196,12.429
				c0.093,0.185,0.238,0.339,0.408,0.448c0.177,0.11,0.378,0.169,0.585,0.173s0.408-0.05,0.585-0.154
				c0.181-0.102,0.327-0.254,0.427-0.435l6.762-12.462l-0.02-0.023C97.004,48.171,97.358,46.789,97.362,45.383z"/>
			<path clip-path="url(#SVGID_20_)" fill="#FFE7E0" d="M89.127,36.946c-1.44,0.065-2.845,0.487-4.08,1.228
				c-0.304,0.181-0.596,0.383-0.874,0.604c-0.28,0.218-0.546,0.453-0.8,0.704c-0.493,0.5-0.92,1.061-1.27,1.67
				c-0.708,1.216-1.093,2.598-1.116,4.007c-0.039,1.403,0.289,2.794,0.954,4.031l0.107,0.199l-0.161,0.16l-0.084,0.079l0.057-0.333
				c1.212,2.443,2.421,4.888,3.591,7.345l1.755,3.695l0.423,0.931l0.219,0.464c0.058,0.15,0.142,0.287,0.258,0.398
				c0.124,0.111,0.27,0.194,0.423,0.242c0.158,0.05,0.323,0.064,0.485,0.041c0.166-0.025,0.32-0.083,0.458-0.175
				c0.135-0.09,0.25-0.211,0.335-0.352c-0.077,0.156-0.185,0.294-0.323,0.402c-0.138,0.105-0.3,0.181-0.47,0.216
				c-0.176,0.036-0.357,0.033-0.531-0.012c-0.177-0.046-0.335-0.128-0.47-0.246c-0.138-0.117-0.254-0.264-0.338-0.427l-0.239-0.45
				l-0.485-0.901l-1.909-3.623c-1.266-2.414-2.494-4.85-3.722-7.284l-0.1-0.194l0.159-0.156l0.081-0.084l-0.055,0.357
				c-0.712-1.333-1.054-2.831-1.004-4.339c0.084-2.253,1.059-4.383,2.702-5.925c0.27-0.254,0.558-0.487,0.862-0.703
				c0.292-0.217,0.608-0.416,0.931-0.591c0.162-0.088,0.328-0.167,0.501-0.236c0.169-0.069,0.33-0.16,0.508-0.214
				c0.346-0.127,0.693-0.229,1.054-0.306C87.667,36.997,88.399,36.924,89.127,36.946z"/>
			<path clip-path="url(#SVGID_20_)" fill="#FFE7E0" d="M89.127,40.443c0.665-0.058,1.342,0.025,1.974,0.247
				c0.631,0.219,1.208,0.572,1.701,1.033c0.497,0.47,0.893,1.039,1.166,1.668c0.274,0.633,0.412,1.314,0.412,2.003
				c0,0.688-0.138,1.37-0.412,2.003c-0.273,0.629-0.669,1.197-1.166,1.668c-0.489,0.461-1.07,0.814-1.701,1.035
				c-0.632,0.219-1.309,0.302-1.974,0.243c1.273-0.112,2.458-0.685,3.336-1.615c0.843-0.902,1.309-2.092,1.309-3.325
				s-0.466-2.423-1.309-3.325C91.59,41.144,90.4,40.562,89.127,40.443z"/>
			<path clip-path="url(#SVGID_20_)" fill="#FFE7E0" d="M104.178,14.977c-1.439,0.067-2.84,0.491-4.079,1.231
				c-0.309,0.183-0.601,0.383-0.877,0.604c-0.839,0.645-1.544,1.453-2.067,2.375c-0.708,1.216-1.093,2.596-1.113,4.005
				c-0.042,1.405,0.285,2.794,0.947,4.029l0.108,0.2l-0.158,0.158l-0.085,0.083l0.059-0.35c1.212,2.443,2.424,4.888,3.591,7.345
				l1.77,3.718l0.428,0.931l0.214,0.463c0.059,0.15,0.147,0.285,0.262,0.399c0.123,0.111,0.261,0.194,0.423,0.244
				c0.154,0.048,0.323,0.062,0.485,0.039c0.161-0.024,0.315-0.083,0.454-0.176c0.139-0.09,0.254-0.209,0.339-0.352
				c-0.078,0.156-0.193,0.294-0.332,0.4c-0.135,0.108-0.292,0.181-0.465,0.217c-0.174,0.035-0.358,0.031-0.531-0.014
				c-0.173-0.044-0.335-0.129-0.474-0.244c-0.138-0.12-0.25-0.266-0.331-0.43l-0.246-0.448l-0.485-0.901l-1.924-3.629
				c-1.267-2.413-2.494-4.85-3.726-7.287l-0.092-0.195l0.154-0.152l0.081-0.084l-0.054,0.375c-0.708-1.333-1.055-2.831-1.001-4.341
				c0.035-1.12,0.293-2.222,0.758-3.245c0.462-1.021,1.125-1.942,1.94-2.707c0.27-0.252,0.558-0.487,0.862-0.701
				c0.293-0.219,0.608-0.415,0.931-0.591c0.162-0.09,0.332-0.171,0.501-0.24c0.169-0.067,0.331-0.156,0.508-0.209
				c0.342-0.127,0.693-0.231,1.055-0.312C102.716,15.022,103.447,14.951,104.178,14.977z"/>
			<path clip-path="url(#SVGID_20_)" fill="#FFE7E0" d="M104.178,18.479c0.67-0.059,1.34,0.025,1.975,0.245
				c0.635,0.221,1.212,0.573,1.698,1.035c0.5,0.468,0.9,1.038,1.169,1.668c0.27,0.633,0.416,1.314,0.416,2.003
				c-0.004,0.688-0.146,1.368-0.416,2.003c-0.27,0.629-0.67,1.199-1.169,1.668c-0.485,0.461-1.063,0.815-1.698,1.035
				c-0.635,0.222-1.305,0.304-1.975,0.243c1.27-0.114,2.459-0.689,3.341-1.615c0.839-0.902,1.309-2.092,1.309-3.325
				s-0.47-2.423-1.309-3.325C106.642,19.178,105.457,18.596,104.178,18.479z"/>
			<path clip-path="url(#SVGID_20_)" fill="#FFE7E0" d="M71.226,77.623c-1.439,0.069-2.84,0.492-4.079,1.231
				c-0.304,0.181-0.597,0.383-0.874,0.604c-0.281,0.216-0.542,0.451-0.796,0.703c-0.493,0.498-0.924,1.06-1.274,1.668
				c-0.704,1.218-1.089,2.598-1.111,4.006c-0.039,1.403,0.284,2.79,0.947,4.029l0.107,0.201l-0.158,0.156l-0.081,0.085l0.058-0.335
				c1.212,2.443,2.421,4.887,3.587,7.345l1.758,3.695l0.423,0.931l0.216,0.463c0.061,0.148,0.146,0.283,0.261,0.398
				c0.119,0.111,0.262,0.194,0.42,0.242c0.157,0.05,0.323,0.063,0.489,0.041c0.162-0.024,0.316-0.083,0.454-0.176
				c0.138-0.09,0.25-0.211,0.335-0.352c-0.077,0.156-0.188,0.294-0.328,0.4c-0.138,0.108-0.296,0.181-0.469,0.217
				c-0.174,0.035-0.354,0.031-0.528-0.014c-0.173-0.043-0.334-0.126-0.474-0.244c-0.138-0.118-0.254-0.266-0.331-0.432l-0.247-0.45
				l-0.485-0.896l-1.901-3.624c-1.274-2.413-2.501-4.849-3.726-7.288l-0.101-0.192l0.154-0.154l0.084-0.083l-0.054,0.356
				c-0.712-1.332-1.059-2.829-1-4.339c0.05-1.492,0.493-2.942,1.292-4.207c0.585-0.947,1.355-1.769,2.263-2.417
				c0.3-0.217,0.613-0.414,0.936-0.591c0.166-0.091,0.327-0.169,0.504-0.241c0.169-0.069,0.331-0.155,0.504-0.209
				c1.031-0.377,2.124-0.553,3.221-0.518V77.623z"/>
			<path clip-path="url(#SVGID_20_)" fill="#FFE7E0" d="M71.226,81.125c0.67-0.06,1.34,0.022,1.974,0.244
				c0.636,0.22,1.213,0.572,1.698,1.034c0.501,0.472,0.897,1.039,1.17,1.67s0.416,1.313,0.416,2.001s-0.143,1.372-0.416,2.003
				c-0.27,0.631-0.669,1.199-1.17,1.67c-0.485,0.462-1.062,0.814-1.698,1.036c-0.634,0.219-1.304,0.302-1.974,0.242
				c1.274-0.113,2.463-0.687,3.341-1.616c0.839-0.9,1.309-2.089,1.309-3.323c0-1.236-0.47-2.425-1.309-3.325
				C73.689,81.822,72.504,81.241,71.226,81.125z"/>
			<path clip-path="url(#SVGID_20_)" fill="#FFE7E0" d="M37.258,55.046c-1.439,0.067-2.848,0.491-4.087,1.233
				c-0.308,0.18-0.6,0.381-0.877,0.604c-0.277,0.214-0.542,0.445-0.793,0.695c-1.485,1.518-2.339,3.549-2.389,5.675
				c-0.039,1.403,0.289,2.794,0.95,4.031l0.108,0.2l-0.162,0.158l-0.078,0.083l0.055-0.35c1.216,2.443,2.424,4.888,3.59,7.345
				l1.755,3.698l0.428,0.928l0.215,0.467c0.059,0.148,0.147,0.283,0.262,0.397c0.12,0.111,0.261,0.194,0.42,0.242
				c0.157,0.05,0.323,0.063,0.484,0.038c0.166-0.023,0.319-0.083,0.458-0.173c0.134-0.09,0.25-0.209,0.334-0.352
				c-0.076,0.158-0.188,0.295-0.327,0.402c-0.138,0.105-0.297,0.181-0.47,0.217c-0.173,0.035-0.354,0.031-0.531-0.014
				c-0.169-0.044-0.331-0.129-0.47-0.244c-0.138-0.12-0.254-0.266-0.331-0.432l-0.246-0.45l-0.485-0.899l-1.902-3.595
				c-1.27-2.413-2.501-4.851-3.725-7.287l-0.097-0.195l0.15-0.155l0.084-0.081l-0.054,0.357c-0.708-1.333-1.055-2.83-1.001-4.339
				c0.05-1.501,0.501-2.961,1.301-4.229c0.594-0.949,1.363-1.771,2.271-2.417c0.296-0.217,0.608-0.416,0.931-0.59
				c0.162-0.091,0.331-0.172,0.5-0.241c0.173-0.072,0.339-0.158,0.508-0.212c1.032-0.375,2.125-0.553,3.226-0.518H37.258z"/>
			<path clip-path="url(#SVGID_20_)" fill="#FFE7E0" d="M37.258,58.547c0.67-0.06,1.34,0.025,1.974,0.245
				c0.636,0.221,1.213,0.573,1.698,1.035c0.501,0.471,0.9,1.04,1.17,1.668c0.273,0.633,0.416,1.314,0.416,2.003
				c0,0.688-0.143,1.37-0.416,2.003c-0.27,0.631-0.669,1.199-1.17,1.668c-0.485,0.462-1.062,0.814-1.698,1.035
				c-0.634,0.22-1.304,0.304-1.974,0.245c1.274-0.114,2.463-0.687,3.341-1.617c0.839-0.902,1.309-2.09,1.309-3.325
				c0-1.234-0.47-2.423-1.309-3.326C39.726,59.246,38.536,58.663,37.258,58.547z"/>
		</g>
	</g>
</g>
</svg>
