<?xml version="1.0" encoding="utf-8"?>
<!-- Generator: Adobe Illustrator 16.0.0, SVG Export Plug-In . SVG Version: 6.00 Build 0)  -->
<!DOCTYPE svg PUBLIC "-//W3C//DTD SVG 1.1//EN" "http://www.w3.org/Graphics/SVG/1.1/DTD/svg11.dtd">
<svg version="1.1" id="레이어_1" xmlns="http://www.w3.org/2000/svg" xmlns:xlink="http://www.w3.org/1999/xlink" x="0px"
	 y="0px" width="150px" height="150px" viewBox="0 0 150 150" enable-background="new 0 0 150 150" xml:space="preserve">
<g>
	<defs>
		<rect id="SVGID_33_" x="5.09" y="6.168" width="139.82" height="137.664"/>
	</defs>
	<clipPath id="SVGID_2_">
		<use xlink:href="#SVGID_33_"  overflow="visible"/>
	</clipPath>
	<path clip-path="url(#SVGID_2_)" fill="#0770E3" d="M116.395,36.715c-0.113-0.74-0.42-1.441-0.891-2.026
		c-0.471-0.586-1.086-1.038-1.787-1.309c-23.92-9.104-38.93,1.997-51.229,13.63c-10.094,9.558-29.672,6.782-37.197,5.259
		c-0.34-0.07-0.693-0.057-1.027,0.04c-0.332,0.097-0.641,0.273-0.893,0.513c-0.252,0.241-0.439,0.537-0.553,0.867
		c-0.111,0.33-0.143,0.682-0.086,1.025l7.246,45.931c0.084,0.534,0.324,1.027,0.693,1.422s0.85,0.667,1.375,0.787
		c6.311,1.375,27.717,5.162,38.461-4.994c11.961-11.305,28.227-22.116,51.105-14.328c0.441,0.15,0.912,0.187,1.365,0.104
		c0.459-0.085,0.885-0.286,1.236-0.585c0.359-0.297,0.629-0.681,0.795-1.114c0.162-0.437,0.207-0.904,0.135-1.363L116.395,36.715z"
		/>
	<path clip-path="url(#SVGID_2_)" fill="#6D9FEB" d="M125.145,80.568l-6.77-34.199c-0.145-0.049-0.229-1-0.229-1
		c-25.145-10.751-41.311,1.64-53.992,13.606c-12.016,11.362-37.367,5.3-40.02,4.625l5.844,37.041
		c0.084,0.534,0.324,1.03,0.693,1.422c0.369,0.396,0.85,0.666,1.375,0.787c6.311,1.375,27.717,5.162,38.461-4.991
		c11.961-11.305,28.227-22.116,51.105-14.328c0.441,0.15,0.912,0.184,1.365,0.1c0.459-0.083,0.885-0.284,1.236-0.581
		c0.359-0.297,0.629-0.684,0.795-1.117C125.172,81.499,125.217,81.027,125.145,80.568z"/>
	<path clip-path="url(#SVGID_2_)" fill="#042759" d="M88.186,36.798c-0.107,0.002-0.213-0.034-0.297-0.104
		c-0.084-0.069-0.141-0.168-0.164-0.276l-0.457-2.716c-0.006-0.061-0.006-0.122,0.012-0.182c0.01-0.06,0.037-0.115,0.072-0.166
		c0.033-0.048,0.078-0.091,0.133-0.123c0.053-0.032,0.107-0.055,0.17-0.064c0.061-0.009,0.121-0.008,0.18,0.006
		c0.061,0.014,0.117,0.04,0.166,0.075c0.051,0.035,0.09,0.081,0.123,0.133c0.035,0.052,0.057,0.109,0.063,0.17l0.459,2.716
		c0.021,0.12-0.006,0.243-0.078,0.343c-0.066,0.099-0.174,0.165-0.297,0.186L88.186,36.798z"/>
	<path clip-path="url(#SVGID_2_)" fill="#042759" d="M90.145,48.385c-0.111,0.001-0.217-0.037-0.303-0.105
		c-0.082-0.069-0.139-0.168-0.156-0.275l-0.969-5.786c-0.021-0.123,0.006-0.247,0.08-0.348c0.072-0.1,0.178-0.169,0.301-0.188
		c0.125-0.02,0.248,0.008,0.348,0.081c0.1,0.071,0.168,0.18,0.189,0.302l0.965,5.787c0.016,0.121-0.012,0.242-0.078,0.341
		c-0.072,0.099-0.18,0.166-0.303,0.187L90.145,48.385z M92.055,59.943c-0.105,0.002-0.213-0.037-0.297-0.107
		c-0.084-0.069-0.141-0.17-0.162-0.277l-0.969-5.786c-0.006-0.061-0.006-0.122,0.006-0.183c0.018-0.059,0.043-0.114,0.078-0.165
		c0.035-0.048,0.078-0.091,0.135-0.124c0.051-0.031,0.105-0.054,0.168-0.063c0.061-0.01,0.121-0.008,0.178,0.006
		c0.063,0.014,0.119,0.039,0.168,0.075c0.051,0.035,0.092,0.08,0.125,0.132s0.055,0.11,0.061,0.171l0.963,5.777
		c0.023,0.119-0.006,0.243-0.078,0.341c-0.066,0.1-0.174,0.166-0.297,0.187L92.055,59.943z M93.992,71.517
		c-0.107,0.001-0.219-0.036-0.303-0.107c-0.084-0.069-0.141-0.17-0.156-0.277l-0.965-5.769c-0.016-0.121,0.014-0.246,0.086-0.347
		c0.066-0.1,0.178-0.169,0.301-0.188c0.119-0.02,0.248,0.008,0.344,0.081c0.1,0.071,0.168,0.181,0.189,0.302l0.969,5.786
		c0.012,0.06,0.004,0.121-0.006,0.181c-0.018,0.058-0.039,0.114-0.072,0.163c-0.041,0.05-0.084,0.091-0.135,0.122
		c-0.051,0.032-0.107,0.053-0.17,0.063L93.992,71.517z"/>
	<path clip-path="url(#SVGID_2_)" fill="#042759" d="M95.408,80.015c-0.105,0.006-0.213-0.034-0.297-0.104s-0.139-0.168-0.162-0.277
		l-0.459-2.716c-0.018-0.12,0.012-0.246,0.084-0.347s0.18-0.168,0.303-0.186c0.123-0.021,0.246,0.007,0.346,0.079
		c0.102,0.072,0.17,0.18,0.186,0.303l0.459,2.716c0.023,0.123-0.006,0.246-0.078,0.342c-0.066,0.1-0.174,0.167-0.297,0.187
		L95.408,80.015z"/>
	<ellipse clip-path="url(#SVGID_2_)" fill="#CDDFF8" cx="75.957" cy="120.19" rx="45.744" ry="1.615"/>
	<path clip-path="url(#SVGID_2_)" fill="#8AB2EF" d="M82.564,49.931c-0.342,0-0.678,0.098-0.969,0.276
		c-4.361,2.734-8.385,5.975-11.988,9.65c-1.52,1.484-3.287,2.693-5.219,3.575c-0.379,0.168-0.693,0.464-0.883,0.835
		c-0.191,0.371-0.25,0.796-0.17,1.206l1.322,6.714c0.086,0.424,0.311,0.808,0.646,1.08c0.336,0.273,0.76,0.419,1.191,0.41
		c0.309-0.001,0.615-0.077,0.889-0.224c1.541-0.816,2.951-1.852,4.191-3.071c3.832-3.802,8.193-7.558,13.229-10.422
		c0.328-0.19,0.598-0.481,0.754-0.834c0.158-0.351,0.203-0.742,0.131-1.119l-1.295-6.594c-0.078-0.427-0.307-0.812-0.643-1.084
		c-0.336-0.274-0.756-0.42-1.188-0.413"/>
	<path clip-path="url(#SVGID_2_)" fill="#FFFFFF" d="M28.932,62.798h0.279c0.049,0.006,0.102-0.004,0.145-0.022
		c0.047-0.021,0.088-0.052,0.119-0.093l1.984-2.646l2.02,0.164c0.066,0.024,0.139,0.035,0.205,0.026
		c0.074-0.006,0.141-0.03,0.203-0.067c0.057-0.038,0.105-0.09,0.145-0.148c0.037-0.062,0.059-0.129,0.064-0.2
		c0.008-0.07-0.002-0.142-0.029-0.207c-0.023-0.065-0.066-0.124-0.119-0.173c-0.051-0.047-0.111-0.082-0.182-0.102
		c-0.066-0.019-0.141-0.021-0.211-0.01l-2.018-0.184l-1.51-2.928c-0.021-0.044-0.055-0.083-0.094-0.11
		c-0.043-0.028-0.09-0.045-0.141-0.05h-0.285c-0.047-0.005-0.096,0.003-0.139,0.021c-0.045,0.019-0.082,0.049-0.113,0.085
		s-0.051,0.081-0.063,0.128c-0.01,0.048-0.01,0.095,0.004,0.143l0.746,2.618l-1.803-0.159l-0.313-0.781
		c-0.018-0.047-0.047-0.091-0.09-0.124c-0.039-0.032-0.086-0.054-0.141-0.063l-0.672-0.097l0.5,1.459l-0.742,1.377h0.68
		c0.051,0.003,0.1-0.01,0.146-0.033c0.043-0.024,0.084-0.061,0.107-0.104l0.461-0.721l1.805,0.155l-1.189,2.45
		c-0.02,0.044-0.031,0.091-0.031,0.141c0.004,0.049,0.016,0.095,0.039,0.138c0.025,0.042,0.059,0.076,0.102,0.104
		c0.039,0.026,0.084,0.041,0.135,0.046"/>
	<path clip-path="url(#SVGID_2_)" fill="#FFFFFF" d="M116.73,57.531l-1.188,0.105c-2.352-4.346-7.553-7.567-11.613-7.2
		c-1.65,0.151-2.867,0.877-3.559,1.978c-0.248,0.395,0.1,1.105,0.719,1.487c0.512,0.317,1.039,0.309,1.244,0
		c0.297-0.438,0.693-0.799,1.154-1.055c0.465-0.257,0.979-0.398,1.512-0.419c3.035-0.274,6.941,2.148,8.717,5.402l-1.191,0.104
		c-0.498,0.046-0.516,0.621-0.027,1.029l4.068,3.427c0.498,0.423,1.1,0.367,1.121-0.101l0.141-3.813
		c-0.033-0.267-0.162-0.51-0.365-0.685C117.258,57.617,116.998,57.524,116.73,57.531z"/>
	<path clip-path="url(#SVGID_2_)" fill="#FFFFFF" d="M114.053,62.735c-0.297,0.437-0.693,0.798-1.152,1.054
		c-0.465,0.257-0.98,0.4-1.506,0.418c-3.041,0.28-6.949-2.143-8.719-5.399l1.176-0.107c0.504-0.045,0.521-0.613,0.035-1.027
		l-4.072-3.428c-0.492-0.417-1.096-0.363-1.115,0.101l-0.145,3.814c0.041,0.258,0.174,0.493,0.369,0.662
		c0.203,0.168,0.455,0.26,0.717,0.255l1.199-0.111c2.352,4.347,7.553,7.574,11.607,7.201c1.654-0.151,2.865-0.877,3.561-1.978
		c0.252-0.395-0.102-1.103-0.719-1.487C114.787,62.395,114.26,62.408,114.053,62.735z"/>
	<path clip-path="url(#SVGID_2_)" fill="#FFFFFF" d="M69.473,47.88c-0.092,0-0.184-0.027-0.256-0.078
		c-0.08-0.055-0.135-0.128-0.168-0.215c-0.035-0.085-0.041-0.181-0.02-0.271c0.02-0.09,0.07-0.172,0.137-0.234
		c0.357-0.326,0.623-0.555,0.834-0.711l0.645-0.458c0.051-0.035,0.105-0.061,0.162-0.075c0.061-0.013,0.123-0.016,0.182-0.004
		c0.059,0.01,0.115,0.032,0.168,0.063c0.051,0.033,0.096,0.075,0.131,0.126c0.033,0.048,0.061,0.104,0.072,0.163
		s0.018,0.121,0.006,0.181c-0.012,0.059-0.033,0.116-0.068,0.169c-0.029,0.05-0.07,0.095-0.121,0.129
		c-0.207,0.142-0.418,0.294-0.623,0.459c-0.205,0.166-0.436,0.354-0.771,0.655c-0.084,0.077-0.195,0.119-0.309,0.121 M64.445,52.562
		c-0.066,0.001-0.135-0.013-0.193-0.04s-0.113-0.067-0.156-0.116c-0.082-0.091-0.119-0.211-0.109-0.333
		c0.006-0.121,0.063-0.233,0.156-0.313c1.375-1.208,2.623-2.386,3.623-3.337l0.414-0.395c0.09-0.084,0.209-0.129,0.33-0.124
		c0.121,0.003,0.236,0.054,0.32,0.142c0.084,0.091,0.129,0.209,0.129,0.331c-0.006,0.122-0.057,0.237-0.146,0.322l-0.416,0.39
		c-1.006,0.954-2.26,2.138-3.672,3.359c-0.082,0.071-0.189,0.112-0.299,0.114H64.445z M62.035,54.636
		c-0.1,0.001-0.191-0.028-0.27-0.084c-0.076-0.057-0.135-0.135-0.166-0.225s-0.035-0.188-0.01-0.281
		c0.029-0.092,0.084-0.173,0.162-0.232c0.355-0.283,0.711-0.567,1.061-0.857c0.094-0.077,0.211-0.115,0.334-0.104
		c0.123,0.011,0.232,0.07,0.311,0.164s0.115,0.214,0.104,0.335c-0.012,0.122-0.07,0.233-0.162,0.311
		c-0.352,0.295-0.715,0.589-1.084,0.873C62.232,54.6,62.139,54.634,62.035,54.636z M55.84,58.573c-0.107,0-0.207-0.035-0.285-0.102
		c-0.084-0.067-0.141-0.159-0.162-0.262c-0.023-0.101-0.006-0.208,0.039-0.302c0.047-0.094,0.125-0.168,0.221-0.212
		c0.512-0.233,1.049-0.505,1.602-0.813c0.105-0.061,0.232-0.077,0.35-0.045s0.219,0.109,0.279,0.216s0.076,0.23,0.045,0.349
		c-0.033,0.118-0.111,0.221-0.215,0.279c-0.574,0.32-1.135,0.606-1.678,0.85c-0.055,0.027-0.121,0.041-0.184,0.041H55.84z
		 M49.15,60.023c-0.125,0.007-0.24-0.035-0.332-0.117c-0.092-0.081-0.145-0.195-0.152-0.317c-0.008-0.121,0.035-0.24,0.117-0.331
		c0.08-0.091,0.193-0.146,0.314-0.152c1.188-0.134,2.348-0.284,3.428-0.459c0.643-0.095,1.275-0.248,1.887-0.458
		c0.059-0.023,0.121-0.033,0.182-0.03c0.063,0.001,0.121,0.017,0.176,0.041c0.057,0.026,0.107,0.063,0.15,0.11
		c0.041,0.045,0.072,0.099,0.092,0.156c0.021,0.059,0.027,0.121,0.023,0.184c-0.004,0.062-0.018,0.122-0.049,0.176
		c-0.027,0.055-0.064,0.104-0.115,0.143c-0.045,0.039-0.102,0.068-0.16,0.087c-0.664,0.236-1.346,0.412-2.039,0.523
		c-1.104,0.17-2.27,0.321-3.473,0.459H49.15V60.023z M45.924,60.321c-0.123,0.005-0.24-0.039-0.33-0.123
		c-0.09-0.083-0.141-0.197-0.146-0.319c-0.004-0.122,0.039-0.24,0.125-0.33c0.084-0.089,0.197-0.142,0.318-0.146l1.377-0.115
		c0.123-0.011,0.244,0.028,0.336,0.106c0.096,0.079,0.154,0.19,0.164,0.313c0.01,0.121-0.027,0.242-0.105,0.337
		c-0.078,0.092-0.191,0.151-0.311,0.162l-1.377,0.115h-0.037H45.924z M38.557,60.647c-0.123,0-0.242-0.049-0.324-0.134
		c-0.092-0.088-0.135-0.203-0.135-0.325c0-0.121,0.043-0.238,0.135-0.324c0.082-0.086,0.201-0.135,0.324-0.135
		c0,0,0.686,0,1.832-0.032c0.119-0.003,0.238,0.042,0.328,0.124c0.088,0.084,0.139,0.199,0.145,0.32
		c0.004,0.122-0.041,0.242-0.123,0.329c-0.082,0.089-0.201,0.141-0.32,0.145c-1.152,0.032-1.838,0.032-1.838,0.032H38.557z"/>
	<path clip-path="url(#SVGID_2_)" fill="#8AB2EF" d="M57.863,69.454c-0.137-0.005-0.277,0.024-0.4,0.082
		c-0.127,0.058-0.24,0.143-0.326,0.25c-0.088,0.107-0.15,0.231-0.186,0.367c-0.029,0.135-0.037,0.274-0.006,0.41l0.646,3.021
		l0.494,0.828c0.172,0.103,0.373,0.144,0.576,0.116c0.203-0.028,0.385-0.12,0.525-0.263l2.318-2.316
		c0.113-0.112,0.195-0.25,0.238-0.402s0.049-0.314,0.008-0.468c-0.039-0.155-0.117-0.296-0.225-0.41
		c-0.107-0.116-0.244-0.201-0.396-0.248l-3.016-0.917c-0.086-0.028-0.182-0.042-0.273-0.042"/>
	<path clip-path="url(#SVGID_2_)" fill="#C9C7DB" d="M24.875,52.229c-0.326,0.002-0.645,0.076-0.936,0.219
		c-0.295,0.141-0.545,0.345-0.746,0.6c0.201-0.255,0.451-0.459,0.746-0.6C24.23,52.305,24.549,52.23,24.875,52.229
		c0.152-0.001,0.309,0.014,0.459,0.043c4.961,1.013,10.008,1.544,15.068,1.583c3.078,0.02,6.15-0.25,9.178-0.8
		c-3.027,0.55-6.1,0.819-9.178,0.8c-5.061-0.039-10.107-0.57-15.068-1.583C25.184,52.242,25.027,52.228,24.875,52.229z
		 M22.732,54.703l1.402,8.897L22.732,54.703z M76.232,92.831c-1.965,1.584-3.824,3.242-5.6,4.904
		C72.408,96.073,74.268,94.422,76.232,92.831z M70.629,97.741l-0.031,0.034L70.629,97.741z M70.588,97.781l-0.035,0.033
		L70.588,97.781z M70.543,97.825l-0.035,0.034L70.543,97.825z M32.047,102.847H32.1H32.047z M41.158,104.315
		c0.555,0.055,1.121,0.108,1.699,0.155c1.756,0.142,3.615,0.229,5.508,0.229c0.807,0,1.629,0,2.449-0.053
		c-0.82,0.031-1.643,0.053-2.449,0.053c-2.414-0.007-4.824-0.134-7.223-0.385H41.158z"/>
	<path clip-path="url(#SVGID_2_)" fill="#0557C3" d="M24.855,52.217c-0.324,0-0.645,0.074-0.938,0.215
		c-0.289,0.143-0.545,0.348-0.746,0.602c-0.354,0.438-0.518,0.997-0.459,1.557v0.101l1.402,8.898
		c5.863,1.422,11.867,2.167,17.9,2.216c3.771,0.039,7.537-0.377,11.209-1.238c-0.68-1.681-1.264-3.306-1.779-4.847
		c-0.752,0.104-1.523,0.201-2.295,0.288h-0.053c-0.121,0.007-0.238-0.035-0.33-0.116s-0.145-0.194-0.152-0.316
		c-0.006-0.121,0.035-0.242,0.117-0.331c0.08-0.091,0.191-0.146,0.316-0.152c0.725-0.079,1.436-0.166,2.127-0.263
		c-0.686-2.152-1.221-4.13-1.623-5.805c-3.027,0.55-6.098,0.817-9.178,0.798c-5.061-0.039-10.109-0.569-15.068-1.583
		c-0.152-0.028-0.307-0.042-0.461-0.041 M29.967,59.022l-0.746-2.62c-0.016-0.045-0.016-0.091-0.01-0.136
		c0.01-0.045,0.027-0.089,0.057-0.125c0.027-0.036,0.063-0.065,0.105-0.086c0.039-0.021,0.084-0.03,0.131-0.03h0.029h0.283
		c0.049,0.005,0.096,0.021,0.139,0.049c0.039,0.028,0.072,0.067,0.096,0.113l1.502,2.949l2.016,0.185
		c0.1,0.028,0.184,0.089,0.242,0.17c0.059,0.083,0.086,0.181,0.086,0.283c-0.004,0.099-0.039,0.197-0.105,0.275
		c-0.061,0.079-0.152,0.133-0.246,0.155h-0.051l-2.021-0.165l-1.988,2.648c-0.027,0.037-0.061,0.065-0.102,0.087
		c-0.041,0.021-0.084,0.032-0.129,0.032h-0.029h-0.279c-0.049-0.004-0.096-0.02-0.137-0.046c-0.039-0.025-0.074-0.063-0.096-0.104
		c-0.025-0.043-0.039-0.089-0.039-0.138c-0.004-0.048,0.004-0.096,0.027-0.141l1.188-2.449l-1.805-0.156l-0.459,0.721
		c-0.02,0.042-0.061,0.078-0.104,0.103c-0.039,0.023-0.09,0.036-0.143,0.034h-0.676l0.74-1.376l-0.5-1.459l0.674,0.097
		c0.055,0.008,0.102,0.031,0.141,0.063c0.041,0.033,0.07,0.077,0.09,0.126l0.311,0.78l1.805,0.16H29.967z M45.896,60.32
		c-0.063,0.003-0.121-0.007-0.178-0.028c-0.057-0.021-0.107-0.053-0.154-0.096c-0.043-0.04-0.078-0.089-0.104-0.144
		c-0.023-0.056-0.037-0.114-0.041-0.175c0-0.061,0.01-0.121,0.027-0.177c0.023-0.057,0.057-0.109,0.096-0.152
		c0.041-0.045,0.09-0.079,0.146-0.105c0.055-0.024,0.113-0.038,0.172-0.04l1.379-0.115h0.033c0.061-0.004,0.119,0.006,0.176,0.025
		c0.059,0.02,0.109,0.05,0.154,0.092c0.045,0.039,0.084,0.088,0.109,0.143s0.043,0.112,0.043,0.175
		c0.004,0.061-0.004,0.12-0.023,0.177c-0.023,0.057-0.049,0.108-0.094,0.153c-0.041,0.047-0.086,0.082-0.141,0.109
		c-0.057,0.024-0.111,0.04-0.174,0.043l-1.379,0.115H45.91H45.896z M38.557,60.646c-0.123,0-0.242-0.047-0.324-0.133
		c-0.092-0.088-0.135-0.204-0.135-0.326c0-0.121,0.043-0.237,0.135-0.324c0.082-0.085,0.201-0.135,0.324-0.135
		c0,0,0.686,0,1.832-0.03c0.119,0,0.238,0.048,0.326,0.135c0.086,0.085,0.135,0.201,0.135,0.323s-0.049,0.239-0.135,0.324
		c-0.088,0.087-0.207,0.135-0.326,0.135C39.238,60.646,38.557,60.646,38.557,60.646z"/>
	<path clip-path="url(#SVGID_2_)" fill="#567CC9" d="M24.135,63.603l4.732,29.993l1.111,7.046c0.084,0.537,0.324,1.03,0.693,1.425
		s0.85,0.667,1.375,0.787h0.057l0.455,0.096l0.285,0.058c0.84,0.177,1.836,0.372,3.021,0.569c0.74,0.123,1.537,0.246,2.385,0.369
		c0.686,0.095,1.377,0.185,2.143,0.269l0.783,0.087c2.396,0.252,4.811,0.381,7.223,0.386c0.809,0,1.629,0,2.447-0.05
		c7.129-0.3,14.594-1.987,19.676-6.792l0.035-0.03l0.035-0.039l0.035-0.031c1.77-1.666,3.629-3.322,5.594-4.907
		c-8.156-4.692-13.984-11.473-18.125-18.419c-0.113-0.061-0.215-0.146-0.295-0.249c-0.08-0.104-0.135-0.224-0.164-0.351l-0.051-0.23
		c-1.66-2.896-3.121-5.906-4.371-9.003c-3.662,0.859-7.418,1.275-11.182,1.239c-6.029-0.049-12.039-0.794-17.898-2.218
		 M44.252,80.048c-4.084-0.021-8.154-0.402-12.174-1.142c-0.553-0.101-1.064-0.37-1.461-0.768s-0.662-0.906-0.76-1.461l-0.885-4.814
		c-0.076-0.399-0.063-0.812,0.043-1.204c0.1-0.394,0.285-0.761,0.545-1.074c0.26-0.312,0.582-0.565,0.949-0.74
		c0.369-0.174,0.768-0.264,1.176-0.267c0.152-0.002,0.305,0.007,0.459,0.03c3.414,0.544,6.871,0.826,10.334,0.84
		c2.828,0.02,5.652-0.226,8.434-0.729c0.178-0.034,0.355-0.052,0.539-0.05c0.648-0.012,1.281,0.209,1.785,0.622
		c0.504,0.411,0.846,0.99,0.967,1.631l0.959,5.102c0.07,0.357,0.07,0.727,0,1.083c-0.072,0.354-0.215,0.697-0.42,0.996
		c-0.201,0.303-0.465,0.563-0.768,0.759c-0.305,0.201-0.643,0.342-1.002,0.409C50.098,79.808,47.178,80.067,44.252,80.048z
		 M43.871,86.656c4.416,0.044,8.822-0.427,13.131-1.403c0.838-0.204,1.719-0.067,2.455,0.378c0.734,0.448,1.264,1.17,1.467,2.004
		l1.406,5.867c0.199,0.829,0.068,1.703-0.371,2.431c-0.439,0.729-1.152,1.255-1.982,1.455c-4.416,1.025-8.945,1.523-13.484,1.474
		c-3.615-0.005-7.227-0.247-10.809-0.729c-0.65-0.083-1.258-0.37-1.74-0.806c-0.486-0.442-0.824-1.02-0.971-1.657l-1.293-5.526
		c-0.115-0.474-0.117-0.97-0.014-1.445c0.104-0.475,0.316-0.92,0.619-1.304c0.303-0.381,0.688-0.688,1.131-0.899
		c0.436-0.21,0.918-0.318,1.408-0.315c0.115,0,0.232,0,0.355,0c2.889,0.315,5.789,0.477,8.691,0.48V86.656z"/>
	<path clip-path="url(#SVGID_2_)" fill="#6D8ACD" d="M31.686,68.578c-0.408,0-0.809,0.089-1.176,0.263
		c-0.369,0.172-0.693,0.423-0.955,0.736c-0.26,0.313-0.447,0.679-0.551,1.072c-0.102,0.394-0.117,0.804-0.045,1.203l0.885,4.814
		c0.098,0.554,0.363,1.063,0.762,1.464s0.906,0.666,1.461,0.764c4.02,0.745,8.096,1.132,12.186,1.153
		c2.926,0.02,5.846-0.24,8.721-0.777c0.354-0.071,0.695-0.208,0.994-0.409c0.303-0.202,0.563-0.459,0.764-0.759
		c0.203-0.299,0.342-0.638,0.416-0.993c0.072-0.354,0.072-0.721,0-1.076l-0.957-5.103c-0.119-0.64-0.461-1.219-0.965-1.631
		c-0.504-0.413-1.139-0.633-1.791-0.621c-0.18-0.002-0.359,0.015-0.537,0.051c-2.783,0.503-5.605,0.746-8.434,0.729
		c-3.459-0.016-6.914-0.296-10.334-0.841c-0.152-0.021-0.303-0.033-0.461-0.032"/>
	<path clip-path="url(#SVGID_2_)" fill="#6D8ACD" d="M57.777,85.161c-0.262-0.004-0.521,0.027-0.775,0.089
		c-4.309,0.975-8.715,1.447-13.131,1.406c-2.902-0.007-5.803-0.166-8.691-0.482c-0.123,0-0.24,0-0.357,0
		c-0.488-0.006-0.971,0.104-1.408,0.313c-0.441,0.213-0.826,0.521-1.129,0.904c-0.307,0.384-0.516,0.828-0.621,1.307
		c-0.105,0.476-0.102,0.97,0.016,1.445l1.293,5.504c0.146,0.638,0.484,1.215,0.971,1.656c0.482,0.443,1.09,0.724,1.736,0.81
		c3.586,0.484,7.197,0.737,10.813,0.748c4.539,0.044,9.068-0.448,13.484-1.474c0.83-0.203,1.543-0.727,1.982-1.455
		c0.439-0.73,0.57-1.604,0.371-2.431l-1.406-5.869c-0.168-0.709-0.57-1.338-1.143-1.789C59.211,85.396,58.506,85.155,57.777,85.161z
		"/>
	<path clip-path="url(#SVGID_2_)" fill="#C9C7DB" d="M29.49,56.025c-0.045,0-0.088,0.01-0.131,0.03s-0.076,0.05-0.104,0.086
		c-0.029,0.036-0.049,0.08-0.057,0.125s-0.006,0.091,0.006,0.136l0.75,2.62l-1.803-0.16l-0.313-0.78
		c-0.018-0.049-0.053-0.093-0.09-0.126c-0.039-0.031-0.09-0.055-0.141-0.063l-0.676-0.097l0.502,1.459l-0.744,1.376h0.682
		c0.047,0.002,0.096-0.011,0.141-0.034c0.041-0.024,0.08-0.061,0.107-0.103l0.457-0.721l1.805,0.156l-1.189,2.449
		c-0.02,0.045-0.031,0.093-0.031,0.141c0.004,0.049,0.016,0.097,0.039,0.139c0.025,0.042,0.059,0.077,0.102,0.103
		c0.039,0.026,0.084,0.042,0.135,0.046h0.279h0.027c0.045,0,0.09-0.012,0.129-0.032c0.043-0.02,0.078-0.05,0.104-0.087l1.988-2.647
		l2.02,0.165h0.049c0.098-0.023,0.186-0.077,0.252-0.156c0.063-0.078,0.098-0.175,0.102-0.275c0.006-0.103-0.029-0.2-0.086-0.283
		c-0.063-0.081-0.145-0.142-0.24-0.17l-2.018-0.185l-1.516-2.928c-0.021-0.045-0.055-0.082-0.094-0.11
		c-0.043-0.028-0.09-0.046-0.141-0.051h-0.285h-0.025"/>
	<path clip-path="url(#SVGID_2_)" fill="#C9C7DB" d="M51.182,58.829c-0.691,0.097-1.404,0.186-2.129,0.263
		c-0.123,0.006-0.234,0.062-0.318,0.152c-0.078,0.091-0.121,0.21-0.113,0.331c0.004,0.122,0.061,0.236,0.15,0.317
		c0.092,0.081,0.209,0.124,0.334,0.117h0.051c0.787-0.087,1.561-0.185,2.295-0.29c-0.1-0.299-0.197-0.591-0.285-0.884
		 M47.281,59.288h-0.029l-1.379,0.115c-0.123,0.004-0.238,0.057-0.318,0.146c-0.084,0.09-0.129,0.207-0.123,0.33
		c0.002,0.121,0.055,0.235,0.145,0.319c0.09,0.083,0.207,0.128,0.332,0.123h0.031l1.379-0.115c0.123-0.007,0.234-0.061,0.318-0.152
		c0.08-0.091,0.123-0.209,0.115-0.331c-0.008-0.121-0.063-0.235-0.154-0.317c-0.09-0.082-0.207-0.124-0.33-0.117H47.281z
		 M40.396,59.697c-1.135,0.032-1.836,0.032-1.836,0.032c-0.119,0-0.234,0.048-0.324,0.135c-0.084,0.085-0.135,0.203-0.135,0.324
		c0,0.122,0.051,0.237,0.135,0.324c0.09,0.086,0.205,0.133,0.324,0.133c0,0,0.705,0,1.836-0.03c0.125,0,0.242-0.049,0.326-0.134
		c0.086-0.087,0.133-0.203,0.133-0.325s-0.047-0.239-0.133-0.324C40.639,59.745,40.521,59.697,40.396,59.697z"/>
</g>
</svg>
