<?xml version="1.0" encoding="utf-8"?>
<!-- Generator: Adobe Illustrator 16.0.0, SVG Export Plug-In . SVG Version: 6.00 Build 0)  -->
<!DOCTYPE svg PUBLIC "-//W3C//DTD SVG 1.1//EN" "http://www.w3.org/Graphics/SVG/1.1/DTD/svg11.dtd">
<svg version="1.1" id="레이어_1" xmlns="http://www.w3.org/2000/svg" xmlns:xlink="http://www.w3.org/1999/xlink" x="0px"
	 y="0px" width="130px" height="130px" viewBox="0 0 130 130" enable-background="new 0 0 130 130" xml:space="preserve">
<g>
	<g>
		<defs>
			<rect id="SVGID_21_" x="19.604" y="10.227" width="90.792" height="109.55"/>
		</defs>
		<clipPath id="SVGID_2_">
			<use xlink:href="#SVGID_21_"  overflow="visible"/>
		</clipPath>
		<path clip-path="url(#SVGID_2_)" fill="#E6EFFB" d="M58.872,112.896c-3.714,0-7.432,0.031-11.142,0.281
			c-3.324,0.221-6.569,1.164-9.854,1.412c-8.433,0.633-13.547,0.689-13.547,1.75c0,2.313,13.511,2.607,14.844,2.701
			c7.886,0.555,15.777,0.736,23.669,0.736c7.965,0,15.945-0.104,23.892-0.375c1.788-0.061,3.432-0.629,5.197-0.809
			c5.872-0.604,9.429-1.393,9.429-2.254c0-2.426-15.326-2.752-16.799-2.857c-0.254,0-0.537-0.023-0.844-0.023
			c-1.072,0-2.474,0.086-3.875,0.172c-1.4,0.086-2.809,0.168-3.932,0.168c-0.225,0-0.438,0-0.643,0
			c-4.144-0.15-8.25-0.902-12.404-0.902H58.872z"/>
	</g>
	<path fill="#6D9FEB" d="M102.363,78.736c-3.779,5.27-8.75,9.699-14.52,12.939c-0.811,0.461-1.641,0.91-2.48,1.32
		c-0.14,0.07-0.27,0.131-0.41,0.199c-0.119,0.07-0.25,0.131-0.379,0.191c-0.051,0.02-0.101,0.039-0.16,0.07
		c-0.041,0.02-0.09,0.039-0.141,0.059c-0.04,0.021-0.09,0.041-0.13,0.061c-0.229,0.1-0.45,0.199-0.681,0.301
		c-0.1,0.039-0.199,0.08-0.299,0.129c-0.041,0.02-0.09,0.041-0.131,0.051c-0.05,0.029-0.1,0.049-0.15,0.061
		c-0.059,0.039-0.129,0.068-0.189,0.09c-0.061,0.02-0.13,0.049-0.189,0.068c-0.061,0.021-0.11,0.041-0.16,0.061
		c-0.09,0.051-0.18,0.08-0.27,0.109c-0.07,0.031-0.131,0.061-0.201,0.08c-0.17,0.07-0.34,0.141-0.5,0.191
		c-0.25,0.1-0.49,0.189-0.729,0.27c-0.08,0.029-0.17,0.061-0.25,0.09c-0.19,0.061-0.38,0.119-0.569,0.189
		c-0.181,0.061-0.361,0.121-0.541,0.17c-0.199,0.07-0.4,0.131-0.6,0.191c-0.02,0.01-0.051,0.02-0.08,0.029
		c-0.311,0.09-0.62,0.189-0.939,0.27c-0.031,0-0.051,0.01-0.08,0.02c0,0,0,0-0.01,0.012c0,0,0,0-0.011,0
		c-0.01,0.01-0.04,0.01-0.069,0.02c-0.051,0.01-0.111,0.029-0.16,0.039h-0.01c-0.311,0.09-0.631,0.17-0.941,0.25
		c-0.379,0.102-0.77,0.191-1.159,0.281c-0.771,0.17-1.56,0.33-2.341,0.459c-0.25,0.041-0.489,0.08-0.739,0.121
		c-0.229,0.039-0.47,0.068-0.7,0.1c-0.699,0.1-1.41,0.189-2.119,0.25c-0.791,0.07-1.591,0.129-2.391,0.16
		c-0.68,0.029-1.37,0.039-2.051,0.039c-0.379,0-0.75,0-1.129-0.01c-0.26-0.01-0.521-0.02-0.78-0.029c-0.17,0-0.33-0.01-0.5-0.02
		c-2.18-0.111-4.33-0.371-6.419-0.771c-0.72-0.139-1.431-0.289-2.13-0.459c-1.41-0.34-2.791-0.74-4.141-1.201
		c-0.34-0.119-0.68-0.24-1.01-0.359c-0.34-0.119-0.67-0.25-1-0.381c-0.21-0.078-0.42-0.158-0.63-0.25
		c-0.351-0.148-0.7-0.299-1.05-0.449c-0.131-0.061-0.27-0.119-0.4-0.189c0,0-0.01,0.01-0.01,0c-0.21-0.09-0.42-0.189-0.63-0.291
		c-0.021-0.01-0.05-0.02-0.07-0.029h-0.01v-0.01c-0.011,0-0.021,0-0.021,0v-0.01c-0.029-0.01-0.06-0.021-0.09-0.041
		c-0.25-0.109-0.5-0.23-0.75-0.369c-0.119-0.051-0.24-0.111-0.359-0.17c-0.01-0.01-0.021-0.01-0.03-0.02
		c-0.05-0.031-0.101-0.051-0.149-0.08c-0.011,0-0.021,0-0.031-0.021h-0.02l-0.01-0.01c-0.02,0-0.03-0.01-0.04-0.02
		c-0.011,0-0.021,0-0.021-0.01c-0.09-0.041-0.17-0.08-0.25-0.131l-0.24-0.119c-0.209-0.121-0.42-0.23-0.629-0.34
		c-0.101-0.051-0.201-0.111-0.301-0.17c-0.189-0.111-0.369-0.221-0.56-0.33c-0.11-0.061-0.229-0.131-0.351-0.201
		c-0.299-0.17-0.6-0.35-0.899-0.549c-0.05-0.041-0.101-0.07-0.149-0.1c-0.101-0.061-0.191-0.121-0.291-0.182
		c-0.1-0.059-0.209-0.129-0.31-0.199c-0.04-0.02-0.091-0.051-0.13-0.08c-0.051-0.039-0.09-0.07-0.141-0.1
		c-0.039-0.031-0.09-0.061-0.14-0.09c-0.069-0.051-0.149-0.1-0.22-0.15c-0.12-0.09-0.24-0.17-0.36-0.25
		c-0.05-0.041-0.101-0.08-0.149-0.109c-0.11-0.07-0.211-0.141-0.32-0.221c-0.04-0.029-0.09-0.061-0.131-0.09
		c-0.209-0.16-0.409-0.311-0.619-0.461c-0.02,0-0.051-0.02-0.07-0.049c-0.02-0.01-0.04-0.031-0.061-0.051
		c-0.029-0.01-0.049-0.029-0.069-0.049h-0.01c-0.011,0-0.011,0-0.011-0.012l-0.01-0.01c-0.07-0.049-0.13-0.09-0.189-0.148
		c-0.17-0.121-0.34-0.25-0.51-0.391c-0.041-0.029-0.09-0.07-0.131-0.1c-0.02-0.01-0.05-0.031-0.07-0.051
		c-0.329-0.25-0.649-0.51-0.969-0.789c-0.051-0.041-0.101-0.08-0.141-0.131c-0.05-0.039-0.1-0.08-0.15-0.131
		c-0.09-0.059-0.17-0.139-0.26-0.219c-0.01,0.02-0.01,0.01-0.02-0.01c-0.07-0.07-0.15-0.131-0.221-0.191
		c-0.16-0.148-0.319-0.299-0.479-0.43c-0.06-0.039-0.11-0.09-0.17-0.139c0-0.012-0.011-0.012-0.011-0.012
		c-0.039-0.029-0.08-0.068-0.119-0.109c-0.221-0.199-0.44-0.41-0.66-0.641c-0.03,0-0.061-0.029-0.09-0.078
		c-0.01-0.012-0.01-0.021-0.02-0.021c-0.24-0.229-0.471-0.459-0.701-0.689l-0.01-0.01h-0.01v-0.01
		c-6.46-6.52-10.85-14.979-12.12-24.45c-0.17-1.25-0.28-2.51-0.34-3.789c-0.04-0.83-0.05-1.65-0.03-2.471
		c0.19-14.34,7.61-27.16,19.03-35.02c6.92-4.79,15.3-7.75,24.419-8.14c10.49-0.45,20.29,2.57,28.22,8.009h0.01
		c0.19,0.121,0.371,0.25,0.551,0.381c0.199,0.13,0.39,0.27,0.58,0.4c0.15,0.109,0.3,0.219,0.449,0.34
		c0.021,0.01,0.041,0.02,0.051,0.029c0.02,0.01,0.039,0.03,0.06,0.051c0.011,0.01,0.03,0.02,0.04,0.029s0.02,0.02,0.03,0.02
		c0.01,0,0.01,0,0.01,0.011c0.03,0.021,0.06,0.04,0.08,0.06c0.06,0.041,0.12,0.09,0.17,0.131c0.011,0.01,0.03,0.02,0.04,0.029
		s0.029,0.02,0.04,0.02c0.021,0.021,0.04,0.031,0.06,0.051c0.07,0.061,0.15,0.119,0.221,0.18c0.119,0.09,0.25,0.189,0.369,0.29
		c0.131,0.101,0.261,0.21,0.391,0.33c0.02,0,0.04,0.021,0.061,0.04c0.02,0.02,0.039,0.029,0.069,0.05
		c0.021,0.011,0.04,0.03,0.06,0.06c0.041,0.021,0.07,0.051,0.101,0.07c0.03,0.03,0.06,0.061,0.101,0.1
		c0.219,0.181,0.43,0.371,0.639,0.551c0.091,0.061,0.17,0.141,0.261,0.22c0.06,0.05,0.13,0.11,0.19,0.16
		c0.069,0.06,0.14,0.12,0.199,0.181c0.03,0.02,0.051,0.039,0.07,0.069c0.26,0.229,0.51,0.47,0.76,0.71
		c0.061,0.051,0.12,0.109,0.18,0.17c0.17,0.16,0.34,0.33,0.5,0.5c0.101,0.09,0.19,0.17,0.271,0.26c0.09,0.09,0.181,0.18,0.26,0.271
		c0.011,0.01,0.03,0.03,0.04,0.04c0.061,0.061,0.11,0.109,0.17,0.17c0.051,0.05,0.11,0.109,0.16,0.17c0.01,0,0.01,0,0.02,0.01
		c0.011,0.02,0.031,0.04,0.051,0.061c0.33,0.34,0.64,0.699,0.949,1.05c0.11,0.13,0.23,0.25,0.34,0.38
		c0.011,0.01,0.011,0.02,0.021,0.02c0.07,0.08,0.13,0.15,0.2,0.23c0.1,0.12,0.2,0.25,0.311,0.37c0.049,0.06,0.09,0.11,0.129,0.17
		c0.131,0.149,0.25,0.3,0.371,0.45c0.09,0.109,0.17,0.22,0.26,0.33c0,0,0.01,0,0.02,0.01c0.02,0.029,0.04,0.05,0.061,0.08
		c0.109,0.13,0.209,0.27,0.31,0.41c0.05,0.07,0.11,0.14,0.16,0.209c0.13,0.181,0.26,0.371,0.399,0.551
		c0.051,0.05,0.09,0.109,0.131,0.17c0.05,0.061,0.1,0.13,0.14,0.189c0.19,0.261,0.38,0.531,0.54,0.791
		c0.029,0.02,0.04,0.029,0.04,0.049c0.03,0.041,0.069,0.091,0.101,0.141c0.01,0.02,0.029,0.051,0.049,0.07v0.01
		c0.021,0.02,0.041,0.04,0.041,0.061c0.01,0.02,0.029,0.039,0.049,0.06c0.011,0.021,0.031,0.04,0.041,0.06
		c0.029,0.041,0.06,0.09,0.09,0.131c0.01,0.029,0.029,0.049,0.05,0.08c0.05,0.069,0.101,0.149,0.149,0.229c0,0,0,0.01,0.011,0.01
		l0.01,0.011c2.47,3.819,4.351,8.039,5.511,12.549c0.709,2.781,1.149,5.681,1.279,8.66
		C110.793,61.907,107.783,71.177,102.363,78.736z"/>
	<path fill="#73CEC6" d="M72.265,37.995l-0.872-2.24l-1.572-0.572c0,0-1.602,0.887-1.477,1.522s0.536,3.349,0.536,3.349
		c0.147,0.561,0.206,1.143,0.171,1.722c-0.053,1.005,1.613,1.479,1.988,1.282c0.375-0.195,1.333-0.421,1.604-0.889
		c0.271-0.469,0.986-1.684,0.687-1.944c-0.328-0.269-0.605-0.596-0.814-0.964C72.403,38.845,72.32,38.422,72.265,37.995z"/>
	<path fill="#73CEC6" d="M67.336,38.842c0,0-1.787-0.468-2.127-0.183c-0.34,0.287-1.051,0.137-1.012,1.047
		c0.039,0.912,0.325,1.352,0.6,1.615c0.275,0.266,1.881,0.559,1.881,0.559l1.187-1.055L67.336,38.842z"/>
	<path fill="#73CEC6" d="M109.074,43.356l-0.261,0.15l-1.05,0.6l-0.08,0.051l-0.311,0.17c-0.229,0.13-0.41,0.32-0.539,0.54
		c-0.051,0.11-0.101,0.22-0.131,0.34c-0.039,0.12-0.06,0.25-0.05,0.38c0.011,1.07,0.04,2.859,0.08,4c0.011,0.2,0.021,0.38,0.03,0.54
		c0.01,0.229,0.02,0.39,0.04,0.46c0.021,0.09,0.069,0.359,0.12,0.721c0.01,0.09,0.029,0.18,0.039,0.279
		c0.011,0.061,0.021,0.141,0.031,0.21c0.01,0.07,0.02,0.14,0.029,0.21c0.07,0.45,0.141,0.95,0.2,1.43c0.06,0.4,0.11,0.78,0.149,1.11
		c0.01,0.11,0.03,0.21,0.041,0.31c0.01,0.08,0.02,0.15,0.029,0.221c0.03,0.189,0.02,0.39-0.02,0.58l-0.061,0.18
		c-0.02,0.07-0.05,0.13-0.08,0.18l-1.63,3c-0.1,0.211-0.26,0.381-0.46,0.51c-0.07,0.051-0.15,0.091-0.24,0.121
		c-0.08,0.029-0.17,0.049-0.25,0.06c-0.05,0.01-0.09,0.01-0.14,0.01c-0.01,0.011-0.03,0.011-0.04,0.011c-0.279,0-0.609,0-0.96-0.011
		c-0.45,0-0.92,0-1.33-0.021c-0.09,0-0.17,0-0.25-0.01c-0.159-0.01-0.319-0.02-0.44-0.039c-0.14-0.01-0.25-0.03-0.33-0.051
		c-0.109-0.02-0.189-0.05-0.199-0.09c-0.09-0.24-1.939-2.38-2.561-3.1c-0.119-0.141-0.22-0.32-0.279-0.51c0-0.01,0-0.01,0-0.021
		c-0.08-0.22-0.19-0.56-0.33-0.94c-0.03-0.09-0.07-0.189-0.11-0.289c-0.08-0.24-0.18-0.49-0.28-0.73c-0.35-0.87-0.75-1.68-1.01-1.68
		c-0.38,0.02-1.96-0.221-2.98-0.381c-0.189-0.02-0.379,0-0.56,0.051c-0.18,0.06-0.35,0.15-0.489,0.27
		c-0.141,0.131-0.261,0.28-0.34,0.45c-0.08,0.17-0.121,0.351-0.121,0.54c-0.01,0.15-0.01,0.29,0.01,0.439
		c0.15,1.17-0.119,1.681-0.039,3.44c0.08,1.771-2.5,2.37-2.721,1.69c-0.229-0.68-3.8-0.53-4.09-0.521
		c-0.279,0.021-2.57,0.8-2.96,0.62c-0.229-0.1-1.26-1.17-2.1-2.07c-0.14-0.16-0.32-0.279-0.53-0.359
		c-0.199-0.07-0.42-0.09-0.641-0.051c-0.209,0.031-0.42,0.121-0.59,0.261c-0.17,0.13-0.299,0.31-0.379,0.51v0.021
		c-0.271,0.6-3.23,1.22-3.701,1.629c-0.459,0.42-3.26,0.44-3.75,0.361c-0.479-0.08-1.739-2.191-1.879-3.361
		c-0.17-1.529-0.24-3.069-0.211-4.6c0.051-0.43-0.379-0.76-0.72-0.949c-0.21-0.121-0.46-0.181-0.71-0.16l-0.83,0.08
		c-0.289,0.02-0.57-0.061-0.81-0.211c-0.24-0.16-0.431-0.39-0.53-0.649l-0.32-0.8c-0.1-0.25-0.14-0.53-0.1-0.791l0.1-0.739
		c0.041-0.28,0.16-0.54,0.34-0.75l1.031-1.22c0.129-0.15,0.299-0.271,0.479-0.35c0.19-0.08,0.39-0.111,0.6-0.101l3.89,0.319
		c0.07,0.011,0.15,0.011,0.221,0l1.65-0.16c0.049,0,0.09-0.01,0.129-0.02c0.511-0.1,3.781-0.81,3.92-1.73
		c0.091-0.639,0.381-2.43,0.57-3.629c0.041-0.301,0.19-0.59,0.41-0.801c0.23-0.22,0.52-0.35,0.83-0.369l6.43-0.36
		c0.09,0,0.17-0.021,0.25-0.04l1.641-0.4c0.31-0.08,0.58-0.279,0.76-0.539l1.58-2.33c0.09-0.131,0.15-0.271,0.189-0.42l0.57-1.971
		c0.09-0.29,0.09-0.59,0-0.87s-0.25-0.53-0.48-0.72l-2.6-2.051c-0.189-0.159-0.42-0.25-0.66-0.279c-0.24-0.02-0.49,0.02-0.699,0.13
		c-0.82,0.41-2.08,1.08-2.381,1.431c-0.59,0.56-1.209,1.08-1.869,1.549c-0.19,0.16-3.58,0.301-5.551,0.361
		c-0.18,0-0.369-0.041-0.539-0.111c-0.17-0.08-0.33-0.18-0.461-0.319c-0.129-0.14-0.229-0.3-0.289-0.47
		c-0.07-0.18-0.101-0.37-0.09-0.551c-0.011-1.24,0.039-2.479,0.149-3.72c0.159-0.71,3.851-4.78,4.229-5
		c0.301-0.17,3.43-0.78,4.621-1.01c0.299-0.06,0.609,0,0.869,0.149c0.561,0.33,1.46,0.871,1.48,1.25
		c0.01,0.391,1.32,0.11,1.869-0.02c0.16-0.04,0.311-0.109,0.451-0.21l1.92-1.42l0.58-0.42c0.06-0.05,0.209-0.31,0.399-0.69
		l0.12-0.24c0.08-0.16,0.17-0.35,0.26-0.539c0-0.01,0.01-0.021,0.01-0.03c0.01,0,0.01-0.011,0.01-0.011
		c0.19,0.121,0.371,0.25,0.551,0.381c0.199,0.13,0.39,0.27,0.58,0.4c0.15,0.109,0.3,0.219,0.449,0.34
		c0.021,0.01,0.041,0.02,0.051,0.029c0.14,0.1,0.289,0.211,0.43,0.33c0.109,0.07,0.21,0.15,0.32,0.25
		c0.119,0.09,0.25,0.189,0.369,0.29c0.131,0.101,0.261,0.21,0.391,0.33c0.02,0,0.04,0.021,0.061,0.04
		c0.02,0.02,0.039,0.029,0.069,0.05c0.05,0.03,0.11,0.07,0.16,0.13c0.08,0.061,0.149,0.12,0.22,0.19
		c0.07,0.069,0.15,0.13,0.221,0.19c0.049,0.039,0.1,0.08,0.14,0.119c0.14,0.12,0.28,0.24,0.42,0.37c0.06,0.05,0.13,0.11,0.19,0.16
		c0.069,0.06,0.14,0.12,0.199,0.181c0.03,0.02,0.051,0.039,0.07,0.069c0.13,0.101,0.26,0.22,0.38,0.34
		c0.13,0.12,0.261,0.24,0.38,0.37c0.061,0.051,0.12,0.109,0.18,0.17c0.17,0.16,0.34,0.33,0.5,0.5c0.101,0.09,0.19,0.17,0.271,0.26
		c0.09,0.09,0.181,0.18,0.26,0.271c0.14,0.13,0.261,0.26,0.39,0.39c0.015,0.021,0.033,0.039,0.051,0.058
		c0.325,0.343,0.637,0.698,0.948,1.054c0.112,0.127,0.231,0.25,0.341,0.379c0.011,0.01,0.011,0.02,0.021,0.02
		c0.341,0.4,0.681,0.801,1.011,1.221c0.08,0.09,0.16,0.189,0.229,0.279c0.021,0.021,0.03,0.041,0.05,0.061
		c0.02,0.029,0.04,0.05,0.061,0.08c0.109,0.13,0.209,0.27,0.31,0.41c0.05,0.07,0.11,0.14,0.16,0.209
		c0.13,0.181,0.26,0.371,0.399,0.551c0.051,0.05,0.101,0.109,0.131,0.17c0.05,0.061,0.1,0.13,0.14,0.189
		c0.19,0.261,0.38,0.531,0.54,0.791c0.029,0.02,0.04,0.029,0.04,0.049c0.03,0.041,0.069,0.091,0.101,0.141
		c0.01,0.02,0.029,0.051,0.049,0.07c0,0,0.01,0,0,0.01c0.021,0.02,0.041,0.04,0.041,0.061c0.029,0.02,0.039,0.039,0.049,0.06
		c0.011,0.021,0.031,0.04,0.041,0.06c0.029,0.041,0.06,0.09,0.09,0.131c0.01,0.029,0.029,0.049,0.05,0.08
		c0.05,0.069,0.101,0.149,0.149,0.229c0,0,0,0.01,0.011,0.01l0.01,0.011C106.033,34.627,107.914,38.847,109.074,43.356z"/>
	<path fill="#73CEC6" d="M58.907,24.649c0,0-3.199-0.258-3.574,0.054s-1.998,2.934-1.998,2.934s-0.493,1.89,0.036,2.948
		c0.528,1.057,3.306,2.705,3.481,2.305s1.137-0.54,2.345-1.572c0.714-0.659,1.461-1.281,2.237-1.865
		c0.751-0.521,2.667-0.896,2.824-1.69s0.418-1.493-0.394-2.341C63.053,24.575,58.907,24.649,58.907,24.649z"/>
	<path fill="#73CEC6" d="M49.704,26.317l-3.26,4.76c0,0-2.439,3.73-1.779,5.57c0.649,1.84,0.18,2.35,0.42,5.289
		c0.24,2.94-6.791,1.17-6.791,1.17s-5.52-0.549-5.92-0.529c-0.399,0.02-1.17,2.21-1.43,3.01c-0.25,0.79-1.68,1.051-2.35,1.28
		c-0.67,0.22-3.67,0.149-3.67,0.149l-1.9,0.68c0,0-2.641,1.381-3.01,1.891c-0.36,0.51-0.221,1.59-0.061,2.859
		c0.051,0.441-0.109,0.75-0.34,0.98c0.19-14.34,7.61-27.16,19.03-35.02c0.521,0.23,0.51,0.77,0.92,1.57
		c0.54,1.06,1.75,2.479,2.33,2.449c0.58-0.02,1.92-0.18,2.19-0.58c0.279-0.41,2.629-1.689,2.629-1.689l0.721,0.66
		c-0.109-0.78,1.891,2.57,2.27,2.949C50.094,24.138,49.704,26.317,49.704,26.317z"/>
	<path fill="#73CEC6" d="M44.014,88.105c1.21,1.041,0.949,3.871,1.07,4.32c0.039,0.18-0.03,0.48-0.131,0.791v0.01
		c-0.029-0.01-0.06-0.031-0.09-0.051c-0.25-0.109-0.5-0.23-0.75-0.369c-0.119-0.051-0.24-0.111-0.359-0.17
		c-0.01-0.01-0.021-0.01-0.03-0.02c-0.05-0.031-0.101-0.051-0.149-0.08c-0.011,0-0.021,0-0.031-0.021h-0.02l-0.01-0.01
		c-0.02,0-0.03-0.01-0.04-0.02c-0.011,0-0.021,0-0.021-0.01l-11.33-8.32l-0.01-0.01h-0.01v-0.01
		c-6.46-6.52-10.85-14.979-12.12-24.45l2.25,1.28c0,0,4.75,0.44,6,0.38c1.261-0.05,4.8-0.75,5.95-0.979s4.949-1.57,6.189-1.99
		c1.24-0.431,3.58,4.59,4.381,5c0.789,0.41,1.359,4.95,1.5,5.771c0.149,0.81,0.02,2.449,0.149,3.27
		c0.13,0.811-1.489,3.529-1.489,3.529s-4.69,2.931-5.34,3.69c-0.641,0.75-1.221,2.869-1.171,4.059c0.05,1.182,0.729,1.15,2.12,2.182
		c0.13,0.1,0.26,0.189,0.391,0.27c0,0.01,0.01,0.01,0.01,0.01c0.01,0,0.02,0.01,0.029,0.01c0.07,0.051,0.141,0.1,0.211,0.141
		c0.069,0.039,0.14,0.08,0.209,0.119c0.01,0,0.01,0.01,0.01,0.01c0.131,0.09,0.261,0.17,0.381,0.23
		c0.13,0.07,0.25,0.141,0.369,0.211c0.011,0,0.021,0,0.031,0.01c0.119,0.08,0.239,0.139,0.369,0.199
		c0.07,0.041,0.141,0.08,0.211,0.131c0.08,0.039,0.159,0.09,0.25,0.15c0.08,0.039,0.159,0.09,0.25,0.158
		c0.08,0.051,0.17,0.111,0.26,0.17c0.08,0.061,0.17,0.131,0.26,0.201C43.844,87.957,43.924,88.025,44.014,88.105z"/>
	<path fill="#73CEC6" d="M102.363,78.736c-3.779,5.27-8.75,9.699-14.52,12.939c-0.811,0.461-1.641,0.91-2.48,1.32
		c-0.14,0.07-0.27,0.131-0.41,0.199c-0.119,0.07-0.25,0.131-0.379,0.191c-0.051,0.02-0.101,0.039-0.16,0.07
		c-0.041,0.02-0.09,0.039-0.141,0.059c-0.04,0.021-0.09,0.041-0.13,0.061c-0.229,0.1-0.45,0.199-0.681,0.301
		c-0.1,0.039-0.199,0.08-0.299,0.129c-0.041,0.02-0.09,0.041-0.131,0.051c-0.05,0.029-0.1,0.049-0.15,0.061
		c-0.059,0.039-0.129,0.068-0.189,0.09c-1.68,0.719-3.4,1.33-5.16,1.83c0.01-0.021,0.021-0.051,0.03-0.08c0.011,0,0.011,0,0.011,0
		v-0.012c0.029-0.068,0.069-0.129,0.109-0.199c0-0.01,0-0.029,0.02-0.039c0.051-0.111,0.11-0.221,0.17-0.32
		c0.19-0.35,0.391-0.711,0.59-1.07c0.011-0.029,0.021-0.061,0.041-0.08c0.039-0.08,0.09-0.16,0.14-0.24
		c0-0.02,0.01-0.029,0.021-0.039c0.299-0.512,0.59-0.98,0.81-1.271c0.03-0.039,0.05-0.08,0.08-0.119
		c0.04-0.051,0.062-0.1,0.069-0.146c0.007-0.045,0-0.09-0.02-0.133c-0.02-0.031-0.04-0.061-0.07-0.08c0-0.012-0.01-0.021-0.02-0.021
		c-0.02-0.029-0.04-0.039-0.061-0.049c-0.029-0.02-0.07-0.041-0.109-0.061c-0.061-0.039-0.131-0.061-0.2-0.09
		c-0.011-0.01-0.021-0.01-0.03-0.01c-0.02-0.01-0.029-0.02-0.039-0.02c-0.101-0.031-0.221-0.061-0.341-0.09
		c-0.12-0.031-0.26-0.061-0.399-0.08c-0.09-0.021-0.181-0.041-0.28-0.051c-0.101-0.01-0.19-0.02-0.29-0.029
		c-0.1-0.021-0.2-0.031-0.301-0.041c-0.1-0.01-0.199-0.02-0.299-0.02c-0.19-0.02-0.391-0.029-0.58-0.041
		c-0.19-0.01-0.371-0.01-0.53-0.01h-0.06c-0.011,0-0.011,0-0.021,0c-0.057-0.002-0.11,0.006-0.167,0.008
		c-0.021,0.002-0.044,0-0.063,0.002c-0.08,0-0.15,0.012-0.23,0.012h-0.04c-0.011,0-0.011,0-0.021,0
		c-0.109,0.01-0.189,0.029-0.25,0.049c-0.01,0-0.029,0.01-0.039,0.01c-0.041,0.02-0.121,0.041-0.23,0.061
		c-0.08,0.01-0.17,0.02-0.28,0.039c-0.159,0.021-0.35,0.041-0.55,0.051c-0.07,0.01-0.15,0.01-0.221,0.02
		c-0.079,0.01-0.149,0.01-0.229,0.01c-0.079,0.012-0.159,0.012-0.239,0.021s-0.16,0.01-0.25,0.02c-0.08,0-0.17,0-0.25,0.01
		c-0.09,0.01-0.17,0.01-0.261,0.02c-0.43,0.02-0.88,0.041-1.29,0.051c-0.17,0-0.34,0.01-0.49,0.02c-0.08,0-0.149,0.01-0.229,0.01
		h-0.21c-0.03,0-0.07,0-0.1,0.01c-0.101-0.01-0.19,0-0.28,0.01c-0.41,0-0.671,0.012-0.671,0.012s-0.069,0-0.189-0.012h-0.15
		c-0.029,0-0.069,0-0.1-0.01h-0.14c-0.171-0.01-0.38-0.02-0.61-0.029c-0.119,0-0.24-0.01-0.369-0.02
		c-0.271-0.01-0.561-0.031-0.871-0.051c-0.26-0.02-0.539-0.039-0.81-0.061c-0.149-0.01-0.3-0.02-0.45-0.039
		c-0.1,0-0.21-0.01-0.311-0.02c-0.159-0.01-0.319-0.031-0.469-0.051c-0.051-0.01-0.101-0.02-0.15-0.02c-0.051,0-0.1,0-0.15-0.01
		c-0.05-0.01-0.1-0.01-0.15-0.021c-0.09-0.01-0.189-0.02-0.279-0.039c-0.09-0.01-0.18-0.02-0.27-0.029
		c-0.181-0.031-0.34-0.061-0.49-0.09c-0.12-0.021-0.23-0.051-0.32-0.07c-0.029-0.01-0.061-0.021-0.09-0.031
		c-0.07-0.01-0.12-0.029-0.17-0.049c-0.051-0.01-0.09-0.031-0.131-0.051h-0.01c-0.02-0.01-0.039-0.02-0.06-0.039
		c-0.09-0.051-0.14-0.102-0.16-0.15c-0.01-0.02-0.021-0.061-0.04-0.1c-0.02-0.031-0.029-0.061-0.05-0.09
		c-0.021-0.051-0.05-0.102-0.08-0.16c-0.03-0.061-0.06-0.121-0.1-0.191c-0.149-0.299-0.369-0.699-0.619-1.17
		c-0.02-0.029-0.04-0.059-0.051-0.1c-0.01-0.02-0.029-0.039-0.039-0.07c-0.041-0.07-0.08-0.148-0.121-0.219
		c-0.079-0.141-0.149-0.281-0.229-0.43c-0.26-0.49-0.53-1.012-0.8-1.561c-0.109-0.211-0.221-0.43-0.33-0.66
		c-0.02-0.029-0.029-0.061-0.05-0.09c-0.011-0.031-0.03-0.061-0.04-0.09c-0.01-0.031-0.03-0.061-0.04-0.09h-0.011
		c-0.02-0.061-0.049-0.111-0.079-0.17c-0.06-0.121-0.12-0.24-0.181-0.371c-0.01-0.029-0.02-0.061-0.029-0.09l-0.12-0.24
		c-0.03-0.07-0.06-0.129-0.091-0.199l-0.01-0.01c-0.939-2.07-1.709-4.17-1.649-5.48c0.149-3.149,0.71-3.46,1.909-6.96
		c1.201-3.489,2.201-2.729,4.85-4.029c2.64-1.301,2.3-0.311,5.229,0.35c2.931,0.67,2.4-0.199,3.341-0.92
		c0.93-0.73-0.021-2.66-0.021-2.66l4.25-2.14c0,0,3.23,0.94,4.131,1.79l0.02-0.01l7.51,1.84c0,0,0.12,0.42,0.311,0.97v0.021
		c0.039,0.1,0.07,0.209,0.109,0.32c0.04,0.1,0.07,0.209,0.11,0.309c0.19,0.511,0.399,1.061,0.601,1.461
		c0.049,0.1,0.1,0.199,0.159,0.279c0.021,0.051,0.05,0.08,0.07,0.121c0.05,0.08,0.1,0.139,0.149,0.18v0.01
		c0.061,0.061,0.15,0.141,0.271,0.24c0.04,0.029,0.08,0.07,0.13,0.1v0.01c0,0.01,0,0.01,0.01,0c0.051,0.041,0.09,0.08,0.141,0.12
		v0.011h0.01c0.061,0.039,0.109,0.09,0.16,0.129v0.011h0.01c0.029,0.03,0.061,0.05,0.09,0.079c0.03,0.021,0.061,0.041,0.09,0.061
		v0.01c0,0.01,0,0.01,0.01,0c0.061,0.051,0.131,0.101,0.19,0.16v0.01c0,0,0,0,0.011,0c0.069,0.061,0.139,0.121,0.209,0.17
		c0.07,0.061,0.141,0.11,0.221,0.17v0.011h0.01c0.08,0.06,0.15,0.12,0.23,0.18v0.011c0,0,0,0,0.01,0
		c0.08,0.069,0.16,0.129,0.24,0.189s0.159,0.12,0.25,0.18v0.01c0,0.011,0,0.011,0.01,0c0.08,0.061,0.17,0.131,0.25,0.19v0.011h0.01
		c0.08,0.06,0.17,0.129,0.25,0.189v0.01h0.01c0.09,0.061,0.17,0.131,0.26,0.189v0.011h0.01c0.09,0.06,0.17,0.12,0.261,0.19v0.01
		h0.01c0.09,0.06,0.17,0.119,0.261,0.18v0.01h0.01c0.09,0.061,0.18,0.12,0.26,0.18v0.011c0,0,0,0,0.01,0
		c0.09,0.069,0.18,0.13,0.27,0.19c0.041,0.029,0.09,0.06,0.131,0.09c0.09,0.06,0.18,0.119,0.26,0.17
		c0.02,0.02,0.04,0.029,0.061,0.039c0.01,0.011,0.02,0.021,0.029,0.021c0.02,0.011,0.029,0.021,0.04,0.03
		c0.101,0.061,0.19,0.119,0.28,0.18c0.029,0.01,0.06,0.04,0.09,0.051c0.05,0.029,0.09,0.06,0.13,0.08
		c0.13,0.079,0.26,0.149,0.38,0.219c0.25,0.131,0.471,0.24,0.66,0.311c0.05,0.02,0.09,0.029,0.13,0.05h0.03l0.01,0.011
		c0.02,0.01,0.04,0.01,0.05,0.01c0.07,0.029,0.14,0.039,0.2,0.039h0.01c0.03,0,0.07,0,0.11,0.011h0.01
		c0.021-0.011,0.03-0.011,0.04,0.01h0.01c0.021,0,0.041,0.011,0.07,0.021h0.029c0.08,0.02,0.16,0.05,0.24,0.09
		c0.051,0.01,0.101,0.029,0.15,0.06c0.051,0.021,0.109,0.05,0.16,0.07c0.109,0.05,0.22,0.11,0.34,0.18
		c0.109,0.07,0.23,0.14,0.359,0.21c0.061,0.03,0.131,0.07,0.191,0.11c0.139,0.09,0.279,0.18,0.42,0.28
		c1.189,0.83,2.469,1.939,2.979,2.51l0.01,0.01C102.283,78.646,102.334,78.695,102.363,78.736z"/>
	<path fill="#5CB4C1" d="M92.824,26.55h-0.018c-0.774-0.025-1.55,0.021-2.316,0.14c-0.511,0.101-1.004,0.5-1.504,0.607
		c-1.291,0.278-2.077,0.311-2.07,0.757c0,0.973,2.08,1.072,2.287,1.111c1.109,0.193,2.232,0.285,3.357,0.275h0.275
		c1.047,0,2.098-0.053,3.145-0.146c-0.393-0.813-0.811-1.605-1.254-2.379c-0.629-0.058-1.258-0.357-1.888-0.357L92.824,26.55z"/>
	<path fill="none" d="M45.694,93.557c0.131,0.07,0.27,0.129,0.4,0.189c0.35,0.15,0.699,0.301,1.05,0.449
		c0.21,0.092,0.42,0.172,0.63,0.25c0.33,0.141,0.66,0.262,1,0.381c0.33,0.119,0.67,0.24,1.01,0.359
		c1.36,0.471,2.74,0.871,4.141,1.201c0.709,0.18,1.41,0.33,2.13,0.459c2.12,0.41,4.26,0.67,6.419,0.771
		c0.17,0.01,0.33,0.02,0.5,0.02c0.26,0.01,0.521,0.02,0.78,0.029c0.379,0.01,0.75,0.01,1.129,0.01c0.681,0,1.371-0.01,2.051-0.039
		c0.8-0.031,1.6-0.09,2.391-0.16c0.709-0.061,1.42-0.15,2.119-0.25c0.23-0.031,0.471-0.061,0.7-0.1
		c0.25-0.041,0.489-0.08,0.739-0.121c0.781-0.129,1.57-0.289,2.341-0.459c0.39-0.09,0.78-0.18,1.159-0.281
		c0.311-0.08,0.631-0.16,0.941-0.25h0.01c0.049-0.01,0.109-0.029,0.16-0.039c0.029-0.01,0.06-0.01,0.069-0.02
		c0.011,0,0.011,0,0.011,0c0.01-0.012,0.01-0.012,0.01-0.012c0.029-0.01,0.049-0.02,0.08-0.02c0.31-0.09,0.609-0.18,0.91-0.27h0.029
		c0.029-0.01,0.061-0.02,0.08-0.029c0.199-0.061,0.4-0.121,0.6-0.191c0.18-0.049,0.36-0.109,0.541-0.17
		c0.189-0.07,0.379-0.129,0.569-0.189c0.08-0.029,0.17-0.061,0.25-0.09c0.239-0.08,0.479-0.17,0.729-0.27
		c0.16-0.051,0.33-0.121,0.5-0.191c0.07-0.02,0.131-0.049,0.201-0.08c0.039-0.01,0.069-0.029,0.109-0.049
		c0.061-0.02,0.109-0.041,0.16-0.061c0.05-0.02,0.1-0.039,0.16-0.061v-0.01c0.129-0.039,0.25-0.09,0.379-0.148
		c-0.059,0.039-0.129,0.068-0.189,0.09c-1.68,0.719-3.4,1.33-5.16,1.83l-0.199-0.021h-0.01L45.694,93.557c0,0-0.01,0.01-0.01,0
		 M94.563,20.717c0.021,0.011,0.04,0.03,0.06,0.06c0.041,0.021,0.07,0.051,0.101,0.07C94.674,20.787,94.613,20.747,94.563,20.717z
		 M94.724,20.847c0.03,0.03,0.06,0.061,0.101,0.1c0.039,0.031,0.079,0.061,0.119,0.091C94.873,20.967,94.804,20.907,94.724,20.847z
		 M97.123,23.007c0.17,0.16,0.34,0.33,0.5,0.5c0.101,0.09,0.19,0.17,0.271,0.26C97.644,23.507,97.383,23.247,97.123,23.007z
		 M84.414,93.445v0.012c0.06-0.031,0.109-0.051,0.16-0.07c0.129-0.061,0.26-0.121,0.379-0.191
		C84.773,93.275,84.594,93.355,84.414,93.445z M83.463,93.867v0.01c0.23-0.102,0.451-0.201,0.681-0.301
		C83.914,93.676,83.693,93.775,83.463,93.867z"/>
	<path fill="#5880C6" d="M80.304,13.037c3.01,1.11,6.46,3.649,9.569,7.13l0.58-0.43c0.25-0.35,0.461-0.711,0.65-1.08
		c0.04-0.061,0.07-0.12,0.09-0.19c0.03-0.05,0.051-0.1,0.08-0.149c0-0.01,0.01-0.021,0.01-0.03v-0.011
		C87.873,16.047,84.184,14.287,80.304,13.037z M110.004,52.177c-0.131-2.93-0.53-5.82-1.19-8.67c0-0.01-0.01-0.029-0.01-0.04h-0.011
		l-0.26,0.16l-1.16,0.681c-0.229,0.129-0.41,0.319-0.539,0.539c-0.061,0.12-0.11,0.24-0.131,0.36c-0.039,0.12-0.06,0.25-0.05,0.38
		c0.011,1.07,0.04,2.859,0.08,4c0.011,0.2,0.021,0.38,0.03,0.54c0.01,0.229,0.02,0.39,0.04,0.46c0.021,0.09,0.069,0.359,0.12,0.721
		c0.01,0.09,0.029,0.18,0.039,0.279c0.011,0.061,0.021,0.141,0.031,0.21c0.01,0.07,0.02,0.14,0.029,0.21
		c0.07,0.45,0.141,0.95,0.2,1.43c0.06,0.4,0.11,0.78,0.149,1.11c0.01,0.11,0.03,0.21,0.041,0.31c0.01,0.08,0.02,0.15,0.029,0.221
		c0.03,0.189,0.02,0.39-0.02,0.58l-0.061,0.18c-0.029,0.051-0.05,0.109-0.08,0.16l-1.63,2.99c-0.1,0.209-0.26,0.39-0.46,0.52
		c-0.199,0.12-0.43,0.189-0.67,0.2h-0.439c-1.061,0-2.521-0.021-2.951-0.14c0,0-0.01-0.01-0.02-0.01
		c-0.05-0.021-0.09-0.051-0.1-0.07c-0.07-0.19-1.939-2.391-2.561-3.1c-0.119-0.15-0.22-0.32-0.279-0.511
		c-0.08-0.22-0.19-0.56-0.33-0.94c-0.03-0.09-0.07-0.189-0.11-0.289c-0.08-0.24-0.18-0.49-0.28-0.73
		c-1.779,5.12-4.56,9.84-8.199,13.88v0.011c-0.01,0-0.01,0-0.021,0.01c0,0.01,0.011,0.01,0.011,0.01v0.01
		c0.319,0.95,0.81,2.301,1.199,2.66h0.01c0.061,0.061,0.15,0.141,0.271,0.24c0.04,0.039,0.08,0.08,0.13,0.109c0,0.01,0,0.01,0.01,0
		c0.04,0.051,0.09,0.09,0.141,0.131c0.01-0.011,0.01,0,0.01,0c0.05,0.049,0.1,0.1,0.16,0.14c0.01-0.011,0.01,0,0.01,0
		c0.029,0.03,0.061,0.05,0.09,0.079c0.03,0.021,0.061,0.051,0.09,0.07c0,0.01,0,0.01,0.01,0c0.061,0.061,0.121,0.11,0.19,0.17
		c0.011-0.01,0.011-0.01,0.011,0c0.069,0.061,0.139,0.121,0.209,0.17c0.07,0.061,0.141,0.121,0.221,0.181
		c0.01-0.011,0.01-0.011,0.01,0c0.07,0.069,0.15,0.13,0.23,0.19h0.01c0.08,0.06,0.16,0.119,0.24,0.189s0.159,0.13,0.25,0.189
		c0,0.011,0,0.011,0.01,0c0.08,0.07,0.16,0.141,0.25,0.201h0.01c0.08,0.069,0.17,0.139,0.25,0.199c0.01-0.01,0.01,0,0.01,0
		c0.09,0.07,0.17,0.141,0.26,0.2c0,0,0.01-0.011,0.01,0c0.09,0.069,0.17,0.13,0.261,0.2h0.01c0.09,0.07,0.17,0.13,0.261,0.189
		c0.01-0.01,0.01-0.01,0.01,0c0.09,0.07,0.17,0.131,0.26,0.19c0.01-0.011,0.01-0.011,0.01,0c0.09,0.06,0.17,0.11,0.26,0.17
		c0.01,0.021,0.01,0.021,0.01,0.021c0.041,0.029,0.09,0.06,0.131,0.09c0.039,0.029,0.08,0.05,0.119,0.07
		c0.051,0.039,0.101,0.069,0.141,0.1c0.02,0.02,0.04,0.029,0.061,0.039c0.01,0.011,0.02,0.021,0.029,0.021s0.02,0,0.029,0.011
		l0.011,0.02c0.08,0.05,0.16,0.1,0.239,0.14c0.011,0.011,0.031,0.021,0.041,0.04c0.029,0.01,0.06,0.04,0.09,0.051
		c0.05,0.029,0.09,0.06,0.13,0.08c0.13,0.079,0.26,0.149,0.38,0.219c0.061,0.031,0.109,0.061,0.17,0.08
		c0.09,0.051,0.17,0.101,0.26,0.131c0.08,0.039,0.15,0.07,0.23,0.1c0.05,0.02,0.09,0.029,0.13,0.05h0.03l0.01,0.011
		c0.02,0.01,0.04,0.01,0.05,0.01c0.07,0.029,0.14,0.039,0.2,0.039h0.01c0.03,0,0.07,0,0.11,0.011h0.01
		c0.011-0.011,0.03-0.011,0.04,0.01h0.01c0.01,0,0.021,0,0.021,0c0.01,0.011,0.03,0.011,0.05,0.021c0.08,0.02,0.17,0.05,0.27,0.09
		c0.051,0.01,0.101,0.029,0.15,0.06c0.051,0.021,0.109,0.05,0.16,0.07c0.109,0.05,0.22,0.11,0.34,0.18
		c0.109,0.07,0.23,0.14,0.359,0.21c1.341,0.84,3,2.26,3.58,2.92c0-0.01,0.011-0.01,0.011-0.02
		C107.684,70.877,110.414,61.597,110.004,52.177z M32.124,84.156l-0.01-0.01v0.02c0.23,0.24,0.471,0.471,0.711,0.68
		C32.584,84.617,32.354,84.387,32.124,84.156z M32.934,84.945c0.22,0.23,0.439,0.441,0.66,0.641c0.039,0.041,0.08,0.08,0.119,0.109
		c0,0,0.011,0,0.011,0.012c0.01,0,0.021,0.01,0.04,0.02C33.484,85.467,33.204,85.207,32.934,84.945z M35.774,87.445
		c-0.25-0.199-0.5-0.398-0.75-0.619c0.04,0.051,0.09,0.09,0.141,0.131c0.319,0.279,0.64,0.539,0.969,0.789
		C36.004,87.646,35.883,87.547,35.774,87.445z M38.334,89.377c-0.11-0.07-0.211-0.141-0.32-0.221c0.16,0.119,0.311,0.24,0.47,0.33
		C38.434,89.445,38.383,89.406,38.334,89.377z M38.844,89.736c0.07,0.051,0.15,0.1,0.22,0.15c0.021,0.01,0.04,0.02,0.06,0.029
		C39.034,89.855,38.934,89.797,38.844,89.736z M44.974,93.236l0.01,0.01v-0.01H44.974z M44.954,93.217
		c-0.029-0.01-0.06-0.021-0.09-0.041c0.03,0.02,0.061,0.041,0.09,0.051v0.01c0.01,0,0.01,0,0.021,0v-0.01
		C44.963,93.227,44.963,93.227,44.954,93.217z M41.474,91.387c-0.24-0.131-0.47-0.27-0.7-0.42c-0.189-0.111-0.37-0.221-0.55-0.33
		c0.3,0.199,0.601,0.379,0.899,0.549c0.301,0.191,0.601,0.371,0.91,0.531C41.844,91.605,41.665,91.496,41.474,91.387z
		 M77.584,95.945c0,0,0,0-0.01,0.012c0.029-0.012,0.059-0.021,0.09-0.031C77.633,95.926,77.613,95.936,77.584,95.945z
		 M78.574,95.656c-0.301,0.09-0.601,0.18-0.91,0.27c0.319-0.08,0.629-0.18,0.939-0.27H78.574z M79.604,92.287
		c-0.02-0.031-0.04-0.061-0.07-0.08c0-0.012-0.01-0.021-0.02-0.021c-0.01-0.02-0.02-0.02-0.03-0.02
		c-0.01-0.01-0.021-0.02-0.03-0.029c-0.029-0.031-0.07-0.051-0.109-0.061c-0.061-0.039-0.131-0.07-0.2-0.09
		c-0.011-0.01-0.021-0.01-0.03-0.01c-0.01-0.01-0.02-0.01-0.039-0.01c-0.101-0.041-0.221-0.07-0.341-0.1
		c-0.12-0.031-0.26-0.061-0.399-0.08c-0.181-0.031-0.381-0.061-0.57-0.08c-0.2-0.021-0.4-0.041-0.6-0.061
		c-0.4-0.02-0.781-0.041-1.11-0.041c-0.021,0-0.04,0-0.06-0.01c-0.011,0-0.011,0-0.021,0h-0.03c-0.07,0-0.14,0-0.199,0.01
		c-0.08-0.01-0.16,0-0.23,0.012c-0.12,0.02-0.23,0.039-0.35,0.068c-0.041,0.021-0.11,0.041-0.23,0.051
		c-0.08,0.01-0.17,0.02-0.28,0.039c-0.159,0.021-0.35,0.031-0.55,0.051c-0.141,0.01-0.29,0.02-0.45,0.029
		c-0.079,0.012-0.159,0.012-0.239,0.021c-0.08,0-0.16,0-0.25,0.01v0.01c-0.08,0-0.17,0-0.25,0.01c-0.09,0-0.17,0-0.261,0.01v0.01
		c-0.43,0.02-0.88,0.041-1.29,0.051c-0.17,0-0.34,0.01-0.49,0.02c-0.08,0-0.16,0-0.229,0.01c-0.11,0-0.22,0.01-0.31,0.01
		c-0.101-0.01-0.19,0-0.28,0.01c-0.41,0.012-0.671,0.021-0.671,0.021s-0.029,0-0.09-0.01c-0.049,0-0.14-0.012-0.25-0.012
		c-0.069,0-0.149,0-0.239-0.01c-0.171-0.01-0.38-0.02-0.61-0.029c-0.119,0-0.24-0.01-0.369-0.02
		c-0.271-0.01-0.561-0.031-0.871-0.051c-0.26-0.02-0.539-0.039-0.81-0.061c-0.149-0.01-0.3-0.02-0.45-0.039
		c-0.26-0.02-0.529-0.051-0.779-0.07c-0.051-0.01-0.101-0.02-0.15-0.02c-0.051,0-0.1,0-0.15-0.01c-0.05-0.01-0.1-0.01-0.15-0.021
		c-0.08-0.01-0.149-0.02-0.229-0.029c-0.021-0.01-0.03-0.01-0.05-0.01c-0.08-0.01-0.16-0.02-0.24-0.029
		c-0.01-0.01-0.02-0.01-0.029,0c-0.181-0.031-0.34-0.061-0.49-0.09c-0.12-0.021-0.23-0.051-0.32-0.07
		c-0.029-0.01-0.061-0.021-0.09-0.031c-0.01,0-0.03-0.01-0.04-0.01c-0.05-0.01-0.091-0.02-0.13-0.039
		c-0.051-0.02-0.09-0.031-0.131-0.051h-0.01v-0.01c-0.02-0.01-0.039-0.02-0.06-0.029c-0.09-0.051-0.14-0.102-0.16-0.15
		c-0.01-0.02-0.021-0.061-0.04-0.1c-0.02-0.031-0.029-0.061-0.05-0.09c0-0.021-0.011-0.041-0.021-0.061
		c-0.02-0.029-0.039-0.07-0.06-0.1c-0.021-0.061-0.06-0.121-0.1-0.191c-0.149-0.299-0.369-0.699-0.619-1.17
		c-0.03-0.049-0.061-0.109-0.09-0.17c-0.041-0.07-0.08-0.148-0.121-0.219c-0.079-0.141-0.149-0.281-0.229-0.43
		c-0.26-0.49-0.53-1.012-0.8-1.561c-0.07-0.131-0.141-0.27-0.21-0.4c-0.04-0.09-0.08-0.17-0.12-0.26
		c-0.02-0.029-0.029-0.061-0.05-0.09c-0.011-0.031-0.03-0.061-0.04-0.09c-0.01-0.031-0.03-0.061-0.04-0.09
		c-0.03-0.051-0.06-0.111-0.09-0.17c-0.06-0.121-0.12-0.24-0.181-0.371c-0.01-0.029-0.02-0.061-0.029-0.09l-0.12-0.24
		c-0.03-0.07-0.06-0.129-0.091-0.199c-3.439,0.799-6.939,1.279-10.459,1.43c-0.69,0.029-1.37,0.039-2.041,0.039
		c-1.969,0.012-3.949-0.109-5.909-0.359c-0.011,0-0.011,0-0.021,0c0.07,0.051,0.141,0.1,0.211,0.141
		c0.069,0.039,0.14,0.08,0.209,0.119c0.01,0,0.01,0.01,0.01,0.01c0.131,0.08,0.261,0.15,0.381,0.23
		c0.13,0.07,0.25,0.141,0.369,0.211c0.011,0,0.021,0,0.031,0.01c0.119,0.059,0.25,0.129,0.369,0.199
		c0.07,0.041,0.141,0.08,0.211,0.131c0.08,0.039,0.159,0.09,0.25,0.15c0.08,0.039,0.159,0.09,0.25,0.158
		c0.08,0.041,0.17,0.102,0.26,0.17c0.08,0.061,0.17,0.131,0.26,0.201c0.08,0.061,0.16,0.129,0.25,0.209c0.01,0,0.01,0,0.02,0.012
		c0.08,0.068,0.15,0.139,0.211,0.209c0.139,0.15,0.25,0.33,0.33,0.529c0.109,0.25,0.199,0.512,0.27,0.791
		c0.029,0.141,0.06,0.27,0.08,0.41c0.02,0.139,0.039,0.279,0.06,0.42c0.03,0.289,0.05,0.57,0.06,0.82
		c0.011,0.139,0.011,0.26,0.011,0.379c0.01,0.361,0.021,0.631,0.05,0.74c0.01,0.01,0.01,0.01,0.01,0.02
		c0.02,0.281-0.029,0.551-0.13,0.801c0.021,0.01,0.05,0.02,0.07,0.029c0.21,0.102,0.42,0.201,0.63,0.291c0,0.01,0.01,0,0.01,0
		c0.131,0.07,0.27,0.129,0.4,0.189c0.35,0.15,0.699,0.301,1.05,0.449c0.21,0.092,0.42,0.172,0.63,0.25
		c0.33,0.131,0.66,0.262,1,0.381c0.33,0.119,0.67,0.24,1.01,0.359c1.36,0.471,2.74,0.871,4.141,1.201
		c0.699,0.17,1.41,0.32,2.13,0.459c2.12,0.41,4.26,0.67,6.419,0.771c0.17,0.01,0.33,0.02,0.5,0.02c0.26,0.01,0.521,0.02,0.78,0.029
		c0.379,0.01,0.75,0.01,1.129,0.01c0.681,0,1.371-0.01,2.051-0.039c0.8-0.031,1.6-0.09,2.391-0.16c0.709-0.061,1.42-0.15,2.119-0.25
		c0.23-0.031,0.471-0.061,0.7-0.1c0.25-0.041,0.489-0.08,0.739-0.121c0.781-0.129,1.57-0.289,2.341-0.459
		c0.39-0.09,0.78-0.18,1.159-0.281c0.311-0.08,0.631-0.16,0.941-0.25h0.01c0.049-0.01,0.109-0.029,0.16-0.039
		c0.029-0.01,0.06-0.01,0.069-0.02c0.011,0,0.011,0,0.011,0v-0.012h0.01c0.029-0.068,0.06-0.129,0.1-0.199
		c0-0.01,0-0.029,0.02-0.039c0.061-0.131,0.121-0.25,0.19-0.371c0.01-0.039,0.03-0.07,0.05-0.1c0.02-0.051,0.051-0.109,0.08-0.16
		c0.141-0.26,0.29-0.51,0.439-0.76c0.011-0.029,0.021-0.051,0.041-0.08c0.039-0.08,0.09-0.16,0.14-0.24
		c0-0.02,0.01-0.029,0.021-0.039c0.109-0.191,0.229-0.381,0.35-0.561c0.15-0.24,0.3-0.48,0.46-0.711
		c0.03-0.039,0.05-0.08,0.08-0.119c0.03-0.029,0.04-0.061,0.05-0.09c0.02-0.031,0.02-0.061,0.02-0.09
		C79.623,92.346,79.613,92.316,79.604,92.287z M82.504,94.266v0.01c0.129-0.049,0.25-0.1,0.379-0.158
		C82.754,94.176,82.633,94.227,82.504,94.266z M83.463,93.867v0.01c0.23-0.102,0.451-0.201,0.681-0.301
		C83.914,93.676,83.693,93.775,83.463,93.867z M84.414,93.445v0.012c0.06-0.031,0.109-0.051,0.16-0.07
		c0.129-0.061,0.26-0.121,0.379-0.191C84.773,93.275,84.594,93.355,84.414,93.445z"/>
	<path fill="#5CA6A7" d="M91.283,18.276v0.011c-0.01-0.011-0.02-0.011-0.029-0.021L91.283,18.276z"/>
	<path fill="#5CA6A7" d="M108.793,43.467l-0.26,0.16l-0.77,0.479l-0.08,0.051l-0.28,0.17c-0.22,0.119-0.399,0.311-0.53,0.54
		c-0.119,0.22-0.189,0.47-0.18,0.729c0.02,1.541,0.061,4.62,0.15,5c0.1,0.391,0.49,3.311,0.64,4.49c0.04,0.32-0.01,0.641-0.17,0.92
		l-1.62,3c-0.1,0.21-0.27,0.391-0.47,0.51c-0.091,0.061-0.17,0.101-0.271,0.131c-0.08,0.029-0.17,0.049-0.25,0.06
		c-0.05,0.01-0.09,0.01-0.14,0.01h-1c-0.45,0-0.92,0-1.33-0.021c-0.09,0-0.17,0-0.25-0.01c-0.159-0.01-0.319-0.02-0.44-0.039
		c-0.14-0.01-0.25-0.03-0.33-0.051c-0.029-0.01-0.049-0.02-0.08-0.029c0,0-0.01-0.01-0.02-0.01c-0.029-0.021-0.05-0.041-0.06-0.061
		c-0.091-0.23-1.94-2.38-2.56-3.09c-0.131-0.15-0.221-0.33-0.281-0.51c-0.149-0.42-0.42-1.221-0.719-1.971
		c1.209-3.56,1.819-7.289,1.83-11.05c0-4.75-1.301-9.399-3.32-13.58l0.49-0.05h0.029c0.2-0.03,0.38-0.16,0.57-0.27
		c0.01-0.011,0.02-0.011,0.039-0.021c0.061-0.03,0.121-0.05,0.181-0.069c0.101-0.041,0.2-0.07,0.3-0.101
		c0.711-0.22,1.131-0.54,1.131-0.86c0-0.26-0.15-0.449-0.381-0.609c-0.06-0.03-0.13-0.07-0.189-0.101
		c-0.07-0.04-0.141-0.069-0.211-0.1c-0.139-0.05-0.299-0.101-0.449-0.14c-0.16-0.051-0.32-0.08-0.471-0.101
		c-0.449-0.08-0.83-0.11-0.92-0.12h-0.1c-0.21,0.01-0.41,0.04-0.609,0.08c-0.201,0.04-0.41,0.07-0.621,0.08h-0.049
		c-1.371-2.41-2.98-4.65-4.83-6.71l-0.011-0.011l0.591-0.43c0.139-0.22,0.27-0.439,0.399-0.67l0.12-0.24
		c0.04-0.069,0.07-0.129,0.09-0.199c0.04-0.061,0.07-0.12,0.09-0.19c0.03-0.06,0.061-0.12,0.09-0.18c0.19,0.12,0.37,0.25,0.561,0.37
		c0.199,0.13,0.39,0.27,0.58,0.4c0.15,0.109,0.3,0.219,0.449,0.34c0.07,0.049,0.15,0.1,0.221,0.17
		c0.189,0.129,0.39,0.279,0.58,0.439c0.119,0.09,0.25,0.189,0.369,0.29c0.131,0.101,0.261,0.21,0.391,0.33
		c0.02,0,0.04,0.021,0.061,0.04c0.039,0.029,0.09,0.061,0.129,0.109c0.07,0.041,0.131,0.101,0.201,0.17
		c0.119,0.08,0.229,0.181,0.34,0.281c0.049,0.039,0.1,0.08,0.14,0.119c0.14,0.12,0.28,0.24,0.42,0.37c0.06,0.05,0.13,0.11,0.19,0.16
		c0.09,0.08,0.18,0.16,0.27,0.25c0.26,0.229,0.51,0.47,0.76,0.71c0.061,0.051,0.12,0.109,0.18,0.17c0.17,0.16,0.34,0.33,0.5,0.5
		c0.19,0.18,0.36,0.35,0.53,0.53c0.13,0.13,0.25,0.25,0.37,0.38c0.03,0.029,0.061,0.061,0.09,0.09c0.43,0.46,0.86,0.93,1.27,1.41
		c0.011,0.01,0.011,0.02,0.021,0.02c0.431,0.51,0.86,1.021,1.271,1.551c0.33,0.41,0.65,0.83,0.949,1.26
		c0.051,0.05,0.09,0.109,0.131,0.17c0.05,0.061,0.1,0.13,0.14,0.189c0.05,0.07,0.101,0.141,0.14,0.211
		c0.15,0.189,0.28,0.379,0.4,0.58c0.029,0.02,0.04,0.029,0.04,0.049c0.06,0.07,0.11,0.15,0.149,0.221
		c0.021,0.02,0.041,0.04,0.041,0.061c0.08,0.109,0.16,0.219,0.229,0.33c0.05,0.069,0.101,0.149,0.149,0.229c0,0,0,0.01,0.011,0.01
		C105.983,34.707,107.754,38.987,108.793,43.467z"/>
	<path fill="#5CA6A7" d="M45.104,92.416c0.02,0.279-0.02,0.551-0.13,0.811v0.01c-0.011,0-0.011-0.01-0.021-0.01
		c-0.029-0.01-0.06-0.031-0.09-0.051c-0.25-0.109-0.5-0.23-0.75-0.369c-0.18-0.08-0.359-0.17-0.539-0.27
		c-0.011,0-0.021,0-0.031-0.021h-0.01c-0.01,0-0.02,0-0.02-0.01c-0.02,0-0.03-0.01-0.04-0.02c-0.011,0-0.021,0-0.021-0.01
		c-0.09-0.041-0.17-0.08-0.25-0.131c-0.59-0.299-1.16-0.619-1.729-0.959c-0.24-0.131-0.47-0.27-0.7-0.42
		c-0.24-0.141-0.47-0.281-0.699-0.43c-0.101-0.061-0.191-0.121-0.291-0.182c-0.22-0.139-0.439-0.289-0.66-0.439
		c-0.27-0.17-0.529-0.35-0.789-0.539c-0.11-0.07-0.211-0.141-0.32-0.221c-0.25-0.18-0.5-0.359-0.75-0.551
		c-0.051-0.029-0.09-0.059-0.131-0.1c-0.029-0.01-0.049-0.029-0.069-0.049c-0.01,0-0.021-0.012-0.03-0.021
		c-0.07-0.049-0.13-0.09-0.189-0.148c-0.17-0.121-0.34-0.25-0.51-0.391c-0.041-0.029-0.09-0.07-0.131-0.1
		c-0.149-0.111-0.289-0.23-0.43-0.352c-0.25-0.199-0.5-0.398-0.75-0.619c-0.05-0.039-0.1-0.08-0.15-0.131
		c-0.379-0.309-0.75-0.639-1.109-0.969c-0.28-0.26-0.561-0.52-0.83-0.781c-0.28-0.26-0.54-0.52-0.811-0.789
		c2.86,0.949,5.801,1.609,8.791,1.99c0,0.01,0.01,0.01,0.01,0.01h0.029c0.01,0,0.01,0.01,0.021,0.01c0.14,0.1,0.271,0.18,0.399,0.26
		c0.01,0,0.01,0.01,0.01,0.01c0.961,0.58,1.721,0.84,2.65,1.66c0.08,0.07,0.16,0.15,0.211,0.23c0.058,0.063,0.089,0.148,0.137,0.221
		c0.012,0.02,0.025,0.039,0.037,0.061c0.051,0.084,0.118,0.154,0.156,0.248c0.109,0.25,0.199,0.512,0.27,0.791
		c0.029,0.141,0.06,0.27,0.08,0.41c0.02,0.139,0.039,0.279,0.06,0.42c0.03,0.289,0.05,0.57,0.06,0.82
		c0.011,0.139,0.011,0.26,0.011,0.379C45.064,92.037,45.075,92.307,45.104,92.416z"/>
	<path fill="#5CA6A7" d="M102.233,78.587c-3.8,5.358-8.71,9.829-14.39,13.089c-0.811,0.461-1.641,0.91-2.48,1.32
		c-0.14,0.07-0.27,0.131-0.41,0.199c-0.18,0.08-0.359,0.16-0.539,0.25c-0.311,0.141-0.631,0.281-0.951,0.422
		c-0.319,0.139-0.639,0.27-0.959,0.398c-0.11,0.041-0.211,0.09-0.32,0.131c-1.15,0.449-2.32,0.859-3.5,1.23
		c-0.03,0.01-0.07,0.02-0.109,0.029c-0.301,0.09-0.601,0.18-0.91,0.27c-0.031,0-0.051,0.01-0.08,0.02h-0.01
		c0.029-0.068,0.069-0.129,0.109-0.199c0-0.01,0-0.029,0.02-0.039c0.07-0.16,0.15-0.32,0.24-0.471c0.02-0.051,0.051-0.109,0.08-0.16
		c0.15-0.279,0.311-0.57,0.48-0.84c0.039-0.08,0.09-0.16,0.14-0.24c0-0.02,0.01-0.029,0.021-0.039
		c0.109-0.191,0.229-0.381,0.35-0.561c0.15-0.24,0.3-0.48,0.46-0.711c0.03-0.039,0.05-0.08,0.08-0.119
		c0.079-0.1,0.09-0.199,0.05-0.279c-0.02-0.031-0.04-0.061-0.07-0.08c0-0.012-0.01-0.021-0.02-0.021
		c-0.02-0.029-0.04-0.039-0.061-0.049c-0.029-0.031-0.07-0.051-0.109-0.061c-0.061-0.039-0.131-0.07-0.2-0.09
		c-0.011-0.01-0.021-0.01-0.03-0.01c-0.01-0.01-0.02-0.01-0.039-0.01v-0.01c-0.101-0.031-0.221-0.061-0.341-0.09
		c-0.12-0.031-0.26-0.061-0.399-0.08c-0.09-0.021-0.181-0.041-0.28-0.051c-0.19-0.029-0.39-0.051-0.591-0.07
		c-0.299-0.029-0.6-0.049-0.879-0.061c-0.19-0.01-0.371-0.01-0.53-0.01h-0.06c-0.011,0-0.011,0-0.021,0
		c-0.17-0.01-0.341,0-0.5,0.021c-0.011,0-0.011,0-0.021,0c-0.08,0.01-0.17,0.029-0.25,0.049c-0.01,0-0.029,0.01-0.039,0.01
		c-0.041,0.02-0.121,0.041-0.23,0.061c-0.08,0.01-0.17,0.02-0.28,0.039c-0.159,0.021-0.35,0.031-0.55,0.051
		c-0.141,0.01-0.29,0.02-0.45,0.029c-0.079,0.012-0.159,0.012-0.239,0.021c-0.08,0-0.16,0-0.25,0.01
		c-0.16,0.01-0.34,0.02-0.511,0.029c-0.43,0.02-0.88,0.041-1.29,0.061c-0.17,0-0.34,0.01-0.49,0.02c-0.16,0-0.299,0.01-0.439,0.01
		c-0.03,0-0.07,0-0.1,0.01c-0.101-0.01-0.19,0-0.28,0.01c-0.41,0-0.671,0.012-0.671,0.012s-0.069,0-0.189-0.012
		c-0.07,0-0.15,0-0.25-0.01h-0.14c-0.171-0.01-0.38-0.02-0.61-0.029c-0.119,0-0.24-0.01-0.369-0.02
		c-0.271-0.01-0.561-0.031-0.871-0.051c-0.26-0.02-0.539-0.039-0.81-0.061c-0.149-0.01-0.3-0.02-0.45-0.039
		c-0.26-0.02-0.529-0.051-0.779-0.07c-0.051-0.01-0.101-0.02-0.15-0.02c-0.2-0.02-0.391-0.051-0.58-0.07
		c-0.641-0.09-1.18-0.199-1.471-0.32l-0.01-0.01c-0.02-0.01-0.039-0.02-0.06-0.029c-0.09-0.051-0.14-0.102-0.16-0.15
		c-0.01-0.02-0.021-0.061-0.04-0.1c-0.02-0.041-0.04-0.09-0.07-0.15c-0.02-0.029-0.039-0.07-0.06-0.1
		c-0.021-0.061-0.06-0.121-0.1-0.191c-0.149-0.299-0.369-0.699-0.619-1.17c-0.03-0.049-0.061-0.109-0.09-0.17
		c-0.041-0.07-0.08-0.148-0.121-0.219c-0.079-0.141-0.149-0.281-0.229-0.43c-0.26-0.49-0.53-1.012-0.8-1.561
		c-0.07-0.131-0.141-0.27-0.21-0.4c-0.05-0.119-0.11-0.23-0.17-0.35c-0.011-0.031-0.03-0.061-0.04-0.09
		c-0.02-0.031-0.03-0.061-0.051-0.09c-0.02-0.061-0.049-0.111-0.079-0.17c-0.06-0.121-0.12-0.24-0.181-0.371
		c-0.049-0.109-0.1-0.219-0.149-0.33c-0.03-0.07-0.06-0.129-0.091-0.199l-0.01-0.01c11.57-2.67,22.4-8.81,29.871-17.21v-0.01
		l0.01-0.01c0.039,0.1,0.07,0.209,0.109,0.32c0.03,0.1,0.07,0.199,0.11,0.309c0.18,0.511,0.39,1.051,0.601,1.461
		c0.049,0.1,0.1,0.199,0.159,0.279c0.021,0.051,0.05,0.09,0.07,0.121c0.05,0.08,0.1,0.139,0.149,0.18
		c0.07,0.07,0.211,0.189,0.4,0.35c0.01,0.01,0.01,0.01,0.01,0.01c0.051,0.041,0.09,0.08,0.141,0.12c0.01,0,0.01,0.011,0.01,0.011
		c0.061,0.039,0.109,0.09,0.16,0.129c0.01,0,0.01,0.011,0.01,0.011c0.061,0.05,0.12,0.09,0.18,0.14c0,0.01,0.01,0.01,0.01,0.01
		c0.061,0.051,0.131,0.101,0.19,0.16c0.011,0,0.011,0,0.011,0.01c0.139,0.101,0.279,0.221,0.43,0.34c0.01,0,0.01,0,0.01,0.011
		c0.08,0.06,0.15,0.12,0.23,0.18l0.01,0.011c0.16,0.119,0.32,0.239,0.49,0.369c0,0.01,0.01,0.01,0.01,0.01
		c0.08,0.061,0.17,0.131,0.25,0.19l0.01,0.011c0.08,0.06,0.17,0.129,0.25,0.189c0.01,0,0.01,0.01,0.01,0.01
		c0.09,0.061,0.17,0.131,0.26,0.189c0,0,0.01,0,0.01,0.011c0.09,0.06,0.17,0.12,0.261,0.19l0.01,0.01
		c0.09,0.06,0.17,0.119,0.261,0.18c0.01,0,0.01,0,0.01,0.01c0.09,0.061,0.18,0.12,0.26,0.18c0.01,0,0.01,0,0.01,0.011
		c0.09,0.06,0.17,0.11,0.26,0.17s0.18,0.12,0.26,0.181c0.09,0.059,0.181,0.109,0.26,0.17c0.091,0.049,0.171,0.109,0.25,0.159
		c0.58,0.36,1.101,0.63,1.461,0.75c0.109,0.03,0.199,0.05,0.279,0.05c0.03,0,0.07,0,0.101,0.021h0.01
		c0.011-0.011,0.03-0.011,0.04,0.01h0.01c0.03-0.01,0.061,0,0.1,0.021c0.381,0.09,0.891,0.359,1.441,0.72
		c0.139,0.09,0.279,0.18,0.42,0.28c1.189,0.83,2.469,1.939,2.979,2.51L102.233,78.587z"/>
	<path fill="#4A91A3" d="M96.021,26.761c-0.205,0.01-0.407,0.037-0.608,0.078c-0.202,0.043-0.408,0.068-0.615,0.076h-0.07
		c0.443,0.773,0.861,1.566,1.254,2.379l0.516-0.05c0.275-0.028,0.521-0.269,0.793-0.356c0.896-0.262,1.43-0.598,1.43-0.962
		c0-1.019-2.363-1.133-2.591-1.169h-0.114L96.021,26.761z"/>
	<path fill="none" d="M32.104,84.137c-6.46-6.52-10.85-14.979-12.12-24.45c-0.17-1.25-0.28-2.51-0.34-3.789
		c-0.04-0.83-0.05-1.65-0.03-2.471c0.19-14.34,7.61-27.16,19.03-35.02c6.92-4.79,15.3-7.75,24.419-8.14
		c10.49-0.45,20.29,2.57,28.22,8.009h0.01c0.19,0.121,0.371,0.25,0.551,0.381c0.199,0.13,0.39,0.27,0.58,0.4
		c0.15,0.109,0.3,0.219,0.449,0.34c0.021,0.01,0.041,0.02,0.051,0.029c0.02,0.01,0.039,0.03,0.06,0.051
		c0.011,0.01,0.03,0.02,0.04,0.029c0.01,0,0.02,0.01,0.03,0.02c0.01,0,0.01,0,0.01,0.011c0.03,0.021,0.06,0.04,0.08,0.06
		c0.06,0.041,0.12,0.09,0.17,0.131c0.011,0.01,0.03,0.02,0.04,0.029s0.029,0.02,0.04,0.02c0.021,0.021,0.04,0.031,0.06,0.051
		c0.07,0.061,0.15,0.119,0.221,0.18c0.119,0.09,0.25,0.189,0.369,0.29c0.131,0.101,0.261,0.21,0.391,0.33
		c0.02,0,0.04,0.021,0.061,0.04c0.02,0.02,0.039,0.029,0.069,0.05c0.05,0.03,0.11,0.07,0.16,0.13c0.08,0.061,0.149,0.12,0.22,0.19
		c0.07,0.069,0.15,0.13,0.221,0.19c0.049,0.039,0.1,0.08,0.14,0.119c0.05,0.051,0.11,0.09,0.159,0.15
		c0.091,0.061,0.17,0.141,0.261,0.22c0.06,0.05,0.13,0.11,0.19,0.16c0.069,0.06,0.14,0.12,0.199,0.181
		c0.03,0.02,0.051,0.039,0.07,0.069c0.13,0.101,0.26,0.22,0.38,0.34c0.13,0.12,0.261,0.24,0.38,0.37
		c0.061,0.051,0.12,0.109,0.18,0.17c0.17,0.16,0.34,0.33,0.5,0.5c0.101,0.09,0.19,0.17,0.271,0.26c0.09,0.09,0.181,0.18,0.26,0.271
		c0.011,0.01,0.03,0.03,0.04,0.04c0.061,0.061,0.11,0.109,0.17,0.17c0.051,0.05,0.11,0.109,0.16,0.17c0.01,0,0.01,0,0.02,0.01
		c0.011,0.02,0.031,0.04,0.051,0.061c0.33,0.34,0.64,0.699,0.949,1.05c0.11,0.13,0.23,0.25,0.34,0.38
		c0.011,0.01,0.011,0.02,0.021,0.02c0.07,0.08,0.13,0.15,0.2,0.23c0.1,0.12,0.2,0.25,0.311,0.37c0.049,0.06,0.09,0.11,0.129,0.17
		c0.131,0.149,0.25,0.3,0.371,0.45c0.08,0.09,0.16,0.189,0.229,0.279c0.021,0.021,0.03,0.041,0.05,0.061
		c0.02,0.029,0.04,0.05,0.061,0.08c0.109,0.13,0.209,0.27,0.31,0.41c0.05,0.07,0.11,0.14,0.16,0.209
		c0.13,0.181,0.26,0.371,0.399,0.551c0.051,0.05,0.09,0.109,0.131,0.17c0.05,0.061,0.1,0.13,0.14,0.189
		c0.19,0.261,0.38,0.531,0.54,0.791c0.029,0.02,0.04,0.029,0.04,0.049c0.03,0.041,0.069,0.091,0.101,0.141
		c0.01,0.02,0.029,0.051,0.049,0.07v0.01c0.021,0.02,0.041,0.04,0.041,0.061c0.01,0.02,0.029,0.039,0.049,0.06
		c0.011,0.021,0.031,0.04,0.041,0.06c0.029,0.041,0.06,0.09,0.09,0.131c0.01,0.029,0.029,0.049,0.05,0.08
		c0.05,0.069,0.101,0.149,0.149,0.229c0,0,0,0.01,0.011,0.01l0.01,0.011c2.47,3.819,4.351,8.039,5.511,12.549
		c0.709,2.781,1.149,5.681,1.279,8.66c0.439,9.891-2.57,19.16-7.99,26.72c-3.779,5.27-8.75,9.699-14.52,12.939
		c-0.811,0.461-1.641,0.91-2.48,1.32c-0.14,0.07-0.27,0.131-0.41,0.199c-0.119,0.07-0.25,0.131-0.379,0.191
		c-0.051,0.02-0.101,0.039-0.16,0.07c-0.041,0.02-0.09,0.039-0.141,0.059c-0.04,0.021-0.09,0.041-0.13,0.061
		c-0.229,0.1-0.45,0.199-0.681,0.301c-0.1,0.039-0.199,0.08-0.299,0.129c-0.041,0.02-0.09,0.041-0.131,0.051
		c-0.05,0.029-0.1,0.049-0.15,0.061c-0.059,0.039-0.129,0.068-0.189,0.09c-1.68,0.719-3.4,1.33-5.16,1.83"/>
</g>
</svg>
