<?xml version="1.0" encoding="utf-8"?>
<!-- Generator: Adobe Illustrator 16.0.0, SVG Export Plug-In . SVG Version: 6.00 Build 0)  -->
<!DOCTYPE svg PUBLIC "-//W3C//DTD SVG 1.1//EN" "http://www.w3.org/Graphics/SVG/1.1/DTD/svg11.dtd">
<svg version="1.1" id="레이어_1" xmlns="http://www.w3.org/2000/svg" xmlns:xlink="http://www.w3.org/1999/xlink" x="0px"
	 y="0px" width="130px" height="130px" viewBox="0 0 130 130" enable-background="new 0 0 130 130" xml:space="preserve">
<g>
	<defs>
		<rect id="SVGID_23_" x="16.978" y="4.973" width="96.045" height="120.055"/>
	</defs>
	<clipPath id="SVGID_2_">
		<use xlink:href="#SVGID_23_"  overflow="visible"/>
	</clipPath>
	<polygon clip-path="url(#SVGID_2_)" fill="#FFE1B8" points="64.163,22.26 61.896,28.157 62.349,28.611 64.163,29.519 
		66.886,23.166 66.433,23.166 65.979,24.981 63.257,24.074 	"/>
	<path clip-path="url(#SVGID_2_)" fill="#FFDAB9" d="M64.163,22.26l-0.906,1.814l2.722,0.907l0.454-1.815
		c-0.45,0.086-0.912,0.086-1.361,0C64.718,22.92,64.409,22.613,64.163,22.26z"/>
	<path clip-path="url(#SVGID_2_)" fill="#FFE1B8" d="M66.433,16.361c-0.637,0.094-1.235,0.355-1.736,0.758
		c-0.502,0.401-0.889,0.93-1.119,1.529s-0.298,1.25-0.195,1.885c0.104,0.635,0.373,1.23,0.781,1.727
		c0.247,0.354,0.555,0.66,0.908,0.906c0.449,0.086,0.911,0.086,1.361,0h0.453c0.564-0.068,1.104-0.268,1.578-0.582
		c0.473-0.316,0.864-0.738,1.145-1.232c-0.498-0.147-0.959-0.4-1.352-0.742c-0.392-0.341-0.706-0.762-0.922-1.236
		c-0.215-0.473-0.325-0.986-0.324-1.506c0-0.52,0.113-1.033,0.329-1.506C67.038,16.322,66.733,16.322,66.433,16.361z"/>
	<polygon clip-path="url(#SVGID_2_)" fill="#FFB54D" points="56.45,18.176 53.729,19.537 59.626,30.426 62.349,29.064 	"/>
	<path clip-path="url(#SVGID_2_)" fill="#D1435B" d="M48.737,32.694l-6.352,5.444l-5.445-6.352l6.807-5.445L48.737,32.694z
		 M75.507,29.064l8.166,3.176l3.177-7.713l-8.167-3.176L75.507,29.064z"/>
	<polygon clip-path="url(#SVGID_2_)" fill="#FFA351" points="57.358,20.443 55.089,21.805 57.358,25.889 59.626,24.527 	"/>
	<path clip-path="url(#SVGID_2_)" fill="#0770E3" d="M104.998,59.01c1.254,7.357,0.294,14.921-2.759,21.73
		c-3.053,6.811-8.061,12.561-14.387,16.52s-13.686,5.949-21.146,5.719c-7.46-0.232-14.683-2.676-20.751-7.02
		S35.247,85.566,32.622,78.58s-3.113-14.596-1.406-21.859c1.709-7.266,5.536-13.859,10.998-18.945
		c5.463-5.086,12.313-8.434,19.682-9.618c9.801-1.576,19.826,0.78,27.898,6.559S103.33,49.225,104.998,59.01z"/>
	<path clip-path="url(#SVGID_2_)" fill="#084EB2" d="M74.599,86.687c-12.703,5.444-25.861,5.444-36.297,0.907
		c5.15,6.418,12.26,10.974,20.244,12.969c7.982,1.996,16.4,1.32,23.964-1.922c7.563-3.241,13.857-8.871,17.919-16.027
		c4.061-7.158,5.666-15.447,4.569-23.604c-0.228-1.377-0.53-2.74-0.907-4.084C101.368,68.084,90.479,80.334,74.599,86.687z"/>
	<circle clip-path="url(#SVGID_2_)" fill="#FFF5E9" cx="68.126" cy="64.952" r="31.306"/>
	<path clip-path="url(#SVGID_2_)" fill="#084EB2" d="M90.025,104.834c0.919-0.31,1.696-0.936,2.196-1.768
		c0.498-0.831,0.685-1.813,0.525-2.769l-1.361-6.806l-9.98,3.629l3.176,5.898c0.486,0.958,1.33,1.686,2.35,2.025
		S89.062,105.31,90.025,104.834z M60.08,109.826h-0.454c-0.928-0.1-1.795-0.513-2.456-1.174c-0.661-0.66-1.074-1.527-1.173-2.457
		l-0.908-6.805l10.436,0.453l-1.361,6.806c-0.209,0.919-0.729,1.739-1.475,2.317C61.944,109.546,61.022,109.85,60.08,109.826z"/>
	<path clip-path="url(#SVGID_2_)" fill="#FFB54D" d="M70.062,21.352c-0.635-0.094-1.234-0.355-1.736-0.758s-0.887-0.93-1.118-1.529
		c-0.23-0.6-0.298-1.25-0.194-1.885c0.103-0.635,0.372-1.23,0.781-1.727c1.961-2.963,4.836-5.205,8.188-6.388
		c3.352-1.182,6.998-1.237,10.384-0.16c3.387,1.077,6.329,3.23,8.382,6.132c2.053,2.9,3.104,6.393,2.991,9.943
		c0.046,0.617-0.065,1.234-0.326,1.795c-0.26,0.562-0.658,1.047-1.158,1.41c-0.501,0.363-1.084,0.594-1.698,0.668
		c-0.613,0.074-1.235-0.01-1.809-0.242L70.062,21.352z M50.552,24.074c0.469-0.336,0.851-0.779,1.113-1.293
		c0.264-0.512,0.4-1.08,0.4-1.656s-0.137-1.145-0.4-1.658c-0.263-0.513-0.645-0.955-1.113-1.291
		c-2.785-1.937-6.104-2.957-9.496-2.921s-6.689,1.128-9.433,3.123s-4.798,4.796-5.878,8.011c-1.079,3.217-1.131,6.689-0.146,9.936
		c0.156,0.598,0.463,1.146,0.891,1.592s0.962,0.775,1.553,0.957s1.219,0.211,1.822,0.082c0.605-0.129,1.166-0.41,1.633-0.816
		L50.552,24.074z"/>
	<path clip-path="url(#SVGID_2_)" fill="#FFC575" d="M78.229,10.916c-1.607,0.044-3.172,0.514-4.537,1.361
		c-2.723,1.814-4.537,4.537-3.631,6.352l2.723,0.908c1.606-0.045,3.172-0.514,4.537-1.361c3.176-1.815,4.537-4.537,3.63-6.353
		C80.497,10.916,79.591,10.916,78.229,10.916z M34.673,19.082c-1.361,0-3.63,0.908-5.445,2.723c-2.268,2.723-3.176,5.898-1.361,7.26
		c0.393,0.295,0.871,0.453,1.361,0.453c1.815,0,3.63-0.906,5.445-2.722c2.268-2.722,3.176-5.898,1.814-7.259
		c-0.253-0.201-0.545-0.346-0.858-0.424S34.989,19.025,34.673,19.082z"/>
	<path clip-path="url(#SVGID_2_)" fill="#FFEBD0" d="M84.581,38.139c-7.26,24.047-25.861,39.928-39.02,48.094
		c3.039,3.318,6.76,5.943,10.905,7.694s8.62,2.587,13.118,2.452c4.499-0.135,8.916-1.237,12.949-3.234
		c4.033-1.996,7.588-4.839,10.424-8.333c2.836-3.495,4.885-7.56,6.006-11.919c1.123-4.357,1.292-8.906,0.497-13.336
		c-0.796-4.43-2.536-8.637-5.104-12.332C91.789,43.529,88.454,40.43,84.581,38.139z"/>
	<path clip-path="url(#SVGID_2_)" fill="#FFD7CD" d="M50.552,18.176c0.557,0.321,1.019,0.785,1.338,1.343
		c0.318,0.558,0.483,1.19,0.478,1.833c0.006-0.643-0.159-1.275-0.478-1.833C51.57,18.961,51.108,18.497,50.552,18.176z
		 M26.052,36.777c0.258,0.643,0.695,1.196,1.258,1.598c0.563,0.402,1.229,0.635,1.918,0.672c-0.689-0.037-1.355-0.27-1.918-0.672
		C26.747,37.974,26.31,37.42,26.052,36.777z"/>
	<path clip-path="url(#SVGID_2_)" fill="#FFA351" d="M42.839,15c-0.453,4.99-2.723,14.064-17.24,21.777
		c0.258,0.643,0.693,1.195,1.257,1.598c0.563,0.402,1.228,0.635,1.919,0.672h0.453c0.839-0.031,1.641-0.353,2.27-0.908
		l19.055-14.064c0.495-0.28,0.917-0.672,1.232-1.146c0.314-0.473,0.515-1.013,0.583-1.577c0.006-0.643-0.159-1.275-0.478-1.834
		c-0.319-0.557-0.781-1.021-1.338-1.342c-0.844-0.695-1.756-1.303-2.722-1.814l-4.083-0.908L42.839,15z"/>
	<path clip-path="url(#SVGID_2_)" fill="#FFD7CD" d="M97.738,24.981c0.005,0.517-0.103,1.029-0.312,1.503
		c-0.211,0.473-0.52,0.895-0.906,1.238s-0.843,0.602-1.336,0.754c-0.495,0.153-1.016,0.199-1.529,0.135
		c0.514,0.064,1.034,0.019,1.529-0.135c0.493-0.152,0.949-0.41,1.336-0.754s0.695-0.766,0.906-1.238
		C97.636,26.011,97.743,25.498,97.738,24.981z"/>
	<path clip-path="url(#SVGID_2_)" fill="#FFA351" d="M96.377,19.083c-4.99,2.269-10.435,3.176-15.426,3.176
		c-3.969-0.043-7.923-0.499-11.796-1.36c0.281,0.188,0.586,0.34,0.906,0.453l22.686,7.26c0.302,0.037,0.607,0.037,0.908,0
		c0.513,0.064,1.034,0.019,1.529-0.135c0.493-0.153,0.949-0.41,1.336-0.754s0.695-0.766,0.906-1.238
		c0.209-0.474,0.316-0.986,0.312-1.504C97.657,22.947,97.194,20.947,96.377,19.083z"/>
	<path clip-path="url(#SVGID_2_)" fill="#FF7B59" d="M58.266,93.039c-0.12,0.061-0.26,0.07-0.388,0.027
		c-0.127-0.043-0.232-0.134-0.293-0.255c-0.061-0.12-0.07-0.259-0.027-0.388c0.043-0.127,0.134-0.232,0.254-0.293l2.27-5.444
		c0.029-0.06,0.07-0.112,0.121-0.155c0.05-0.045,0.108-0.078,0.172-0.1c0.063-0.021,0.129-0.029,0.195-0.023
		c0.066,0.004,0.132,0.021,0.191,0.052c0.06,0.029,0.113,0.071,0.156,0.122c0.044,0.05,0.077,0.107,0.098,0.172
		c0.021,0.063,0.03,0.129,0.025,0.195s-0.022,0.131-0.053,0.191l-2.268,5.444c0,0.12-0.049,0.235-0.133,0.32
		C58.501,92.99,58.386,93.039,58.266,93.039z M77.774,44.037c-0.119,0-0.234-0.047-0.32-0.133c-0.085-0.084-0.133-0.2-0.133-0.32
		l2.269-5.445c0-0.119,0.048-0.234,0.133-0.32c0.085-0.085,0.2-0.133,0.321-0.133c0.12,0,0.235,0.048,0.32,0.133
		c0.086,0.086,0.133,0.201,0.133,0.32l-2.268,5.445c0,0.12-0.049,0.236-0.133,0.32C78.011,43.99,77.896,44.037,77.774,44.037z
		 M95.47,75.797c-0.068,0.041-0.146,0.062-0.227,0.062s-0.158-0.021-0.227-0.062l-5.445-2.268c0-0.121,0.049-0.236,0.133-0.321
		c0.086-0.085,0.201-0.133,0.321-0.133l5.444,1.815c0.12-0.061,0.26-0.07,0.388-0.027c0.128,0.042,0.233,0.133,0.293,0.254
		c0.06,0.12,0.069,0.26,0.028,0.387c-0.043,0.128-0.135,0.233-0.255,0.293c-0.069,0.041-0.147,0.062-0.228,0.062
		C95.617,75.858,95.539,75.838,95.47,75.797z M46.469,56.287l-5.444-2.268c-0.04-0.069-0.061-0.147-0.061-0.227
		c0-0.08,0.021-0.158,0.061-0.228l5.444,1.815c0.12,0,0.235,0.047,0.321,0.133c0.085,0.084,0.133,0.2,0.133,0.32
		c0,0.121-0.048,0.236-0.133,0.32C46.704,56.24,46.589,56.287,46.469,56.287z M46.015,84.871c-0.039-0.068-0.061-0.146-0.061-0.227
		c0-0.079,0.021-0.157,0.061-0.227c-0.039-0.068-0.061-0.146-0.061-0.227s0.021-0.158,0.061-0.227l4.537-3.63
		c0.069-0.04,0.148-0.062,0.228-0.062s0.157,0.021,0.227,0.062c0.04,0.069,0.062,0.147,0.062,0.227s-0.021,0.157-0.062,0.227
		l-4.537,4.083c-0.069,0.041-0.147,0.061-0.227,0.061S46.084,84.912,46.015,84.871z M86.396,50.844c-0.12,0-0.235-0.049-0.32-0.133
		c-0.086-0.086-0.133-0.201-0.133-0.321s0.047-0.235,0.133-0.321c0.085-0.084,0.2-0.133,0.32-0.133l4.537-3.629
		c0.121-0.061,0.26-0.07,0.388-0.027c0.128,0.042,0.233,0.133,0.293,0.254c0.06,0.12,0.07,0.26,0.028,0.387
		c-0.043,0.128-0.135,0.233-0.255,0.293l-4.537,3.631c-0.069,0.039-0.147,0.061-0.228,0.061
		C86.543,50.904,86.465,50.883,86.396,50.844z M86.85,87.141c-0.069,0.039-0.147,0.061-0.228,0.061
		c-0.079,0-0.157-0.021-0.227-0.061l-3.629-4.537c-0.09,0-0.178-0.027-0.253-0.076c-0.074-0.051-0.132-0.121-0.167-0.204
		c-0.034-0.083-0.043-0.174-0.025-0.263c0.018-0.088,0.061-0.168,0.124-0.232c0.063-0.063,0.144-0.105,0.231-0.124
		c0.089-0.017,0.18-0.009,0.263,0.026s0.153,0.092,0.204,0.166c0.049,0.076,0.076,0.164,0.076,0.253l4.084,4.537
		c0.039,0.069,0.061,0.147,0.061,0.227c0,0.081-0.021,0.158-0.061,0.228c-0.069,0.039-0.148,0.061-0.228,0.061
		S86.919,87.18,86.85,87.141z M53.274,47.213c-0.12,0-0.235-0.047-0.32-0.133c-0.086-0.084-0.133-0.199-0.133-0.32l-4.084-4.537
		c-0.061-0.12-0.07-0.26-0.027-0.387c0.043-0.128,0.135-0.234,0.254-0.294c0.121-0.06,0.26-0.069,0.388-0.027
		s0.233,0.134,0.294,0.255l3.629,4.537c0.04,0.068,0.061,0.146,0.061,0.227s-0.021,0.158-0.061,0.227
		c0.04,0.068,0.061,0.147,0.061,0.227C53.335,47.066,53.314,47.145,53.274,47.213z M39.21,70.807c-0.121,0-0.236-0.048-0.321-0.133
		s-0.133-0.201-0.133-0.32c0-0.121,0.048-0.236,0.133-0.321s0.2-0.133,0.321-0.133l5.898-0.907c0.119,0,0.234,0.047,0.32,0.133
		c0.085,0.085,0.133,0.2,0.133,0.32c0,0.121-0.048,0.236-0.133,0.32c-0.086,0.086-0.201,0.134-0.32,0.134L39.21,70.807z
		 M90.933,62.64c-0.12,0-0.235-0.048-0.32-0.133c-0.086-0.085-0.133-0.2-0.133-0.321c0-0.119,0.047-0.234,0.133-0.32
		c0.085-0.085,0.2-0.133,0.32-0.133l5.898-0.908c0.069-0.039,0.146-0.061,0.227-0.061s0.158,0.021,0.228,0.061
		c0,0.121-0.048,0.236-0.133,0.322c-0.085,0.084-0.201,0.133-0.321,0.133l-5.444,1.36H90.933z M72.784,93.946
		c-0.12,0-0.236-0.048-0.32-0.133c-0.086-0.085-0.133-0.2-0.133-0.321l-0.908-5.898c0-0.12,0.048-0.236,0.133-0.32
		c0.086-0.086,0.201-0.133,0.321-0.133s0.235,0.047,0.321,0.133c0.084,0.084,0.133,0.2,0.133,0.32l0.906,5.898
		c0,0.121-0.047,0.236-0.133,0.321C73.021,93.898,72.905,93.946,72.784,93.946z M64.163,41.77c-0.068,0.039-0.146,0.061-0.227,0.061
		c-0.079,0-0.158-0.021-0.227-0.061l-0.907-5.898c-0.03-0.061-0.048-0.125-0.052-0.191c-0.006-0.066,0.003-0.133,0.023-0.196
		c0.021-0.063,0.055-0.122,0.099-0.172s0.097-0.091,0.156-0.122c0.06-0.029,0.124-0.047,0.19-0.051
		c0.066-0.006,0.134,0.003,0.197,0.023c0.063,0.021,0.121,0.055,0.172,0.099s0.092,0.097,0.121,0.156l1.361,5.898
		c0,0.12-0.048,0.235-0.133,0.321c-0.086,0.084-0.201,0.133-0.32,0.133H64.163z"/>
	<path clip-path="url(#SVGID_2_)" fill="#9B2C43" d="M65.979,65.361l-5.898-7.26c0.03-0.059,0.048-0.123,0.052-0.189
		c0.006-0.067-0.003-0.134-0.023-0.197c-0.021-0.063-0.055-0.121-0.099-0.172s-0.097-0.092-0.156-0.121s-0.124-0.048-0.19-0.053
		c-0.066-0.004-0.134,0.004-0.197,0.025c-0.063,0.021-0.121,0.055-0.172,0.098s-0.092,0.097-0.121,0.156
		c0,0.121-0.048,0.236-0.133,0.32c-0.085,0.086-0.201,0.133-0.32,0.133c-0.121,0-0.236-0.047-0.321-0.133
		c-0.085-0.084-0.133-0.199-0.133-0.32l-0.454-4.084c-0.061-0.119-0.07-0.259-0.027-0.387c0.043-0.127,0.134-0.232,0.254-0.293
		c0.121-0.061,0.26-0.07,0.388-0.027c0.128,0.042,0.233,0.134,0.294,0.254l3.176,1.361c0.12-0.061,0.26-0.07,0.387-0.027
		c0.128,0.043,0.233,0.134,0.293,0.254c0.061,0.121,0.07,0.26,0.027,0.387c-0.042,0.129-0.133,0.234-0.254,0.294l-0.453,0.454
		c-0.121,0-0.236,0.047-0.321,0.133c-0.085,0.085-0.133,0.2-0.133,0.32c0,0.121,0.048,0.236,0.133,0.321s0.2,0.133,0.321,0.133
		L67.794,64c0.119,0,0.235,0.049,0.32,0.133c0.085,0.086,0.133,0.201,0.133,0.321s-0.048,0.235-0.133,0.321
		c-0.085,0.085-0.201,0.133-0.32,0.133l-0.908,0.453c0,0.121-0.048,0.236-0.133,0.321s-0.2,0.133-0.32,0.133
		c-0.121,0-0.236-0.048-0.321-0.133S65.979,65.482,65.979,65.361z"/>
	<path clip-path="url(#SVGID_2_)" fill="#9B2C43" d="M66.886,64.455l-2.269-14.973c0.12-0.121,0.188-0.283,0.188-0.454
		c0-0.17-0.068-0.333-0.188-0.454c-0.12-0.119-0.283-0.188-0.454-0.188c-0.17,0-0.333,0.068-0.453,0.188
		c-0.121,0.061-0.26,0.07-0.387,0.027c-0.129-0.042-0.234-0.133-0.294-0.254c-0.06-0.12-0.069-0.26-0.027-0.387
		c0.042-0.128,0.134-0.233,0.255-0.293l1.36-3.177c-0.06-0.12-0.069-0.259-0.027-0.388c0.042-0.127,0.134-0.232,0.255-0.293
		c0.119-0.061,0.26-0.07,0.387-0.027s0.233,0.135,0.293,0.254l2.27,3.176c0.119,0.061,0.211,0.166,0.254,0.294
		s0.033,0.267-0.027,0.388c-0.061,0.12-0.166,0.211-0.293,0.254c-0.129,0.043-0.268,0.033-0.389-0.027
		c-0.119-0.121-0.283-0.188-0.453-0.188S66.553,48,66.433,48.121c-0.121,0.12-0.188,0.283-0.188,0.453
		c0,0.171,0.067,0.334,0.188,0.454l2.722,14.973c0.06,0.06,0.106,0.13,0.14,0.208c0.031,0.078,0.049,0.162,0.049,0.246
		s-0.018,0.168-0.049,0.245c-0.033,0.078-0.08,0.149-0.14,0.208c-0.06,0.061-0.13,0.107-0.208,0.139
		c-0.078,0.033-0.161,0.049-0.246,0.049c-0.084,0-0.167-0.016-0.245-0.049c-0.077-0.031-0.148-0.078-0.208-0.139h-0.453
		c-0.061,0.121-0.166,0.212-0.294,0.254c-0.128,0.043-0.267,0.033-0.388-0.027c-0.12-0.06-0.211-0.165-0.254-0.293
		C66.815,64.715,66.825,64.575,66.886,64.455z"/>
	<path clip-path="url(#SVGID_2_)" fill="#D1435B" d="M71.877,64.908c0.174,0.71,0.13,1.456-0.128,2.141
		c-0.257,0.685-0.715,1.275-1.313,1.695s-1.31,0.648-2.042,0.658c-0.73,0.008-1.447-0.205-2.056-0.609
		c-0.608-0.406-1.08-0.986-1.353-1.664c-0.273-0.678-0.336-1.424-0.179-2.137c0.157-0.715,0.526-1.365,1.06-1.865
		s1.205-0.828,1.928-0.941c0.897-0.14,1.814,0.063,2.57,0.566C71.121,63.256,71.66,64.025,71.877,64.908z"/>
	<path clip-path="url(#SVGID_2_)" fill="#FFB54D" d="M59.173,19.083c0.35,0.624,0.508,1.337,0.453,2.051
		c-0.054,0.714-0.317,1.396-0.758,1.959c-0.439,0.563-1.037,0.985-1.717,1.211c-0.678,0.226-1.408,0.245-2.1,0.058
		c-0.689-0.189-1.309-0.576-1.779-1.115s-0.771-1.205-0.863-1.915c-0.094-0.71,0.025-1.431,0.34-2.073
		c0.316-0.642,0.814-1.176,1.434-1.536c0.416-0.242,0.875-0.399,1.354-0.462c0.477-0.063,0.962-0.029,1.426,0.098
		c0.465,0.127,0.899,0.344,1.279,0.641C58.62,18.295,58.938,18.663,59.173,19.083z"/>
	<path clip-path="url(#SVGID_2_)" fill="#E6EFFB" d="M70.516,115.725c-15.427,0-27.677,1.814-27.677,4.536s12.25,4.083,27.677,4.083
		s27.223-1.814,27.223-4.083S85.488,115.725,70.516,115.725z"/>
	<path clip-path="url(#SVGID_2_)" fill="#CDDFF8" d="M17.431,25.889c-0.119,0-0.235-0.048-0.32-0.133
		c-0.085-0.086-0.133-0.201-0.133-0.32c0.453-7.714,6.806-11.797,6.806-12.251c0.12-0.12,0.284-0.188,0.454-0.188
		s0.333,0.067,0.453,0.188c0.121,0.12,0.188,0.284,0.188,0.454s-0.066,0.333-0.188,0.453c-0.453,0-6.352,4.084-6.806,11.344
		c0,0.119-0.048,0.234-0.133,0.32C17.667,25.841,17.552,25.889,17.431,25.889z M21.062,25.889c-0.121,0-0.236-0.048-0.321-0.133
		c-0.085-0.086-0.133-0.201-0.133-0.32c0.454-5.898,5.444-9.075,5.897-9.075c0.121-0.06,0.26-0.069,0.388-0.027
		s0.233,0.134,0.294,0.255c0.06,0.119,0.07,0.26,0.027,0.387s-0.135,0.232-0.255,0.293c-0.454,0-4.991,2.723-5.444,8.168
		c0,0.119-0.048,0.234-0.133,0.32C21.297,25.841,21.181,25.889,21.062,25.889z"/>
	<path clip-path="url(#SVGID_2_)" fill="#FFB54D" d="M104.544,24.527c-0.263-0.232-0.425-0.558-0.453-0.907
		c0.051-0.185,0.139-0.356,0.26-0.505c0.122-0.148,0.273-0.27,0.445-0.354c0.17-0.086,0.357-0.134,0.549-0.143
		s0.383,0.024,0.561,0.095l4.537,3.176c0.04,0.068,0.061,0.147,0.061,0.227c0,0.08-0.021,0.158-0.061,0.227
		c-0.129,0.173-0.281,0.326-0.454,0.455c-0.08,0.332-0.235,0.643-0.453,0.906c-0.069,0.041-0.147,0.061-0.228,0.061
		c-0.079,0-0.157-0.02-0.227-0.061L104.544,24.527z M106.813,20.898c-0.35-0.029-0.676-0.191-0.908-0.454
		c-0.263-0.233-0.425-0.558-0.453-0.907c0.098-0.279,0.283-0.518,0.529-0.682c0.244-0.164,0.537-0.242,0.832-0.227l5.443,0.454
		c0.121,0,0.236,0.048,0.321,0.133s0.133,0.2,0.133,0.321c0.062,0.299,0.062,0.607,0,0.907c-0.081,0.333-0.235,0.644-0.454,0.907
		L106.813,20.898z M106.813,16.814c-0.255,0.121-0.54,0.16-0.817,0.113c-0.278-0.047-0.534-0.18-0.732-0.379
		s-0.331-0.455-0.379-0.732s-0.009-0.563,0.113-0.816c0.112-0.186,0.269-0.341,0.454-0.454l4.99-2.269
		c0.069-0.039,0.146-0.061,0.227-0.061s0.158,0.021,0.228,0.061c0.218,0.265,0.373,0.575,0.453,0.907
		c0.218,0.265,0.373,0.575,0.454,0.908c0,0.12-0.049,0.235-0.133,0.32c-0.086,0.085-0.201,0.133-0.321,0.133L106.813,16.814z
		 M98.646,10.916c-0.104,0.294-0.104,0.614,0,0.908c0.233,0.263,0.559,0.425,0.908,0.453c0.361,0,0.707-0.144,0.963-0.398
		c0.254-0.255,0.398-0.602,0.398-0.963l0.453-4.99c0.04-0.069,0.061-0.147,0.061-0.227c0-0.08-0.021-0.158-0.061-0.228
		c-0.265-0.218-0.574-0.373-0.908-0.453c-0.299-0.062-0.607-0.062-0.906,0c-0.121,0-0.236,0.048-0.321,0.133s-0.133,0.2-0.133,0.32
		L98.646,10.916z M102.729,11.824c-0.263,0.232-0.426,0.558-0.453,0.907c0.111,0.186,0.268,0.341,0.453,0.453
		c0.232,0.263,0.558,0.426,0.907,0.454c0.35-0.028,0.675-0.191,0.907-0.454l3.176-4.537c0.04-0.068,0.061-0.146,0.061-0.227
		c0-0.079-0.021-0.158-0.061-0.227c-0.129-0.172-0.281-0.325-0.453-0.454c-0.265-0.218-0.574-0.373-0.908-0.453
		c-0.068-0.04-0.146-0.062-0.227-0.062s-0.158,0.021-0.227,0.062L102.729,11.824z"/>
</g>
</svg>
