<?xml version="1.0" encoding="utf-8"?>
<!-- Generator: Adobe Illustrator 16.0.0, SVG Export Plug-In . SVG Version: 6.00 Build 0)  -->
<!DOCTYPE svg PUBLIC "-//W3C//DTD SVG 1.1//EN" "http://www.w3.org/Graphics/SVG/1.1/DTD/svg11.dtd">
<svg version="1.1" id="레이어_1" xmlns="http://www.w3.org/2000/svg" xmlns:xlink="http://www.w3.org/1999/xlink" x="0px"
	 y="0px" width="130px" height="130px" viewBox="0 0 130 130" enable-background="new 0 0 130 130" xml:space="preserve">
<g>
	<defs>
		<rect id="SVGID_1_" x="16.603" y="17.353" width="96.795" height="95.295"/>
	</defs>
	<clipPath id="SVGID_2_">
		<use xlink:href="#SVGID_1_"  overflow="visible"/>
	</clipPath>
	<path clip-path="url(#SVGID_2_)" fill="#6D9FEB" d="M29.484,109.765l-0.797,1.922c-0.185,0.42,0.122,0.84,0.551,0.84
		c1.533,0,5.027-0.061,10.789,0c8.213,0.119,29.975-1.561,35.307-2.461c5.333-0.9,12.383-1.922,17.715-1.561
		c5.334,0.359,14.589-1.682,16.305-2.582c1.717-0.9,3.924-3.422,3.924-4.021s-1.471-1.32-1.961-1.801"/>
	<path clip-path="url(#SVGID_2_)" fill="#6D9FEB" d="M17.225,27.227c0,0,8.336-2.161,15.141-2.581
		c6.803-0.42,23.721-0.96,30.587-1.021c6.865-0.06-9.072,6.003-9.685,6.003"/>
	<path clip-path="url(#SVGID_2_)" fill="#9DC0F2" d="M23.047,34.67c-0.98,0.12-6.068-6.543-5.822-7.383
		c0.244-0.9,18.757-0.12,31.384-1.921c12.628-1.801,27.339-6.003,35.981-6.903s18.145-0.24,18.389,0
		c0.246,0.24-2.881,6.123-4.412,8.164c-1.533,2.041-20.475,11.765-20.475,11.765"/>
	<path clip-path="url(#SVGID_2_)" fill="#6D9FEB" d="M23.047,37.432c0,0-0.857-2.102,0-2.762c0.859-0.66,21.087-1.921,28.259-1.921
		s22.558-3.722,31.2-5.223c8.643-1.561,15.692-1.26,16.061-0.9c0.367,0.36,0.551,4.322,0.551,4.322"/>
	<path clip-path="url(#SVGID_2_)" fill="#9DC0F2" d="M22.066,39.232c0,0.66,2.452,17.468,2.881,24.552
		c0.43,7.082,1.84,20.59,2.452,29.174c0.675,8.643,0.552,15.426,1.594,16.508c1.042,1.08,10.176,0.359,21.761,0
		c11.646-0.361,27.707-3.543,37.33-3.902c9.623-0.361,16.857,0,19.064-1.682c2.205-1.68,5.087-3.182,4.29-5.762
		c-0.797-2.582-4.598-21.01-4.046-25.813c0.551-4.803-3.004-22.21-3.494-26.592c-0.551-4.322-3.371-15.607-3.801-16.388
		c-0.429-0.78-14.465,0.9-20.473,1.141c-6.008,0.239-23.538,4.861-34.879,4.861c-11.34,0-19.186,1.141-20.596,1.562
		C22.741,37.312,22.128,37.972,22.066,39.232z"/>
	<g opacity="0.298" clip-path="url(#SVGID_2_)" enable-background="new    ">
		<g>
			<defs>
				<rect id="SVGID_3_" x="29.123" y="40.433" width="73.92" height="57.359"/>
			</defs>
			<clipPath id="SVGID_4_">
				<use xlink:href="#SVGID_3_"  overflow="visible"/>
			</clipPath>
			<g opacity="0.298" clip-path="url(#SVGID_4_)" enable-background="new    ">
				<g>
					<defs>
						<rect id="SVGID_5_" x="29.123" y="47.152" width="42.479" height="50.64"/>
					</defs>
					<clipPath id="SVGID_6_">
						<use xlink:href="#SVGID_5_"  overflow="visible"/>
					</clipPath>
					<path clip-path="url(#SVGID_6_)" fill="#5A489B" d="M60.746,49.617c-0.369-1.44-1.9-2.341-3.372-1.981l-27.399,6.844
						c-0.368,0.12-0.613,0.48-0.49,0.84l10.85,41.66c0.122,0.359,0.49,0.6,0.857,0.48l27.339-6.844
						c1.472-0.359,2.391-1.861,2.022-3.301L60.746,49.617z"/>
				</g>
			</g>
			<g opacity="0.298" clip-path="url(#SVGID_4_)" enable-background="new    ">
				<g>
					<defs>
						<rect id="SVGID_7_" x="67.522" y="40.433" width="35.521" height="28.08"/>
					</defs>
					<clipPath id="SVGID_8_">
						<use xlink:href="#SVGID_7_"  overflow="visible"/>
					</clipPath>
					<path clip-path="url(#SVGID_8_)" fill="#5A489B" d="M101.324,49.077l-26.235-8.044c-1.103-0.36-2.268,0.24-2.636,1.32
						l-0.797,2.521l-1.287,4.082l-2.636,8.284c-0.368,1.08,0.245,2.221,1.349,2.581l26.234,8.043c1.104,0.36,2.27-0.239,2.637-1.32
						l3.984-12.365l0.184-0.541l0.613-1.98C103.041,50.578,102.428,49.438,101.324,49.077z"/>
				</g>
			</g>
			<g opacity="0.298" clip-path="url(#SVGID_4_)" enable-background="new    ">
				<g>
					<defs>
						<rect id="SVGID_9_" x="74.963" y="71.151" width="22.8" height="22.08"/>
					</defs>
					<clipPath id="SVGID_10_">
						<use xlink:href="#SVGID_9_"  overflow="visible"/>
					</clipPath>
					<ellipse clip-path="url(#SVGID_10_)" fill="#5A489B" cx="86.307" cy="82.152" rx="10.972" ry="10.745"/>
				</g>
			</g>
		</g>
	</g>
	<path clip-path="url(#SVGID_2_)" fill="#D1435B" d="M67.12,89.716L39.781,96.56c-0.367,0.119-0.735-0.121-0.857-0.48l-10.911-41.66
		c-0.122-0.359,0.122-0.72,0.49-0.84l27.339-6.844c1.471-0.359,3.004,0.48,3.371,1.981l9.808,37.698
		C69.449,87.854,68.592,89.356,67.12,89.716z"/>
	<path clip-path="url(#SVGID_2_)" fill="#8E243A" d="M67.12,78.911L29.729,60.843l9.134,35.176c0.122,0.361,0.49,0.6,0.858,0.48
		l27.338-6.844c1.472-0.359,2.391-1.861,2.023-3.301L67.12,78.911z"/>
	<path clip-path="url(#SVGID_2_)" fill="#FFB54D" d="M41.008,65.104c-0.123,1.74-0.123,4.441,0.49,7.383l-2.574,0.66
		C38.311,70.206,39.169,67.325,41.008,65.104z M58.416,68.286l-2.146,0.539c-0.612-1.98-1.472-4.081-2.819-6.242
		C55.78,63.724,57.619,65.765,58.416,68.286z M57.252,76.87c0.061-1.621,0-3.963-0.675-6.724l2.146-0.54
		C59.274,72.188,58.661,74.769,57.252,76.87z M48.303,72.247l2.328,8.945c-1.164,0.18-2.268,0.24-3.371,0.059
		c-0.061-0.059-0.061-0.119-0.122-0.18c-2.146-2.221-3.311-4.922-3.984-7.504L48.303,72.247z M51.98,80.831l-2.33-8.943l5.578-1.381
		c0.98,4.201,0.552,7.383,0.43,8.225C54.678,79.632,53.39,80.351,51.98,80.831z M51.244,61.743c1.84,2.581,2.942,5.102,3.678,7.443
		l-5.578,1.381l-2.329-8.944C48.425,61.383,49.896,61.442,51.244,61.743z M45.666,61.983l2.33,8.943l-5.149,1.262
		c-0.797-4.023-0.429-7.624-0.307-8.585C43.459,62.884,44.502,62.343,45.666,61.983z M39.23,74.528l2.574-0.66
		c0.613,2.281,1.594,4.563,3.188,6.723C42.295,79.45,40.149,77.351,39.23,74.528z M51.674,82.333
		c1.961-0.48,3.738-1.502,5.088-2.762c0.061,0,0.061-0.061,0.122-0.121c2.819-2.701,4.168-6.842,3.126-10.865
		c-1.042-4.081-4.291-7.082-8.152-8.103h-0.062c-1.839-0.48-3.8-0.54-5.823-0.061c-1.654,0.421-3.188,1.201-4.413,2.222
		c-0.062,0.06-0.123,0.06-0.123,0.12c-3.249,2.701-4.843,7.083-3.739,11.405C39.23,80.231,45.544,83.894,51.674,82.333z"/>
	<path clip-path="url(#SVGID_2_)" fill="#FF9400" d="M62.339,83.112l-5.577,1.381c-0.369,0.121-0.613,0.48-0.491,0.84
		c0.122,0.361,0.491,0.602,0.858,0.48l5.578-1.381c0.367-0.119,0.613-0.48,0.49-0.84S62.707,82.993,62.339,83.112z"/>
	<path clip-path="url(#SVGID_2_)" fill="#FF9400" d="M52.287,84.614c-0.92,0.24-1.472,1.141-1.227,2.041s1.164,1.439,2.084,1.199
		s1.471-1.141,1.227-2.041C54.064,84.913,53.145,84.374,52.287,84.614z"/>
	<path clip-path="url(#SVGID_2_)" fill="#FF9400" d="M47.566,86.774l-5.578,1.381c-0.367,0.119-0.613,0.48-0.49,0.84
		c0.123,0.361,0.49,0.602,0.857,0.48l5.578-1.381c0.368-0.119,0.613-0.48,0.491-0.84C48.302,86.896,47.934,86.655,47.566,86.774z"/>
	<path clip-path="url(#SVGID_2_)" fill="#FF9400" d="M47.26,81.192c-0.061-0.061-0.061-0.121-0.123-0.18
		c-2.145-2.223-3.31-4.924-3.983-7.504l5.21-1.32l2.33,8.943C49.527,81.372,48.363,81.372,47.26,81.192z M39.23,74.528l2.574-0.66
		c0.613,2.281,1.594,4.563,3.188,6.723C42.295,79.45,40.149,77.351,39.23,74.528z M58.355,74.708
		c-0.307,0.781-0.613,1.502-1.104,2.162c0.061-0.781,0.061-1.682-0.063-2.701l-1.471-0.721c0.307,2.701,0.062,4.682-0.061,5.283
		c-1.043,0.959-2.269,1.68-3.678,2.1l-2.33-8.943l1.9-0.48l-1.9-0.9l-0.307,0.061l-0.061-0.301l-1.655-0.78l0.368,1.38l-5.149,1.262
		c-0.368-1.922-0.49-3.782-0.49-5.223l-1.41-0.66c-0.062,1.68,0.062,3.901,0.49,6.242l-2.574,0.66
		c-0.49-2.58,0.122-5.102,1.472-7.202l-1.227-0.601c-1.654,2.521-2.268,5.702-1.41,8.824c1.594,6.002,7.846,9.664,14.037,8.164
		c1.962-0.48,3.739-1.502,5.088-2.762c0.062,0,0.062-0.061,0.123-0.121c1.226-1.199,2.145-2.58,2.758-4.201L58.355,74.708z"/>
	<path clip-path="url(#SVGID_2_)" fill="#0770E3" d="M93.907,66.965l-26.235-8.043c-1.104-0.36-1.717-1.501-1.349-2.582
		l4.781-14.887c0.368-1.08,1.532-1.681,2.636-1.32l26.234,8.044c1.104,0.359,1.717,1.5,1.35,2.581l-4.781,14.887
		C96.176,66.725,95.01,67.325,93.907,66.965z"/>
	<polygon clip-path="url(#SVGID_2_)" fill="#444560" points="100.662,52.745 70.418,43.478 68.935,48.118 99.181,57.385 	"/>
	<path clip-path="url(#SVGID_2_)" fill="#CDCDD7" d="M95.685,55.199l-4.353-1.32c-0.367-0.12-0.551-0.48-0.428-0.841l0.49-1.5
		c0.122-0.36,0.49-0.54,0.857-0.421l4.352,1.321c0.369,0.12,0.553,0.479,0.43,0.84l-0.49,1.501
		C96.42,55.14,96.053,55.319,95.685,55.199z"/>
	<path clip-path="url(#SVGID_2_)" fill="#084EB2" d="M76.561,54.239l-5.701-1.741c-0.367-0.12-0.552-0.479-0.429-0.84
		c0.122-0.36,0.49-0.54,0.858-0.421l5.7,1.741c0.368,0.12,0.552,0.48,0.429,0.841C77.296,54.179,76.928,54.299,76.561,54.239z"/>
	<path clip-path="url(#SVGID_2_)" fill="#084EB2" d="M80.545,59.222l-10.85-3.302c-0.368-0.12-0.553-0.48-0.43-0.84
		c0.123-0.36,0.49-0.541,0.858-0.421l10.85,3.302c0.368,0.12,0.552,0.48,0.429,0.841C81.342,59.102,80.912,59.281,80.545,59.222z"/>
	<path clip-path="url(#SVGID_2_)" fill="#084EB2" d="M88.146,61.503l-3.616-1.081c-0.368-0.12-0.553-0.479-0.43-0.84
		s0.49-0.541,0.858-0.421l3.616,1.081c0.368,0.12,0.552,0.48,0.43,0.84C88.881,61.442,88.514,61.623,88.146,61.503z"/>
	<ellipse clip-path="url(#SVGID_2_)" fill="#00A698" cx="85.203" cy="80.531" rx="10.727" ry="10.505"/>
	<path clip-path="url(#SVGID_2_)" fill="#D0EEEC" d="M90.475,92.657c0,0-0.245-2.701-1.227-3.182
		c-0.98-0.48-2.574-1.922-2.635-3.061c-0.062-1.201,1.287-2.342,2.207-3.963c0.919-1.621,2.268-3.781,1.103-6.123
		c-1.165-2.281-7.417-3.781-8.888,0.961s1.226,5.762,0.245,7.744c-0.981,1.98-2.759,1.859-2.759,1.859s-3.064-0.18-3.923,1.922"/>
	<g opacity="0.2471" clip-path="url(#SVGID_2_)" enable-background="new    ">
		<g>
			<defs>
				<rect id="SVGID_11_" x="21.683" y="28.433" width="90.239" height="82.08"/>
			</defs>
			<clipPath id="SVGID_12_">
				<use xlink:href="#SVGID_11_"  overflow="visible"/>
			</clipPath>
			<path clip-path="url(#SVGID_12_)" fill="#9DC0F2" d="M22.066,39.232c0,0.66,2.452,17.468,2.881,24.552
				c0.43,7.082,1.84,20.59,2.452,29.174c0.675,8.643,0.552,15.426,1.594,16.508c1.042,1.08,10.176,0.359,21.761,0
				c11.646-0.361,27.707-3.543,37.33-3.902c9.623-0.361,16.857,0,19.064-1.682c2.205-1.68,5.087-3.182,4.29-5.762
				c-0.797-2.582-4.598-21.01-4.046-25.813c0.551-4.803-3.004-22.21-3.494-26.592c-0.551-4.322-3.371-15.607-3.801-16.388
				c-0.429-0.78-14.465,0.9-20.473,1.141c-6.008,0.239-23.538,4.861-34.879,4.861c-11.34,0-19.186,1.141-20.596,1.562
				C22.741,37.312,22.128,37.972,22.066,39.232z"/>
		</g>
	</g>
	<path clip-path="url(#SVGID_2_)" fill="#FFFFFF" d="M91.762,26.026c-1.104,0.18-1.839,1.2-1.717,2.281
		c0.369,2.461,0.981,6.963,1.472,7.443c0.675,0.66,4.904,0.36,5.578-0.54c0.675-0.9-1.899-8.885-2.146-8.885
		C94.704,26.326,93.417,25.786,91.762,26.026z"/>
	<g opacity="0.4" clip-path="url(#SVGID_2_)" enable-background="new    ">
		<g>
			<defs>
				<rect id="SVGID_13_" x="26.963" y="38.272" width="20.64" height="11.52"/>
			</defs>
			<clipPath id="SVGID_14_">
				<use xlink:href="#SVGID_13_"  overflow="visible"/>
			</clipPath>
			<path clip-path="url(#SVGID_14_)" fill="#FFFFFF" d="M29.484,48.957c-0.43,0.24-0.981,0-1.043-0.48
				c-0.307-2.401-0.98-8.104-0.674-8.704c0.367-0.78,17.102-1.261,19.186-1.381c2.146-0.12-7.479,2.882-9.623,4.923
				C35.613,44.935,31.445,47.756,29.484,48.957z"/>
		</g>
	</g>
	<g opacity="0.4" clip-path="url(#SVGID_2_)" enable-background="new    ">
		<g>
			<defs>
				<rect id="SVGID_15_" x="31.522" y="95.151" width="22.8" height="12.48"/>
			</defs>
			<clipPath id="SVGID_16_">
				<use xlink:href="#SVGID_15_"  overflow="visible"/>
			</clipPath>
			<path clip-path="url(#SVGID_16_)" fill="#FFFFFF" d="M32.181,98.96c0,0-0.245,4.682,3.126,6.723s16.918,1.021,18.145,0
				c1.226-1.02-10.85-0.539-14.773-3.602c-3.922-3.061-6.252-6.363-6.497-6.363S32.181,98.96,32.181,98.96z"/>
		</g>
	</g>
	<g opacity="0.2" clip-path="url(#SVGID_2_)" enable-background="new    ">
		<g>
			<defs>
				<rect id="SVGID_17_" x="79.522" y="80.272" width="24.96" height="21.119"/>
			</defs>
			<clipPath id="SVGID_18_">
				<use xlink:href="#SVGID_17_"  overflow="visible"/>
			</clipPath>
			<path clip-path="url(#SVGID_18_)" fill="#FFFFFF" d="M101.814,80.532c0,0-1.654,7.863-6.865,12.305
				c-5.21,4.443-12.688,6.844-14.895,7.623c-2.207,0.781,20.228-0.779,22.925-3.781c2.696-3.061,0.122-9.004,0-12.125
				C102.856,81.433,101.814,80.532,101.814,80.532z"/>
		</g>
	</g>
	<g opacity="0.2" clip-path="url(#SVGID_2_)" enable-background="new    ">
		<g>
			<defs>
				<rect id="SVGID_19_" x="20.963" y="27.712" width="14.399" height="5.521"/>
			</defs>
			<clipPath id="SVGID_20_">
				<use xlink:href="#SVGID_19_"  overflow="visible"/>
			</clipPath>
			<path clip-path="url(#SVGID_20_)" fill="#FFFFFF" d="M24.273,32.75c0,0-2.82-4.263-2.82-4.623c0-0.359,13.18-0.06,13.731,0
				c0.49,0.061-3.004,1.621-5.7,2.882C26.787,32.27,24.273,32.75,24.273,32.75z"/>
		</g>
	</g>
	<path clip-path="url(#SVGID_2_)" fill="#9DC0F2" d="M91.945,32.749c0,0,0.246,1.861,0.491,2.161c0.306,0.3,3.861-0.18,3.923-0.601
		c0.062-0.42-0.367-2.461-0.735-2.461C95.316,31.849,91.762,31.909,91.945,32.749z"/>
</g>
</svg>
